<?xml version="1.0" encoding="UTF-8"?>
<svg width="916px" height="1296px" viewBox="0 0 916 1296" version="1.1" xmlns="http://www.w3.org/2000/svg" xmlns:xlink="http://www.w3.org/1999/xlink">
    <!-- Generator: Sketch 52.4 (67378) - http://www.bohemiancoding.com/sketch -->
    <title>background</title>
    <desc>Created with Sketch.</desc>
    <g id="Page-1" stroke="none" stroke-width="1" fill="none" fill-rule="evenodd" opacity="0.515950521">
        <g id="background" fill="#231F20">
            <path d="M223.888678,1229.3599 C395.70492,1340.7441 640.829425,1304.88754 798.900368,1178.24523 C879.844909,1112.63535 911.917274,1023.37541 915.735413,923.434788 C918.789924,858.587819 895.117464,799.844095 859.22696,745.677804 C831.736361,706.006718 809.591156,671.67597 801.191251,622.087112 C789.736835,551.899805 808.063901,484.001214 844.718033,424.494585 C871.445004,380.246065 899.69923,338.286262 904.280996,284.119971 C925.662573,90.3419717 650.756586,-87.415012 494.212899,46.8563576 C410.213847,118.569475 343.778234,219.273003 330.796562,327.605585 C320.105774,413.813908 291.851547,456.536616 223.888678,506.125474 C152.871298,555.714332 79.5630351,593.096702 36.0362538,673.964686 C-4.43601654,744.914898 -70.1080024,1037.87061 223.888678,1229.3599 Z" id="forest"></path>
        </g>
    </g>
</svg>