<?xml version="1.0" encoding="utf-8"?>
<!-- Generator: Adobe Illustrator 21.1.0, SVG Export Plug-In . SVG Version: 6.00 Build 0)  -->
<svg version="1.1" id="_x2018_ëîé_x5F_1" xmlns="http://www.w3.org/2000/svg"
	 x="0px" y="0px" viewBox="0 0 1379.8 738.2" style="enable-background:new 0 0 1379.8 738.2;" xml:space="preserve">
	<defs>
	<clipPath id="mask">
	<path d="M1349.2,738.2c10.5-39.5,18.2-82.7,22.2-129.9c42.5-499.1-83.9-587.2-217.1-605.8c-143.8-20.1-254.7,85-264.4,198.2
	c-26.3,306.1-305.7,367.3-398.1,357c-184.9-20.6-426.4-280-482.9-38.5c0,0-24.7,102.3,8.2,219H1349.2z"/>
	</clipPath>
	</defs>
<path d="M1349.2,738.2c10.5-39.5,18.2-82.7,22.2-129.9c42.5-499.1-83.9-587.2-217.1-605.8c-143.8-20.1-254.7,85-264.4,198.2
	c-26.3,306.1-305.7,367.3-398.1,357c-184.9-20.6-426.4-280-482.9-38.5c0,0-24.7,102.3,8.2,219H1349.2z"/>

</svg>
