<svg xmlns="http://www.w3.org/2000/svg" viewBox="0 0 1299 656">
    <style>.st0{opacity:.65}.st0,.st1{fill:#757848}.st2{fill:#231f20}.st2,.st3{opacity:.65}</style>
    <path d="M728 466c0 3 2 1 2 0 1-1-2-2-2 0zM721 490c-1 2 3 0 3-2s-3 1-3 2zM823 630l-5 3 5-3zM709 477c2 2 5 3 7 3-1-2-5-4-7-3zM721 470c-1 1-3 3-2 5 2 0 2-4 2-5zM426 516h-2c2 1 2 1 2 3 1-1 2-2 3 0 1-3-2-2-3-3zM423 520c0 2-3 6-1 6l4-3-3-3zM535 553c0 1-4 1-2 3 1-2 4 0 4-2h-1c1-2 2 0 3-2-2-2-2 0-4 1zM767 440c0 2 4 1 4 0s-4-3-4 0zM796 652l1-1-1 1zM1006 578h-6 6zM832 623l-2 2 2-2zM429 503c-2 2-6 6-3 8s8-6 3-8zM828 626l-5 3 5-3zM640 535c-3 1-4 3-1 4l1-4zM880 561c6 0 1-14-2-6-1 2 0 6 2 6zM849 555c-1 0-3 3-2 4 2 0 3-2 2-4zM682 480l2 1c2-1-3-3-2-1zM869 551h3c-3 7 6 3 6-2h-2v-1c-2-2-3 0-5-1 1-2-1-6-3-6l-2 5 3 5zM710 469h-1c2-1-1-2-1-3-4 4 4 7 2 3zM578 371l-10 8h-3l1 2c-1 2-2 1-3 2l-2 2h-3l-6 7-3 1-1 4c-3 1-3-4-2-4l-1-1-1-1-3 4 1 1v1c1 1 2-1 3-1 0 3-5 5-6 9l-1-2h-2l-1-1-4 3c1-1 1 3-1 2-1-1 3-4 0-6l-4 8-1-3c-2 1-3 3-1 4l-1 2c2 0 4-1 3 2l1-1 1 1c2-3 5-2 7-1l1 1 1 1 3-7h4l3-3 1 1c1 0 3-1 3 1l2-1 1 1 3-2 1 1 4-3c1-2-1-3 1-4s3-2 3-5h2l-1-2-2 1-1-2-1 2 2-4h-1c4-4 7-8 11-9l1-1 1 1v-3l3-5h-1l-1-1zm-22 31c-1-1 0-2 1-2-4-2-6 0-8 4 0-2-2-3 0-5h1c1-1 4-5 4-1 2 0 3-3 5-2l-1-1h1l1 1-4 6zm4-11l-1-1c1-2 3-5 5-4l-4 5zM562 403c1 2 7 2 8-1 0-4-7 1-8 1zM553 444c-3-2-4 1-6 1 1 3 4 2 6-1zM555 433c-3-3-4 0-5 1 2 2 3-1 5-1zM582 385c1-1 4-2 3-4-1 1-5 2-3 4zM641 257c2 2 4 2 6 2 0-2-4-3-6-2zM543 435l-3-1-1 2v-3l-4 2c-3-1 0-2 1-3v-2c1-4 7-5 7-9l-1-1-1-1-5 1v4l-8 9c-3 3-8 6-9 9-1 5 2 0 3 0l-1 2c4 0 9-4 11-8h7l2 1 6-1c1-2-3-6-4-1zM638 284l-1 2v1c2 1 4 3 5 2l-1-2 2-1c0-2-3-1-5-2zM596 376c-2-1-4 2-5 3 2 0 5-1 5-3z"
          class="st0"/>
    <path d="M525 431c1-1-1-2-1-2 2-4 8-5 8-10h-1l-1-2c-3 0-4 5-6 8l-9 9v2l-4 2-1 2c-1-1 1-2 1-3h-1l-1-2c-3 2-11 10-8 12h2l-1 2c4-2 4 4 1 4l-1 1-1-1c-1 3-3 8-6 7l-1 1-1-1-6 9h1l1 1h1c1 4-5 7-6 9l-1 3c-3 5-8 7-10 12-2 2-1 5-4 7v-3c-2 3-3 2-4 5h2c2 1 0 5 3 2 0 3-2 9-5 9 0-2 2-2 1-4l-4 6c0 1 2 0 2 2 0 3-2 1-4 2l-1 4c0 2-5 10-4 11 2 1 2-2 4-1l2 1h1c2-1 4-6 5-9l-1-3c1-3 4-4 4-5l1-4 2-2c2-4 2-8 5-13 4-9 10-15 15-24 3-5 6-13 9-15l3 1c2-1 1-3 2-3l-4 1c0-2 2-1 3-3v-4l4-3c3-4 5-9 8-7l6-10 1-1zM304 166v2l1 1 1 1c2-2 5-7 4-9 0 2-4 3-6 5zM521 456l5-3c-2-3-5 1-5 3zM514 414c2-1 5 2 5-1l-4-2c1 3-5 2-5 5 2 1 3-1 4-2zM576 315v-4l-1 3c-2-2-3 0-4 1h5zM568 326h-5c-1 0-3-1-2 1 2-1 6 2 7-1zM493 490l-1-1c-2 1-3 4-3 5h2l1 1c2-2 4-4 2-6l-1 1zM575 359c1-2 4-3 4-6-2 2-4 3-4 6zM483 426c-2-1-5-2-6 1 3 0 5 1 6-1zM480 461c1-2 5 0 5-2 2-3-8-1-5 2zM488 413l-2 2c1 3 5-1 2-2zM1155 87l7 2-7-2zM1134 79l5 2-5-2zM1141 82l6 2-6-2zM1148 84l6 2-6-2zM1126 77l7 2-7-2zM1096 69zM1119 75l6 2-6-2zM1104 71l6 2-6-2zM1111 73l7 2-7-2zM298 141l5 1 1-2h3l4-5c-1-2-2 0-3 0-4 1-8 0-10 5-1-1-3-1-4 1h4zM295 181c1-2 2 0 3 0l2-4-2-1v-2c-4-2-5 2-5 3l3 1-1 3zM818 634l-5 3 5-3zM195 520c-2 1-3 3-1 4 1-1 2-3 1-4zM1089 68l7 1-7-1z"
          class="st0"/>
    <path d="M308 162l-2-1v-2c-1 2-4 1-4 3l2 1-1 1 1 2 4-4zM566 48zM569 649c-2 4-8-1-9 2l3 3c1-5 5 2 7 1 3-1 0-5-1-6zM562 46l-1-1 1 1zM603 68l1-1 2 1-6-3-1 1c3-1 3 1 4 2zM278 178c2 0 5-2 5-3-1-2-5 0-5 3 0 0 1 0 0 0z"
          class="st0"/>
    <path d="M400 0h2-2zM393 0h5-5zM404 0h3-3z" class="st1"/>
    <path d="M794 654l-1 1 1-1zM813 637l-4 3 4-3zM807 642l-1 1 1-1z" class="st0"/>
    <path d="M409 0h2-2z" class="st1"/>
    <path d="M801 648l-2 1 2-1zM804 645l-2 1 2-1zM418 1h2-2zM414 0l2 1-2-1zM441 3l2 1-2-1zM446 4h2-2zM450 5h2-2zM437 3h2-2zM1074 65zM422 1h0zM430 2h1-1zM433 2h2-2zM661 257l-2-1c0 3-3 3-6 4 3 2 5 2 6 0l2 2c-2-1 0-3-2-2l2-3z"
          class="st0"/>
    <path d="M998 541l2-6 2-10 2-9 4-21v-7l2-4v-15l1-2v-3-18c0-13-2-24-3-34 0-2 5-7 7-9l7-11c2-3 6-12 9-11v-1h1c0-4 2-5 4-8l13-18 14-17 6-7 14-19 5-6 2-2 5-5v-2l8-7 9-12c3-2 6-3 8-6 5-7 12-11 17-16l3-3s-3-4-1-5l2 1v2l1 4c1-2 5-1 6-3 1-1 1-4-2-5-1 0-3 2-5 1-1 0-1-4-3-4 0-2 3-4 3-5 0-2-7-3-3-7l-2-2c4-2 3-7 0-6l-1 3c-1 3-3 2-3 3v6c0 1 1 6-1 6-3-1 1-3 1-4 0-2-2-1-3-2l1-2c-3-1-4 1-4 3l-3-3c-1-1-1 2-2 1 1-3 1-5-1-7-2 6-4-1-6-2l-3-2c-5 3-6 0-9-4l-1 2c0-3-5-6-8-7 1-3-2-2-4-3l-1-2c-2-1-6 1-8-2v-3l-3-1-6-4c-1-1 0-4-2-5h-2l-4-3-4-2-1-2-7-5-3-4c-2-1-4-1-6 1v2l-2-1c-1 6-2 5-5 0 1-1 3 0 4-2l-1-2 1-1-6-6h-4v-2c-1-2-3-2-5-3l-6-6-11-8-4-4-6-4-2-3h-2l-2-2-3-1-1-2-3-1c-2-1-3-5-6-5 2-5-2-3-5-4v-1l-5-2v-4c-2-3-7-3-6-5 0-2-1 0-2-1l-7-8-2-1c-5-2-8-8-11-9l-3-1-3-3c-5-4-11-4-5-9-3 1-7-1-7 2 0-3-5-2-1-4l-2-1c2-1 3-7 4-9l-2-4 1-1 1-1a415 415 0 0 0-84 24c-81 33-132 29-208-5l-22-11-1-1-2 2c-1 0-3-1-3 1-3-6-4 3-7 4l-1-2c-1 0-3 3-4 2l-1-1v1l-1-1-1 1c-2 1-3 0-5-1l-1 1c-2-1-1-4-4-1-2-2 3-2 1-4l-2 4-2-3c0 1-2 4-3 3-4 0 2-8 4-4 1-2 0-1-2-2 2-1 4-4 6-4l1 1c1 0 1-2 3-2h1l2-2 1-2 1 2 1-2-24-12 1 1-2 2c-1 0-1 3-2 2 0 2-2 1-3 3h1c-2 1-4 3-2 3-1 2-4-4-6-2-1-1 2-1 2-2l-1-2 6-3-1-1c0-1 2-1 2-3a450 450 0 0 0-97-35l-13 10-3 4-14 11-3 3c-3 3-7 4-9 7l-4 3-1 1-6 5-7 7-18 15-5 7-3 1-2 5h-3v2l-12 11-4 5-5 3-8 9c0-2-2-3-3-1 1 2 1 1 3 0-6 7-13 13-18 21l2 1 1 1 5-4 1-4 4-3 3-4 3-1 7-8c3-2 3-3 4-5 2-3 5-3 8-6v-1l4-2 2-3 3-2 6-6 5-4 10-10 4-4 5-1v-2c1-1 3-4 5-4h2v-2l2-1h2l2-4h2c2 0 4-3 5-4l4-3c3-2 4-6 7-7l4-3 5-3 3-1 3-3 4-3 6-6 3-1v-2l7-5 1-1c3-3 7-3 8-5l-1-2 32 11-3 1c-2 3-3 2-4 3l-10 8-10 5-5 6-8 4-5 4-1 1c-2 2-5 2-6 4l-2 3-4 3-2 1-9 7-5 6-6 2-7 7-2 2-5 5-8 6c-4 4-7 8-12 11l-1 1-1 1h-1l-9 8-9 10-1 2-6 3-9 9-1-2-2 2-9 9-7 9c-3 3-5 7-8 8l-3 1-1 2c-2 6-8 10-12 14l-5 6-9 11-7 8-4 2-1 2c-1 1-4 0-5 2h3c-3 4-6 10-10 12h-4c-1-1 1-3 1-4v-5l2-3-1-2c0-3 4-9 5-11l9-12c0-3 1-4-1-5-4 2-4 7-9 8v-2l-2 2c2 0 2-1 2 2s-3 6-6 10l-2 3v2l-3 1-3 7-2 2c-3 2-4 6-6 9l-5 7-13 19-7 9v2c-4 6-10 8-13 12l-7 10-5 7-9 10-4 7-3 2-2 5-2 1-1 4c-3 5-7 8-9 13v3l-2 5-1 10-1 1 1 4-1 3v3l-2 7 2 1-2 3 1 5-1 1 1 4v3l1 7-1 3 1 5 1 8-1 3 2 12c-1 3 0 7 1 10l2 7 3 9v3l1 2 2 9 3 4v2l5 8 2 4v1l12 12 10 12 1 1c3 2 2 5 4 7l3 2 2 4 5 5 2 3 8 8 1 3c1 3 4 4 5 6l3 4 6 5 2 5 2 1 7 9 3 2 5 7 3 1 9 11 2 1 7 10 4 4 11 14 5 4 3 6 2 2 8 10 3 3 1 2h198l-1-1c-2-2-5-1-5-3s4-1 5-3l1-1 5-1 1-4 2 1c2-1-1-1 0-2h3c-3 4 3 3 3 2 1-1-1-1-1-2v-6c1-4 7-1 9-1l5 1h3l1 1h3l4-2 6 3 3 4c4 1 0-5 3-5 3 1-1 8-1 9-1 3-1 6-3 8v-5c-2 1-3 5-3 7h12v-2c0-5 1-12 4-14-4-4 1-10 6-7v-1l1-1c-5-4-1-7 1-3s1 0 5 1c2 0 4 3 5 0-1-2-9-4-6-7l7 1 4 2c2 2 5 1 6 2l-7-7c-1-2 1-5-1-7-6-3-9-4-10-9-1-4-1-8 1-13 1-4 3-5 6-11v-7c0-2 3-4 5-7l4-10c4 2 7-9 8-10l3-1c2-2 1-3 1-4h2c-2 0 1-3 0-4h-2c3-4 3-8 4-11 2-5 6-7 5-11l2 1 8-15c5-3 7-4 10 2l4-3 2 1h4l3-3 1 1 2-1h3c-4-1-5-5-1-4v-2l1-1c0-2-2-3-3-5l-1-2c-1-5 4-7 8-10v-1c-3-2 0-5 3-6 2-1 10 1 10 1 3-4-7-7-7-9l3-2c1-1 3-4 5-4s3 2 5 0c-4-4 4-6 7-2 1-3 4-1 5 1 1-3 3 0 6 0l3-1 4 2 1 4-3 7c2-2 6-1 7-3s-2-3 0-4c1 1 3 4 0 4l2 3c2-4 6-8 3-10l1-3-3 1 2-6 3 3s-2 0 0 1c1 0 2-2 3-1l1-1 1 1c0-1 1-3 2-2 0 0 0 1 0 0v-2c3 0 2-3 4-4l2-2-1-2 2-1 1-2 2-1 1-5 2-1 2-6 2-1 3-4c2-2 5 2 7 0 0-2-3-2-3-5l2-5 1 1 6-7 3-2 2-3c1-1 3 2 6 2l3-1c3 0 8 3 11 5l11 4c2 2-2 5-4 10v3l-3 3-3 8-2 3-1 5-2 5-6 9-1 6v2c-1 5-5 8-6 12v3c0 3-2 5-3 8l-2 7-4 8 1 2c-2 5-6 8-5 11h1v1c6 0-1 9 1 10h3l1-5h-1l3-4 1-2 7-12v-3c3-5 10-12 13-19l3-4 1-4 8-13c1-1 4 2 4 0l-3-2 5-8h2c3-2 4-5 6-3v4c2 0 2-4 3-4 2 1 0 3 2 4 2 3 6-2 8-4 1 2-2 6 0 7 2 0 3-9 6-8v10l1 2 1 4-2 5c-2 6 2 9 2 14l-1 3v3l-1 10-1 4-2 2c-1 3 0 6-2 10l-1 2c-2 3-1 8-3 12l1-1v1c1 3-1 6-1 8h1v1c2 1 0 2 1 3h1c3 1 2-4 5-4 0 3 2 5-1 10l2-2v6l1 1v3c2-2 4-9 6-8s0 4 0 6h1c2-2 0-5 3-6-1 5-2 10-6 11v-2l-2 4c5-3-1 5 1 8l1-1 2 1c2-2 2-3 2-5l3-4 2-5 4-2c3-4 0-5 2-8l1-2c3-5 4-10 6-16l1-3c2-6 3-17 8-22-1-1-1 2-2 1 0-8 2-16 6-25-4 0 0-5 1-7 1 3 3 0 5 1v2c3 2-1 4 1 6 4-4 5-10 10-14-2 3 0 2 1 3 4 3-3 11-5 16l-2 7c-2 6-7 14-8 19h1l2 1c3-4 0 5 0 5-1 4-3 6-5 6 2 2 1 4 0 7l2 1h1l2-3-2 10-2 3v5l-1 1c-2 3-1 7-2 9l-2 5 1 4-1 2v2l-5 5c-2 2 0 2-1 4l-4 1c-1 3-1 6-5 4l-1 3c-3-1-2-3-5-3-3-1-3 3-4 4-1 2-4 2-6 4s-2 6-3 7l-2-1c-2 0-2 1-4 3l-1-1-6 6-3 4c-2 3-7 4-9 7l-1 3c-2 4-7 6-7 8 1 1 6-1 6-1l7-1 8-6c2-2 4-2 5-2l1-3h3l1-2 3-1 1-1 6-2 8-5h3l3-2 4-1h4l-3 4-3 5c12-5 24-9 37-12l6-13 3-7c2-3 5-2 7-3-6-2-4-3-2-7 3-6 3-10 10-8l3 1 1 2 3 1c4 1 3 3 4 5l3 4-2 7c0 3-3 6-4 9l1 2 42-4 6-14c3-8 3-17 6-23zm58-346c-1-4 5 0 5 3l-1-1-3 3-6-1c0-1 2-5 3-4l-1-1c1-1 1 1 3 1zm-13-9s2 1 2-1c2 0-1 3-1 4 0 3 3 4 3 1h-2l1-2 1 2 4 1 2 2-3 2c-2 2-3 0-5-2h-2l1-1-2-1 1-5zm-22 121c-2-2 0-2 1-2l-2 5c-1-1-1-5 1-3zm-18 22c4 4-5 4 0 0zm-673 39s-2 0-1-1l3-1 3-4c2 2 0 2 0 4l-2-1c0 3-1 4-3 3zm7 3l-4-1 1-2 3 1v2zm2-11l-1 1c-1-1-3-5-1-6-1 1 0 3 2 3s1-2 2-1c1 2-1 2-2 3zM577 82h2v-2c1-1 2 0 2-2l1-1 1 1h3c-3 2 0 6-4 7v1l-1-1c-1 1-1 2-2 1v1c-2 2-4 0-2-3v-2zm-4-4v3c2 1 2-2 3-1l-3 4c-2-1-1-4-2-3-1-2 2-1 2-3zm-20 8l1-2 1 1c0-3 4-3 3-1l2 1-1 2c2 1 3 2 3-1l1 1-2 3h2l-1 1c2 1-3 3 0 5-3 4-3-2-6-1 0-2-1-2-2-2 0-2 3-3 2-4h-2l-1-1c-1 1-5 2-3 4h-3c-1 1 0 3-2 5l-1-1v1h-6c0-2 4-2 4-1 3-2 3-7 0-6 0-2 2 0 2 0l2-1 2 1c2-1 2-5 5-4zm-6 25l-2-1-1 1v-1h-1l1-3v2h1c0-2 2-2 3-3l1 1-3 2 1 2zm-1-9c-1 1-4 1-4 4-2 0-2-2-2-3l2 1c-1-3 2-3 4-2zm-8 9c-2 1-4-1-5-1h-1l-1-1-1-2 1-1c-2-1-3 2-6 2l2-4h2l2-2h4c-1 2-3 1-2 3h2l1 1c1-2 2-1 3-2 2 3-6 5-1 7zm-13 7c-3-3 2-4 4-3v1h1l-2-2c3-1 0-3 4-3l-2 3h2c0 2-2 2-2 3-1 0 0 2-2 2s1-2 1-2c-1-1-3-2-4 1zm-1-40h-1l4-2c1 1 1 2 4 2-3 1-6 4-8 1h1v-1zm11 42c-2 0-2 1-2 3-2-3-1 1-3 0h-1c0-3 3-4 6-3zm2-56c0-1-1-4 2-3l-2 2 7-1v-2c3-2 5 4 1 2-2 2-1 2-1 3s1-1-1-1c0 3-1 6-3 4l-1-1h-5l3-3zm-12 7c0-1 0-3 2-4 1 0 2 4 3 1-2 0 0-5 1-5l-1 3c1 0 1-3 3-1l-2 1 1 2-2 3c2 0 2 0 2 2 2-3 5-2 9-1 0 1-2 4-4 3l1 2c-3 0-4 4-7 4 1-1 2-2 1-3v1c-2-1 0-3-2-2 0-1 4-1 3 1h1c-2-2 4-3 1-3l-1-2v2l-8-2c0-2 2 0 2-3l-6 3c-1-2 0-4 3-2zm-8 14l2 1-1 2 2 1c-1 3-5 3-7 1 1-2 2-5 4-5zm-4 31l4-4 1 1 3-4c3 3-4 6-1 8h2l-2 2c2 0-2 2-2 2l-1 3c1 0-5 5 0 5 0 4-3-2-4-2v2l-2-1c-1 4-8 4-4 0-2-1-5 2-5 3-2-2-3 0-5-3l4-3v1l2-3h4l2-2c1-1 0-4 4-4l-1-1c0-2 2-1 1 0zm-7 29c-2 1-3 3-5 1 4-2-1-3-3-3 2-1 6-1 6-4l1 2 1-1 1 4h-3l2 1zm-10-1h-4l4-3h-1c-1-1 1-1 1-2 2 0 0 1 0 3 1 1 2 0 1 1s1 1-1 1zm-1-49c3-1 3-4 5-8l1 1c-3 1 0 4-2 6h2c-1-2 1-2 2-3v-2l1-2c0-1 2 0 2-2 2 0 1 1 2 2 1-2 5-2 2 2h-1v2l-1 1c1 1 2 3-1 5l-3-1-1 2h-1c-1 1 0 2-2 1 1 2 2 3 1 4-1-2-1-2-3-2v-2h-3l1-1 2 1c0-2-3-2-3-4zm-1 10c1 1 2-1 2-2 4 4 0 5-2 9-1-2-4 0-4-2 1 1 2-1 3-1-5 0-2-8 1-4zm-10 37l1-1c1 2-2 2-2 3v1h-3l3-5c2 1 0 2 1 2zm-3-36v2l2-2 1 1-1 2v-1 3-2c-1 1-2 2-3 1l1-2h-2l2-2zm-2 48c2 1 2 4 1 5s-1-1-2-1l-3 2c-2-1-1-1 1-3h-1c1-1 2 0 4 1v-4zm-1-5c0 2-3 4-5 3 0 0 5-5 5-3zm-11 7c1-2 1-2 3-2 0 0 3-2 2 1l-4 3-1-2zm-1 13h2c-2-1 1-7 5-9v2c1 1 1-1 2-1 1 2-1 3-2 4l4 1-1 1c0-2-1 0-2-1v1l-4 1v5c-2-4-2 1-3 2l-2-1 2-2h-3c3 0 2-1 2-3zm2 7c3 0-1 2-1 4l-2-4h3zm-13-36h2v-5l3-2 1 2c1 2-2 2-3 3l-1 4h2c1 2-4 3-7 1v-2c0-1 1-2 3-1zm-23 21c-2 5-7 1 0 0zm-1 29h2v-3c3 2 6-4 9-6v-2l3-5h3l4-4v-2l2 1h1c-2-5 3-3 5-6 1 2-1 4-3 5l2 2-2 1 2 1v1h1c0 2-2 2-3 4l-1-2-1 2-1 2s0 2-1 1c1 3-3 4-5 5v1h-1c-2 1-3 1-2 3-1 0-4-1-3-3 0 2 2 0 1-1h-1l-5 1v4c4 3 4 1 5-1 1 2-2 4-3 4 0-3-3-2-4 0l-1 1-1-1c-2 0-4 5-6 4s3-7 4-7zm17 23c-2 0 0-2 0-2 1-3 0-3-4-4l1-2v2l4-2c1 1 2 3 0 4l2 1-3 1c0 1 2 1 0 2zm-5-2c2-1 0-2 0-2 1-2 3 2 2 3l-3 3c-2-3 2-2 2-4h-1zm7-18c0 2-3 3-4 4 0-1 2-5 4-4zm1-3c0-1 1-2 2-1v-1c1 0 3-1 4 1-2 0-3-1-5 1h-1zm-13 19c-3-2-1-3 1-5 0 2-2 3-1 5zm-4 100c0-2 3-2 4-4 2 3-2 5-4 4zm-39-42h1l-1 2h3c-1 3-2 1-4 1l1-3zm15 325c2-2 2-4 4-4-1 2-1 5-4 4zm100 1c-2 2-4 0-4-2 2-6 5 0 4 2zm-1-5v-3c2 3 4-1 5 0 2 1-2 5-5 3zm90-85l-1-1c-2 2-3 3 0 4-6 5-2 14-4 18-1 2-7 6-8 5l-2-2c-3 0-2 3-4 5l-3 1v3c-1 2-1 0-3 1l-3 3v-1c-1-1-5 0-3-2-1 2-3 0-5 2-1 2-1 7 1 8l2-1c1 2 0 7 2 8s5-1 7-1l2 2c2 2 5 1 7 3v2l3 2v1c2 3 3 2 6 3-4 4-4 15-9 15 4 1 3 3 1 7-6-1-10-6-15-8h-5l-2-1c-2-2-5-2-5-4-1-1-1 1-2 2l-9-2c-3-1-6-4-2-4 1 0 4 4 5 2l-2-3c1-2 4-1 4-1 3-2 1-5-1-5l-3 2h-1l-7 7-3 1-4 5c-1 2-3 2-5 3l-3 5-3 1-1 2h-5v-4s3 0 2-2h-1c0-2 2-3 4-5 0 3 2 2 4 4l1-3c6-1-2-3-3-5l-2-5-2-2c-1-1 0-5 1-6h3l8-2c-1-4-5-2-5-5-1-1-2-1-1-2l4-2 3-5 3-1 1-3 2-1c1-1-1-2-1-4l1-2-1-4c1-2 3-1 3-2l2-4c2-2 6-1 9-2-1-1-3-3-3-5h5c1 2 3 0 3-2-3 2-4-2-4-3h6c1 0 1 2 2 1 2-1 1-2 0-5 4 2 7 1 10 2-1-5-6-5-9-7-6-3-13-9-15-13 3-1 3 4 4 4 1 2 3 1 5 2l1-1v-1c-2-2-1-5-5-6 0-3 3-2 4-4 1 1 0 2-1 3 2 2 3-2 4-2l7 4 8 1 12 1 4 2 5-1c2 1-1 4-1 7 2 0 2-4 3-5 2 0 2 2 1 4h3c1 1 0 3-1 4zm-20 33c1 1 0 2 2 2v-2c0 2 3 2 4 3l-1 1 2 2s-2 0-2 2c-2-3-4-5-6-2 1-2-1-4 1-6zm29-160c-3 1-1-4 0-3v3zm39-90v2l-1 1c2 4-3 1-3 5-1 3 6-2 6 0s-6 3-7 6c2 1 4-1 5-1-3 7-6 14-11 17h1v3l-5 4-1 3-2-1c-2 1-4 7-7 3l-1 1c1 2 2-1 3 1h1l1 2h3l-8 12-8 2c-3 2-5 8-9 6 0 0 1 0 0 0v-1c-6 3-12 7-14 13h2l-1 2c2 2 3 3 6 3 2 0 3-2 5 0 1 1 0 3-2 5 1 0 4-2 2 1l1 1-1 1c2 2-2 2-1 4h1v2l3-1c2 2-5 4 0 6l1-3c2 2 0 3-1 6l-3 7c-2 2-4 0-4-1l3-3c1-1-1-1-1-2 0-2 3-2 2-4h-2l1-2-1 1-1-1c-4 1-6 10-9 7 2 3-3 6-5 4 0-2 2-1 3-3h-2l4-7c-4 1-8 3-11 8-2-4-6 6-6 7 1 4 6-2 8-3v3c1-1 4 1 7 1v-2l1 1 6-2c1 0 3 1 3-1v2c1 0 2-2 3 0-1 3-5 5-8 8l-1 2-2 1-1 3-5 4c-3 0 0-5-3-4v1h-1c-2 1 1 1-1 2-3-4-4 2-7 2h-2l-1-1c-3-1 1-3 1-5-5 0-8 9-12 3 0 2-1 2-2 3l-2 3h-4c-1 1 0 3 1 4l5-2h8c4-1 8-4 10-2l-6 8c-1-1 1-2 1-3l-4 3c-2-5-9 1-7 3 1 1 1-1 3-1l2 1 5-2v3l-6 5-6 3-1 3-3 1v2c-1 2-5 6-4 8s4 1 4 3c0 4-9 5-11 6l-3 4-1-1v6c2-2 1-1 2 0h2c1 2-3 7-5 7l-6-4-5-5c-2-1-6-2-7 0 0 3 2 1 3 3l3 5-3 1c-2 1-1 2-3 1-1 4-4 3-6 5l-4 4v3l-1 2v2l-2 1c-1 2 0 4-2 5h-1l-2 2c-2-7-9-7-13-1l-1-2-1 1-2-1-9 12 2 1c-2 1-3 5-4 7 0 0-3 0-2 2 1 3 4 6 1 11l-3 3h-4c-2 1-4 5-4 0h-2l-1-1-8 5c-1 2-6 16-9 13-2-1 1-6 1-8 1 0-1 1 1 2l1-2c-4 0-3-5 1-4-1-1 0-3 1-5h-2c-1-2 3-5 4-6 3 5 3 0 5-2l4-2c0-1-3 0-2-2-1-1-1 2-2 0v-4l-2 2c-2 0-4-2-5 0l-2-1-2 5c3 0-3 6-4 9l1 2c0 2-2 2-2 3-1 2 1 3 1 5l-3 6c-2 1-5 0-6 3l-6 18-2-2c-1 1 0 3-2 3-3-6 4-13 5-18-3 0-4 3-6 4-1-6-2-2-4 2l-1-2-2 7c1 0 1-3 2-2 1 3-3 6-5 10s-1 8-3 9c-3 3-5 0-4-3-2 1-3 7-6 7-4 1 0-5 2-7l4-1c3-3 0-5-2-5-1-1-1-3-2-2-3 0-4 6-7 7-3-2 1-5 2-8l-1-1c2-4 7-8 1-12 5-7 5-14 7-20l7-13 2-1 1-5c3-5 5-14 8-17l3-2-1-2 2-5c2 1 0 2 1 2l5-10c8-11 13-25 20-36l1 2c4 0 0-2 0-4l3-3c1-3 2-7 4-9l3-2v-1h1c3-1 2-5 3-7 1-1 2 1 2-1 2 2-2 3-1 5 1 1 2-2 3-2 2 0 4 2 5 1 1 3 7-3 7-6-2 2-3 0-2-2-2 2-5 0-5 2-2-1-5-1-5-3-2-3 8-9 9-12l3-6c3-3 8-7 10-11l1-4 8-8 2-3 4-4 2-3c2-4 3-2 5-4 3-2 2-5 3-6l6-8 6-6 3-3 1-2 3-2 3-4 11-11c2-2 7-10 10-11l2 1h5v-1l1-1-4-3c6-6 12-13 19-18l3-5 4-2 2-2 4-3 1-1 3-3 5-4 5 2c1 0 3-2 5-1l3 3h3l3 1h10l2 2 6 1 2 2 7-1 6 1c2 1 4 0 6 2-3 2-6 3-11 1zm-56 110c0-1 1-2 2-1 2 2-3 5-2 1zm48-123l4-2c0 2-2 4-4 2zm31-14c1 2-3 3-4 3-1-1 1-1 2-2-1-1-3 1-3 1l-1-1c-1 1-3 2-1 4l7 1c0 1-3 7-6 8h-4c0-2-3 0-4-1s-2-2-4 0c0-4-3-3-6-3l-1-1-1 1c-4-1-10-6-8-1-2 2-3-3-6 0l2 2c-1 1-2-1-3 1 0 0 2 0 1 1-2 0-5 1-7-1 5-1 2-4-2-5l1-1c0-3-3 0-4-1l-1-1h-4c-1-2 3-3 4-4 3-2 2-3 6-3 3 0 3-2 5 0v-1c-2-2 1-4 4-5-1 3 4 4 2 1-1-1 0 0-1 1v-2l-2-2 18-9 2 1 3-2 8 2h7l6 2 7 4c-2 3-6 15-12 13zm228-63c1 2 3 4 0 5v-5zm-50 8c1 0 2-2 3 0l1-1-2-1 1-3c0 2 2 3 3 2l-2-1c-1-1 0-4 1-5l2-3c1-1 1-5 4-5v-1h-1c1-2 5-2 3-5l1 1 1-3 4 1-2-1s3-2 2-3c3 0 2 2 3 3 0-4 4-5 7-7h-2c2-3 3 2 5-1-3 2 0-6 1-8l-5 3c-4-1 1-6 2-4 0-1 0-3 2-3v1c1 0 1-2 3-1-4 2 5 7-1 9 0 2 1 0 1 1-1 1 0 3-2 2 0 3-1 6-3 6l1-1c-1-1-3 0-3 2h1v-1 3l1-1c2 2-3 1-3 1v-2c-2 0-2 2-3 4l4 1-4 2h-1l-2 3v5c-1 2-3 2-2 0-1 0-2 3-3 2 3-6-3-3-4-1l1 1-1 1h1c2 1 0 5 1 7 2-1 1-1 2-3 1 3-1 3-2 6-1-2-3 0-2-2 0-1-4-3-5-1v1c1 2-1 1 1 3 1 1 2-1 4 1l-4 3v-2c-3 0-2 2-3 4-2-2-10-3-5-9zm10 56c-3 2-1-5-4-5 0-1 0 0 0 0l2-1v3h2v3zm-3 2c-1 1-2-2-3-1 2-4 6 0 3 1zm-4-14c1-4 3 0 4 0h-1c0 2 1 1 2 1-1 1-2 3-3 2l-2-2h1l-1-1zm-2-5c-1 1-3 2-4 1 2 1 2 4 1 5l-1-1-2 4c-1-2-2 0-4-1l5-2c-2-1-1-4 1-4-2 0-4-1-2-3h1v1h5zm-19 1c1 0 3-3 5-1l-1-3-3 1c-3-1 0-4 2-4-1-1-1-2-2-1 0-3 2-4 4-5 3 3-5 7 0 9-1-3 3 0 4-4 2 2-1 5-2 7h-3c0 3-7 4-4 1zm1-54c2-3 7-14 12-8 0 0 2 4 1 5 0 2-5 11-7 12l-5 3c-1 0-6-2-6-4s3-5 5-8zM726 450l-8-6c-1 0-5-4-3-5l7-2c1 2 5 4 7 3-1 3 0 10-3 10zm16-19s-7 1-4-3c1-2 5 1 4 3zm15-31c-1 2-2 0-2 0h-3l-2 1-2-2-3 1v2l-1 1-1 6h2l1 1 1-2c1 1 1 2 3 2l-1 2c-1-1-3-2-4 0 2-2 5 3 2 4 0-2-2-2-5-3l1 2h-2c-1 2-3 3-3 5v3l-4 4 1 1-3 7-2 3c-2-3-8-5-9-8-1-1 0-5-3-3-2-2-2-6-3-8-1-1-10-9-6-11l5 3 1-3c-1-2-1 0-2-1v-2c-4-1-1-4 1-7 3-4 6-5 8-6l1-1 1-1c-2-1-1-3-1-5l1-7c1-1 11-1 6-6 2-2 3 0 4 0 4 1 8 1 11 3l3 1c2 1 6 0 7 2-1 1 0 2-2 3-2 2-1 1-1 3 0 4-1 9-3 12l3 1c1-2 1-5 4-5-1 1 0 6 2 3l-1 5zm6-13c-1 2 1 1-1 1h-3c4-2-2-4 0-7 2 1 2 2 2 3l1-1c1 2 3 3 1 4zm23-34h1c1 2-3 4-4 3h1l-3 7c0-1 2-3-1-4l-2 5-5-2c0-2 1-2 2-3v-1c-1-1-1 2-2 1 1-3 2-4 0-6l2-1c-2-2-2 0-4 0l1 2c0 2-2 2-3 2 0 0 0 2 1 1l-3 1-1 1-1-1c-4 5-12-4-18-5l2-2-2-1c3-5 3-11 6-15l3-3 1-4c-2-2-1 2-2 3h-3l-5 5c-1 1-3-1-4-1l-1 2h-2l-5 6c-1 1-3-1-3-2l2-4 9-12 1-3 3-2c1-1-1-2-1-3 2-6 8 2 12 4 2 2 3 2 2 4 2 1 2-1 3-1l3 4 5 2 2 4 2 3c0 2-3 3-2 5-1 1 0-1-1-1l-1 5 1 1v1c1 0 3 4 4 1v2c2 1 0-2 1-3l-2 1c-1-2 1-2 1-4 1 3 3 0 3-2 2-1 2 0 3 2 0-1-1-2 1-3l1 3h-2l1 1c4-2 3 3 6 5-1 2-3 1-3 2zm34 40l-13-6-7-4c0-2 2-2 3-4v-3l3-3c3-1 5 0 7-2v-3c4 5 14 8 9 14l2 2-4 9zm4-75c2 7-9 4-2-1v2l2-1zm29-37l-1-2-1 2-1-2-1 2h1c0 2-2 1-3 1v2l2-1-1 2-2 2-2-2-1 2c2 0 3 0 4 2h1l-1 1v6c-1 0-3-1-4 1v-2c-2 1-3-2-4 0-2 1 0 1 0 2 0 4-3 5 1 7-2 2-2-2-4-2l2-2c-2 0-1-2-3-1v3l-1-2h-1c1 1 0 2-1 4v-1h-1c2 0 1-3-1-2v1l-2 1-1 3-3-1c1 2 0 2-1 3-2 1 0 2 1 3 1 2-1 3-2 4v2l-2 1c-1-1 0-4-3-3 1 2 0 2-1 3-1-1 0-1 1-2l-2 1v-3c-2 2-2 1-4 0s-5-1-6-3 1-3-1-3h-3v-1l-3-1c-2-3 0-5 1-6s2-2-1-2l-3 3h1c1 1-3 2-2 1-1-1-1 1-2 1-1-3-2-1-3-2v-1c-4-2-1 5-3 6h-1v1h-2c0 4-3 11-6 14-2-4-4-2-6-4l-2-3c0-4 7-7 8-10l1-1c2-2 1-7 1-7 1-1 4-2 5-5v-2l4-5s-1-2-3-1l-2 2-3 1c-4 2-3 6-3 8l-2 1c-1 1 0 3-2 4l-1 2h-1c1 2-1 3-2 5v3h-2l-2 4-2-3c-1-1-1 1-2 1l-2-2-4-2 3-4v-3c0-2 3-4 4-4v-2h1l6-11 23-35 12-15 5-9c0-1 5-9 7-9l7 4c1 2-6 11-9 17l-4 12-6 5v4c-1 3-3 3-5 6l-3 6c0 3 6 3 7 3l-1 2h9c0-1-3-1-2-2l-1-1-1-2-3 1c1-2 3-7 5-4l1-1 1 1c5-3 3-9 10-12 0 1 0 4 2 3-2-1 2-3 1-4s-2 0-1-1c0-1-2 0-1-1 0-3 4-4 3-7 2 0 6 3 3 5 0-5-4-1-2 1l1-1s2 2 0 2l1 1 1-3 2 1-2 2c3-2-1 2-2 3v-2c-4 0 0 2 0 4l-2 1-2 4 2-1 1 1h1l-1 1c1 2 2 0 3 1h3c1-1 0-3 2-3 0 2 2 0 4 1 0-3-3-1-4-2l1-2c-2 0-3 2-4 4-1-1 1-2-1-2 4-1 1-6 4-5l1-3c2 3 3 4 5 2v4l1-1v1c-1 1-3-1-3 2 3-1 5-2 6-4-2 1-2-3-1-4h4l1-1c-1 4-4 5-3 7h3v-3h1l1-2s3 1 3-1c1 1 0 3-2 3 0 0 2 0 0 2 0-3-4 4 1 2 1 2-2 1-3 1-1-1 0 0-1 1h-1l-1 2c1-1 0-1-1-1-1 1-1 2-2 1 0 2 0 2 2 2l2-1v2c2 0 1 3 2 3l1-1h1c2-2 4-4 1-3 1-2 2-2 4-1l-2 2c1-1 4-3 4-1 0 0-1 4-3 5l-1-1 1 1-1 1-1 4h1l1 1v1c2 0 0-1 1-1s3 1 4-1c2 2-2 4-3 4-2 0 0-1-1-2l-2 2-1 2zm11 168c2-4 8-4 5 0 4 0-3 2-1 4l-3 1c-1 4 4 0 4-1 2 2-2 7-6 9 1-1-1-3-2-3l-1 1-2-1c-1-2 5-6 6-9v-1zm9 48c-3-1-4-3-1-6 2 2 0 3 1 6zm-7-17h-2c0-1-3-1-3-3 1-2 4-4 6-2 1 1-1 2-2 5h1zm0-10l3-3c2 4-2 6-3 3zm-7-179c1 1 0 2-1 2v-1c-1 0-2 0-2 2l-2-2c2-2 3 1 5-1zm-3-3c1-4 5 2 2 1 0 0-2 1-2-1zm-2 183c2-1 2-5 5-4l1-2 1 1c1-1 5-2 3 1-2-3 0 1 0 1l-3 1 1 1v1l-1 3h-1v-1c-2 0-5 0-6-2zm7 34l2-1c2 3-6 6-2 1zm2-14c1 3-3 6-4 9 1-2-2-5 0-6l-1-1c3-1 0-6 1-9v1c0-2 3-1 4-2l1-2c-2 4 2 5 1 8 0-1-3-1-2 1l-2-2c-2 3 2 2 2 3zm8 15c2 1 2 2 4-1 1 4-2 5-4 3 1 4-2 10-6 8-1-2 2-3 2-5 0-1-2-3-1-5l1-2 3-7c3 0 4 6 5 6 1-1 0 2-1 1 0-3-5 1-3 2zm5-14c-1-2-2-8-4-1-2 0 0-6 2-6l1 1h1c3 0 0 5 0 6zm-2-159l3-1c0 1-2 4-4 4 1-1 2-2 1-3zm4 6c1 2 5 3 2 5l-4-2 2-3zm2 113c-1 2 0 7-2 8l-2-1c0-1 5-7 1-9l5-1c0 2-1 1-2 3zm5-239l-5 2-1-2c0-1 2-1 1-2-2 0-3 1-4 3-1-1 1-3 1-3 1-6-7-1-4 3h-3c-1 1 1 1 1 2-1 0-5 0-3 2h-2c-2 4-6-1-3-2l1-1c1-2 5-1 4-5l-2 2v-3l3-1 2-4 1 1v-3h3l1-1c-2 1-1-2 0-3h1l3-1 1-1 1 1c2 0 0-4 1-6 0 0 3 0 4-2v-1l1 1 2-2 1 1 1 1 1 1 1-2c1 3 3 3 3 5-3-2-1 2-2 3l-1 1c0 1 2 2 1 0l1 1c-2 0-4 3-6 2 1 1-1 2-2 2v1l1-1c0 2-3 2-4 2l1 4 3-1 2 5 1-1-1 2c2 1 1-5 2-5-1-2 2 3 2 1 0 1 0 2-2 2l1 3c-2 1 0 3-1 4v-4l-4-1v1-1l-1 1-1-1-2 1v-1zm6 121l-1-1c-1 1-1 4-3 2l2-2-1-1 1-1 3 2c0 2-1 1-1 1zm4-5c1-3-2-3-3-4 2 0 3 2 4 0 1 1 3 0 3 2-2 0-3 0-4 2zm2-122s0-3 2-2v-3c1-1 0 2 2 1 3-4-2 8-4 4zm3-34c-1 0 2-3 0-2v-1c4 2 2 2 0 3zm10-5h1l2-1 1 1c3-3 1 5-2 4l-1 1-1-2h-1l1-2c-6 0-1-6 0-1zm0 6c-1 1 1 1 2 2-3 5-6-1-2-2zm5 44c-2-1-1-2-3-2 1-6 6-2 3 2zm36 43v-1c2 2-2 3-1 5-3-1-2-6 1-4zm9 159l4 1c-1 3 1 3-1 5l-1-1s-3 1-4-1c0 1 0-4-1-3v-1c1 2 3-1 4-2l-1 2zm2-210c1-2 2-3 4-1-2 0-2 2-4 1zm-8 279c-1 1-4 0-3-3h-2c1-2 0-7 4-6l-1 3s2 0 2 2h-1l1 1-1 1c0 1 2 1 1 2zm-1-78c0 2 4 6 0 5l-1 1c-1 0-2-4 1-6zm1 42c-2-3 1-5 3-7 1 3-2 4-3 7zm3-264c-3 1-3-4 0-3v3zm-1 87h-2c0 1 0 3-2 2l-1-1c0-1 4-5 5-1zm-7 195c-2-1-1-3 1-3-1-2-2 1-3-1 6-5 5 6 2 4zm-16-285c2-1 2 2 3 2h-3v1c-1 3-3-3 0-3zm-10 137l-1-3c0-2 1-1 1-1 1-1 1-3 3-1-2 1-2 4-3 5zm2-152l-2 1 2-7c4 2-1 5 1 7-1 2-1-1-1-1zm2 69c1 1 4-2 4-2v2c1 0 3-1 1 1-1-1-2 0-3 2-2 0-1-1-2-3zm2 11l1-4c2-2 4 0 4 1-1 3-4 1-5 3zm37 242l-2 12c-2 7-2 17-5 25l-4 13c-1 2 0 5-3 7-2-1-2-5-5-5-1 0 0 2-2 2-2 1-5-3-7-3-2-1-5 1-6-2l6-10c5-8 9-17 13-27l4-5c4-6 6-13 11-19 2 4 0 8 0 12zm19-354h-3l-5 2 2 1-2 2v-2c-1-2-6-3-8 0-2-2-3 0-3 2 0-5-5-1-8-1l-1-1-4-1 1-1-2-1c0-3 3-3 3-6l-1-2h1c0-2-3-3 0-5l2 1c1 0 0 2-1 1 0 1 3 1 3-1 3 2 4 0 4-3 1 2 2-1 3 0 2 0 4 4 6 4h1l-1 1c3 1 4 3 4 5h2c2 1 2-1 3-1 3 0 5 4 4 6zm7 214c-1-3 2-5 2-3 1 1-2 4-2 3z"
          class="st0"/>
    <path d="M801 295c-1 2 0 2 1 2-2 0 1-1 2-2l-2-1-1 1zM1032 517c-1 3 0 3 1 5 0-2 1-4-1-5zM778 349c2 2 2 0 3-2l-3 2zM728 392l1 2h-2c0 1 3 4 5 3l-1-1 2-1c-1-1-3-3-5-3zM1064 181c-2 3 1 7 3 5 4-2 0-10-3-5zM1006 578c51 2 102 5 151-17-49 22-100 19-151 17zM796 273l-1 2c1 3 5-2 1-2zM802 276c-2 0-2 4-2 6 3-1 2-3 2-6zM841 261c0-3-5 0-2 2l2-2zM831 274c2-2 3-4 2-5l-4 3c2 0 1 1 2 2zM847 273l-1-1-1-1c-1 1-3 0-2-1l-2 1c-1 2 1 1 1 2l-3-1c0 3 3 2 4 3v1l2 4c-1-1 1-2 2-2v-2l1-1-1-2zM804 304h-3v-3c1 2 2 1 3 2 1-2-2-2-2-4-1 1-2 1-2 4l-1 1c2 1 1 3 3 2l2-1v-1zM819 284l-1-1 1-1c-3 0-3 1-4 3-2-1-2-2-2-4h-1c-1 2-2 1-3 1v2c1-1 1-2 2-1l-2 4 3-1c2 3-3 5 0 7 0-4 3-4 4-1 1-2 4-5 2-6 1 0 3-1 2-3l-1 1zM1031 516c1-2 0 1 2 1 2-1 2-6 1-8l-3 7zM1035 524c2-1 2-4 1-6 0 2-2 4-1 6zM864 216zM1146 230l-3 2-2 4c0 2 9 0 9-3-1 0-2-3-4-3zM889 198c-2-2-2 2-4-1 0 2 0 4-2 3l-2 1-1-1v4-1l1 2c2 2 8-6 8-7zM866 184v2c2-1-1-2 1-3h3c-3-3-5-3-6 1h2zM1153 197c-5 1-5 12-1 13 4 2 4-2 6-5s4-4 3-6c-3 3-6-2-8-2z"
          class="st0"/>
    <path d="M480 145h3v-1c0-1 3-1 2-3l-1 1v-2l-4 5zM478 149c-1-3-5 3-5 3 2 1 5-1 5-3zM460 133zM453 143c2 2 7 1 6-1h-2l2-3c0-2 3-2 2-4l-1-2-3 2a18 18 0 0 0 0 5h-2c-2-1-3-1-3 1l1 2zM457 140zM475 157h1c-2 2-3 2-1 3l3-2c1 0 1 2 2 1s1-4-1-5v4c-2-1-3-2-4-1zM468 158l5-3c0-3-3-1-3-1-2 0-2 0-3 2l1 2zM481 108l-1 2h3v1l1-3-1 1v-2-1l-2 2v-2l-2 2h2zM490 110c0 2 3 0 4 2 2-4 6-5 2-9 0 1-1 3-2 2-3-4-6 4-1 4-1 0-2 2-3 1zM513 117c-4 0-3 3-4 4l-2 1-4 1-2 2h-1l-3 3c2 3 4 1 5 3 0-1 3-4 5-3-4 4 3 4 4 0l1 1 1-2c1 0 4 6 4 2-5 0 1-5 0-5l1-3s4-2 2-2l1-2-1-1c-3-1 4-4 1-7-2 0-2 3-3 3h-1c-2 1-2 3-4 3 1 0-1-1-1 1l1 1zM496 141c0-1 2-2 0-2l-2 2 2-1c0 2-3 2-4 3 0 2 3 1 4 1 2 0 0 0 1-1s0 0-1-2zM496 98l-1 1h3c0 1-2 1-1 2 2 0 3 0 4 2 1-2 0-3-1-4 2 1 1 0 2-1h1l1-2 3 1c3-2 1-4 0-5l1-1 1-2h1c3-4-2-4-3-2l-1-2c0 2-2 1-2 2l-1 2v2c-1 1-4 1-2 3h-3c3-3 0-5 3-6l-1-1c-2 4-2 7-5 8 0 2 3 2 2 4l-1-1zM467 172l-2 2 2 1c1-1 1-6 3-3v-4l4-1v-1c1 1 2-1 2 1l1-1c-2-2-2-1-3-1 0-1 2-3 1-4-1 0-1 2-2 1v-2c-4 2-7 8-5 9h-2c0 1 1 3-2 3h3zM507 144l-1-4-1 1-1-2c0 3-4 3-6 3v1c2 0 7 1 3 3 2 2 3 0 4-1l-1-2c1 1 2 2 3 1zM398 269h-3l1-2h-1l-1 3c2 0 3 2 4-1zM335 366c0-2 2-2 0-4l-3 4-2 1v1c2 1 3 0 4-3l1 1zM339 358c-1 0-3-2-2-3-2 1 0 5 1 6l1-1c1-1 3-1 2-3-1-1 0 1-2 1zM439 204c-2 2-3 3-1 5-1-2 1-3 1-5zM434 309c2 1 6-1 4-4-1 2-4 2-4 4zM337 369l-3-1-1 2 4 1v-2zM520 89h-2l1-3-2-1c-2 0-3 3-4 5 2 2 6 2 7-1zM519 86zM452 191c2-3 3-2 5-2-1-2-3-1-4-1v1l-2 1c1-1 0 1 1 1zM433 193l1 1 1-1c1-2 3-3 4 0 1 0 4-2 3-4-1 2-2 4-5 1v-2-2l5-1h1c1 1-1 3-1 1-1 2 2 3 2 3 0-2 1-2 3-3h1v-1c2-1 6-2 5-5l1-2 1-2 1-1 1 1c1-1 3-1 3-3h-1l-1-1-1-1 2-1-2-2c2-1 4-4 3-5-3 3-7 1-5 6h-1l-2-1v2l-4 4h-3s-3 3-3 5v2c-3 2-6 8-9 6v3h-2c-1 0-6 6-5 7 3 1 5-4 7-4zM465 176l2 4c0-2 3-3 0-4h-2zM432 161c-7 1-2 5 0 0zM451 210h-2c2-2 1-4 0-5l-4 2v-2l-1 2c4 1 4 1 4 4 0 0-2 2 0 2 2-1 0-1 0-2l3-1z"
          class="st2"/>
    <path d="M442 215l3-3c1-1-1-5-2-3 0 0 2 1 0 2h1c0 2-4 1-2 4zM450 193c-2-1-4 3-4 4 1-1 4-2 4-4zM911 588l33-7-33 7zM943 580c1-3 4-7 4-10l2-7c0-2-2-2-3-3-1-2 0-4-4-6h-3l-1-2-3-2c-7-1-7 2-10 8-1 4-3 6 2 7-2 2-5 1-7 3l-3 7-6 13 33-7-1-1zM1044 192l-1 1h2c2 2 3 3 5 2l3-2-1-2-5-1s1-2-1-2l-1 2h2c0 3-2 2-3-1 0-1 3-4 1-4 0 2-2 1-2 1l-1 4 2 2zM1054 195c-1-1-3 3-3 4l6 1 3-3 1 1c0-3-6-7-5-3-2 0-2-2-3-1l1 1zM981 133c-1 0-1 2-3 1h-2c0-2-1-4-4-5l1-1h-1c-2 0-4-4-6-5-1 0-1 3-3 1 0 3-1 5-4 3 0 2-3 2-3 1 1 1 2-1 1-1l-2-1c-3 2 0 3 0 4l-1 1 1 2c0 3-3 3-3 5l2 2-1 1 4 1 1 1c3 0 8-5 8 1 0-2 1-4 4-2 1-3 6-2 7 0v2l2-2-2-1 5-2c1-1 2 1 3-1 1-1-1-5-4-5zM858 257c-1-1-1 1-2 1v-4l-2 1s0-1 0 0c3 1 1 7 4 5v-3zM1110 73h0zM986 578zM1133 79h1-1zM1118 75h0zM1139 81l2 1-2-1zM1125 77h0zM1147 84h0zM1103 71h0zM1088 68h0zM1096 69zM1074 65zM1154 86l1 1-1-1z"
          class="st2"/>
    <path d="M1162 89l-7-3h-1l-6-2h-1l-6-2-2-1-5-2h-1l-7-2h-1l-6-2h-1l-7-2h-1l-6-2h-1l-7-2-7-1h-1l-14-3c-51-9-102-11-152-3l-1 2 1 4c0 2-1 8-3 9h2c-4 3 1 2 1 4 0-3 3-1 7-1-6 5 0 5 5 8l2 3 4 1c3 2 6 8 10 10h3l7 9h2c-2 3 4 3 6 6l-1 3 5 2 1 2c2 1 7-1 5 4 3 0 4 3 6 5h3l1 3h3l2 2 2 1 2 3c1 2 4 3 6 4l4 4c3 3 8 4 11 8l5 5c3 2 5 1 6 4v1l4 1 6 5-1 2 1 1c-1 2-3 1-4 2 3 5 4 7 5 0l1 1 1-1c1-2 3-3 6-1l2 3c2 2 6 3 7 5l1 2 5 3 4 3h2c2 1 0 3 2 5l6 4h2l1 4c2 3 5 1 7 1l2 2c1 1 4 0 3 3 4 1 9 4 8 7 1 1 1-1 2-1 3 4 4 7 9 3 0 2 1 2 3 3s4 7 5 2c2 2 3 4 2 6 1 1 1-1 2-1l3 4c0-2 1-4 3-3v1c1 2 2 1 3 2 0 1-4 4-1 4 2 1 1-5 1-6l-1-5 4-3 1-3c3-2 3 4 0 6l2 1c-4 5 3 6 3 8 0 1-3 3-3 5 1-1 2 3 3 4 2 1 4-2 5-1 2 1 3 4 2 5-1 2-5 0-6 3l-2-4 1-2-3-1c-1 1 2 4 1 5l-2 3c-5 5-12 9-17 16-2 3-5 4-8 6l-9 12-8 6-1 3-5 4-1 3-5 5-15 20-6 6c-4 7-10 12-13 17l-13 18c-3 4-4 4-4 8h-1v1c-3-1-7 8-9 12l-8 11c-1 2-6 6-6 9 1 10 3 21 3 34v21l-1 2v15l-2 4v7l-5 21-1 9-3 10c0 2 1 2-1 6-3 6-3 15-6 22l-6 14h14l6 1c51 1 101 5 151-18 179-76 198-401 5-471zm-95 97c-2 2-5-2-3-5 3-5 7 3 3 5zm-34 336c-1-2-2-2-1-5 2 1 1 3 1 5zm0-5c-2 0-1-3-3-1l4-7c1 2 1 7-1 8zm2 7c-1-2 1-4 1-6 1 2 1 5-1 6zm106-288l2-4 3-2c2 0 3 3 3 3 1 3-8 5-8 3zm17-31c-2 3-2 7-6 5-4-1-4-12 1-13 2 0 5 5 8 2 1 3-1 4-3 6zM844 242h-1c-2 2 0 3 2 2-2 1-3 4-1 5l-5 2c1 1 3-1 3 1 0-3 3-2 2-4l1 1c2-2 1-4 0-5l3-1h-4v-1zM837 242c1-1 4-4 2-6-1 4-5 1-4 4-5-2 3-6-1-9-1 1-3 2-3 5h2c-2 1-5 4-3 5l4-1v3c-2-2-3 1-4 1-3 3 4 2 3-1 2 1 4 1 4-1zM609 70zM609 70zM819 633l-1 1 1-1zM809 640l-2 2 2-2zM824 629l-1 1 1-1zM799 649l-2 2 2-2zM803 646l-2 2 2-2zM806 643l-2 2 2-2zM794 654l2-2-2 2zM793 656v-1 1zM874 601zM830 625l-2 1 2-1zM880 591c-1-1-2 0-4 1h-4l-3 3-3-1-7 5c-3 2-6 2-7 2l-1 2-3 1-1 1-3 1-1 2-5 2-8 7-7 1s-5 2-6 0c0-2 5-4 7-8l1-2 9-8 3-4 6-5h1c2-1 2-3 4-3l2 1 3-7c2-2 5-1 6-3 1-1 1-6 4-5 3 0 2 3 5 3l1-2c4 2 4-2 5-5l4-1c1-2-1-1 1-3l5-6v-2l1-2-1-3 2-5c1-3 0-7 2-9l1-2v-5l2-2 2-10-2 3-1-1-2-1c1-2 2-5 0-7 2 1 4-2 5-6 0 0 3-9 0-5l-2-1h-1c1-5 6-13 8-18l2-8c2-4 9-13 5-16-1 0-2 0-1-2-5 4-6 10-10 13-2-1 2-4-1-5v-1-2c-2 0-4 2-5-1-1 3-5 7-1 7-4 9-6 17-6 25 1 1 1-2 2 0-5 4-6 15-8 22l-1 3c-2 5-3 11-6 15l-1 3c-2 3 1 4-2 7l-4 3-2 4c0 2-2 3-3 5 0 1 0 3-2 4l-2-1-1 1c-3-2 4-10-1-8l2-3v2c4-2 5-6 6-11-3 0-1 4-3 5h-1c0-2 2-5 0-6s-4 6-6 8v-3l-1-1v-6s-1 3-2 2c3-5 1-7 1-10-3 1-2 6-5 5l-1-1v1c-1-1 1-3-1-4v-1h-1c0-2 2-5 1-7v-1h-1l3-12 1-2c2-3 1-6 2-10l2-2 1-4 1-10v-3l1-3c0-5-4-8-2-13l2-6-1-4-1-2v-9c-3-2-4 7-6 7-2-1 1-5 0-7-2 2-6 7-8 5-2-1 0-4-2-5-1 1-1 4-3 4v-4c-2-1-3 1-6 3l-2 1-5 7 3 2c0 3-3 0-4 0l-8 13-1 4-3 5c-3 6-10 13-13 18v4l-7 11-1 2-3 4 1 1-1 5h-3c-2-2 5-11-1-11v-1l-1 1c-1-4 3-7 5-12l-1-2 4-8 2-7c1-3 3-5 3-8v-3c1-4 5-7 6-12v-2l1-5 6-9 2-5 1-5 2-4c2-2 2-6 3-8l3-3v-3c2-5 6-8 4-9l-11-5c-3-2-8-5-11-5l-3 1-6-2-2 3-3 2c-3 3-4 7-6 7h-1l-2 4c0 3 3 3 3 6-2 1-5-3-7-1l-3 4-2 2-2 5-2 1-1 5-2 1-1 2-2 1 1 2-2 2c-2 2-1 4-4 4v3-1l-2 2h-2c-1-1-2 1-3 1-2-1 0-1 0-1 0-1-2-3-3-2l-2 5c0 2 2-1 3 0l-1 3c3 1-1 6-3 9l-2-2c3-1 1-3 0-5-2 1 1 3 0 4-1 2-5 2-7 3 1-3 3-4 3-7l-1-3-4-2h-3c-3 0-5-3-6 0-1-2-4-4-5-1-3-3-11-2-7 2-2 2-3 0-5 1-2 0-4 2-5 3l-3 2c0 3 10 5 7 9 0 1-8-2-10-1-3 1-6 4-3 6v2c-4 2-9 4-8 9l1 3c1 1 3 2 3 4l-1 1v2c-4-1-3 3 1 4-1 2-2 0-3 0l-2 1h-1l-3 2-4 1-2-2-4 3c-4-5-5-5-10-2-2 2-6 14-8 15 0 0-2-2-2 0 1 3-3 5-5 10-1 4-1 8-4 11 1 0 1-1 2 1 1 1-2 3 0 3h-2c0 2 1 2-1 4l-3 1c-1 1-4 12-8 10 0 3-2 7-4 10s-5 6-5 8v7l-6 11c-2 4-2 8-1 12 1 5 4 6 10 10 2 1 0 4 1 6l7 7-6-1-4-3h-7c-3 2 5 4 6 6-1 3-3 0-5 0-3-1-3 3-5-1s-6 0-1 4l-1 1v1c-5-4-10 2-6 6-3 2-4 9-4 14v2h207l1-1 2-2 1-1 2-2 1-2 2-1 2-2 2-1 1-2 2-1 4-3 4-4 1-1 5-3v-1l5-3 2-1 2-2c14-8 28-16 42-22l3-5c1-1 3-2 3-4zm0-30c-2 0-3-4-2-6 3-8 8 6 2 6zm-12-20c2 0 4 4 3 6 2 1 3-1 5 1v1h2c1 5-9 9-6 2h-3l-3-5 2-5zm-19 14c1 2 0 4-2 4-1-1 1-3 2-4zm-210-16c-3-1-2-3 1-4l-1 4zm45-58l-2-1c-1-2 4 0 2 1zm24-15c1 1 3 2 1 3h1c2 4-6 1-2-3zm1 11c2-1 6 1 7 3-2 0-5-1-7-3zm10-2c-1-2 1-4 2-5 0 1 0 5-2 5zm2 15c0-1 3-4 3-2s-4 4-3 2zm7-24c0-2 3-1 2 0 0 1-2 3-2 0zm39-26c0-3 4-1 4 0s-4 2-4 0zM539 104c-1 1-2 0-3 2l-1-1h-2c-1-2 1-1 2-3h-4l-2 3-2-1-1 4c2 0 3-3 5-2 0 1-2 1-1 2l1 1 1 1 1 1h5c-5-2 3-4 1-7zM410 592c2 1 3-2 4-4-2 0-2 2-4 4zM561 45zM566 48l-4-2 4 2zM566 48zM558 49l1 1c-1 2-4 0-5 3l1 1c0 1-3 2-2 3 2-2 5 4 6 1-2 0 0-2 1-2v-1c1-1 3-1 2-3 2 2 2-1 3-2l2-2h-1l-4-2-1-1h-1c1 2-1 2-2 4zM607 69l-1-1 1 1zM600 65l-10-5 10 5zM588 60l-1 2c-1-1-2 2-2 2l-1-1-3 3-1-1c-2 0-4 3-6 4 2 0 3-1 2 1-2-3-8 5-4 5l3-3 2 2 2-3c2 1-3 2-1 4 3-4 1 0 4 1l1-1c2 1 3 2 5 1-1 0 0-2 1-1h1s0-1 0 0l1 1 4-2 1 1c3 0 4-10 7-4-1-2 2 0 3-1l2-1-2-1-2-1-1 1c-1-1-1-3-4-2l1-1-10-5-1 1-1-1zM549 107l-1-1c-1 1-3 1-3 3h-1v-2l-1 3v1h1l1-1 2 1-1-2 3-2zM544 90s-2-2-2 0c3 0 3 4 0 6 0-1-4-1-4 1h5l1-1 1 1c2-1 1-3 2-5h3c-2-2 2-3 3-4l1 2 2-1c1 2-2 2-2 4 1 0 2 0 1 2 4-1 4 5 7 1-4-2 2-3 0-5l1-1h-2l2-3-1-1c0 3-1 2-3 1l1-2-2-1c1-2-3-2-3 1l-1-1-1 2c-3-1-3 3-5 4l-2-1-2 1zM540 103c0 1 0 3 2 3 0-3 3-3 4-5-2 0-5 0-4 3l-2-1zM539 67l1 1c2 2 3-1 3-4 2 0 0 2 1 2 0-2-1-2 1-4 4 2 2-4-1-2l-1 1-6 2 2-2c-3-1-2 2-2 3l-3 3h5zM523 79c1 3 5 0 7-1-2 0-2 0-3-2l-4 2v1s2-1 1 1l-1-1zM579 87v-1c1 1 1 0 2-1l1 1v-1c4-1 1-5 4-7h-3l-1-1-1 1c0 2-1 1-2 2v2h-2l-1 2c-1 3 1 5 3 3z"
          class="st2"/>
    <path d="M528 70c0 3-2 1-2 3l8 2v-2l1 2c3 0-3 1-1 3h-1c1-2-3-2-3-1 2-1 0 2 2 2v-1c1 1 0 2-1 3 3 0 4-4 7-4l-1-2c2 1 3-2 4-3-4-1-7-2-9 1 0-2 0-2-2-2l2-3-1-2 2-1c-2-2-2 1-3 1l1-3c-2 0-3 5-1 5-1 3-3-1-3-1-2 0-2 3-2 4-3-2-4 0-3 2l6-3zM669 240h-7l-8-2-3 2-2-1c-6 1-12 6-18 9l2 2v2c1-1 0-2 1-1 2 3-3 2-2-1-3 1-6 3-4 5v1c-1-2-2 0-5 0-4 0-3 1-6 3-1 1-5 1-4 3l4 1 1 1c1 0 4-2 4 1v1c3 1 6 4 2 5 1 2 4 0 6 1v-1c0-2 1 0 2-1l-1-2c2-3 3 2 5 0-2-5 4 0 8 1l1-1 1 1c3 0 6-1 6 3 2-2 3-1 4 0s4-1 4 1l5-1c2 0 5-6 5-7l-6-2c-2-1-1-2 0-3l1 1s2-2 3-1c-1 1-3 1-2 2 1 0 5-2 4-3 6 2 10-10 12-13l-7-5-6-1zm-28 17c2-1 6 0 6 2-2 0-4 0-6-2zm20 5c-1 1-2-1-2-2-1 2-3 2-6 0 3-1 6-1 6-4l2 1-2 3c2-1 1 1 2 2zM573 84l3-4c-1-1-1 2-3 1v-3c0 2-3 1-2 3 1-1 0 2 2 3zM528 119c2 0 1-2 2-2 0-1 2-1 2-3h-2l2-3c-4 0-1 2-4 3l2 2-1 1v-2c-2-1-7-1-4 3 1-3 3-2 4-1 0 0-3 2-1 2zM533 123l1-3c-2-1-5 0-5 3h1c1 1 1-3 3 0z"
          class="st2"/>
    <path d="M643 271l-4 2c2 2 4 0 4-2zM559 390h1l4-4c-2-1-4 2-5 4zM858 289c3 1-1-5-2-1 0 2 2 1 2 1zM889 331l-1 1 1 1-2 2c2 2 2-1 3-2l1 1 1-1-3-2zM854 292l2 2c0-2 1-2 2-2v1l1-2c-2 2-3-1-5 1zM950 468c-2 0-3 2-1 3 3 2 4-9-2-4 2 2 2 0 3 1zM881 344c2-2-2-3-3-5l-2 3 5 2zM957 446c-2 2-5 4-3 7 1-3 4-4 3-7zM851 249l2 2c1 1 2-1 3-2-1 0-2 1-2-1h1c-1 0-3-4-4 0l1 1h-1zM953 416c4 1 0-3-1-5-2 2-1 6 0 6l1-1zM856 278v1c2 0 6-1 3-4-1 2-2 2-3 1-1 0 1 1-1 2v-1l-1-2h-1v-4l2-1-1-1 1 1c2-1 3-5 3-5-1-2-3 0-4 1l2-2c-2-1-4-1-4 1 3-1 1 2-1 3h-1l-1 2c-1-1 0-4-2-4v-1h-2l-2-1 2-1h1l1-2h1c1-1 0-2 1-1 0 0 4 1 2-1-4 2 0-5 0-2v-2c1 0 3-2 1-3 1 2-2 1-2 1l-1 3-1-1v3h-3c-1-2 1-3 3-7l-1 1h-4c-1 1-2 5 0 4 0 2-2 3-5 4 0-2 1-1 3-2-1-2-1 0-1 0v-4c-2 2-4 1-5-1l-1 2c-3-1-1 5-4 5 2 1 0 1 1 2 0-2 2-4 4-3l-2 1c2 1 5-1 4 2-1-1-3 1-4-1l-1 3h-3c-1 0-3 1-3-1l1-1-2 1v-1h-2l2-4 1-1c1-2-3-4 1-4v2c1-1 5-5 2-3l1-2-1-1-1 3-1-1-1-2c1 1 0 1-1 1-1-2 2-6 3-1 3-2-2-5-3-5 1 3-3 4-3 7v1l2 1c0 1-3 3-1 4-3 1-2-2-3-3-7 3-4 9-9 12l-1-1-1 1c-2-3-4 2-6 4l4-1v2l2 1c-1 1 2 1 2 2h-9l1-2c-1 0-7 0-7-3l3-6c2-2 4-3 5-6v-4l6-5 4-12c3-6 10-14 9-17l-7-4c-2 0-7 8-8 9l-4 9-12 15-23 35-6 11h-1v2c-1 0-4 2-4 4v3c-1 1-4 3-3 4 0 2 3 1 4 2l2 2c1 0 1-2 2-1l1 3c2 0 2-3 2-4h3v-3c1-2 3-3 2-5h1l1-2c2-1 1-3 2-4l2-1c0-2-1-5 2-8h4l2-3c2-1 3 1 3 2l-4 4v3l-5 4c0 1 1 5-1 7v1l-1 1c-1 3-8 5-8 9l2 3c2 2 4 1 6 4 2-3 6-10 6-14h2v-1h1c2-1-1-8 3-6v1c1 1 2 0 3 2 1 0 1-2 2-1-1 1 3 0 2-1h-1l3-3c2 0 2 1 0 2-1 1-2 3 0 6l3 1-1 2 4-1 1 3c1 2 4 3 6 3 2 1 1 2 3 0l1 3 2-1c-1 1-2 2-1 3 1-2 2-2 1-3 3-1 2 1 2 3 0-2 2-1 3-2v-2c1-1 3-1 1-3 0-1-2-3 0-4 0 0 2-1 1-3l2 1 2-3h1l1-2c2-1 3 2 1 2l1 1c1-2 2-3 1-4h1l1 2v-2c2-2 1 0 2 0l-1 2c2 0 2 4 4 2-4-2-2-3-1-6 0-2-2-2-1-3 2-2 3 1 5 0v2l3-1 1-6 1-1h-2c-1-2-1-1-3-2l1-1 2 1 2-2v-2c-1 0 0 2-1 1v-1c1-1 3 0 3-2h-1c1 0 0-2 1-1 0 0-1 1 1 1l1-1 1 1 1-2 2-1zm-61-3l1-2c4 0 0 5-1 2zm9 20c-1 1-4 2-2 2-1 0-2 0-1-2l1-1 2 1zm-4-13c0-2 0-6 2-6 0 3 1 5-2 6zm4 23l-2 2c-2 0-1-2-3-3h1c0-3 0-4 2-5 0 2 3 2 1 4l-2-1v2h3v1zm15-19c2 1-2 4-3 6-1-3-4-2-4 1-3-2 2-4 0-7l-3 1 2-4c-1-1-1 0-2 1v-2c1 0 2 1 3-1h1c0 2 0 3 2 4 1-2 1-3 4-3l-1 1 1 1h2l-2 2zm12-12c-1-1 0-2-2-2l4-3c1 1 0 3-2 5zm10-13l-2 2c-3-2 2-5 2-2zm6 17c-1 0-3 1-2 2l-2-3v-2c-1-1-4 0-4-2h3c0-1-2 0-1-1 2-1 0-2 3-2-1 1 0 3 1 2h1l1 1 1 2-1 1v2zM963 425zM957 420l1 4 5 1v1c2-2 0-2 1-5l-4-1c1 0 2-2 1-3-1 2-2 5-4 3z"
          class="st2"/>
    <path d="M852 261c1-1 2 2 2 1 4-1 0-5-2-1zM896 325c-1 2-2 0-4 0 1 1 4 1 2 4 2-2 3-2 5-2 0-2-2-1-3-2zM877 486h-2l-1-1c-2 0-4 5-2 6 2-7 4-1 5 1-1-1 2-6 0-6zM872 491c-3 3-2 5 1 6-1-3 1-4-1-6zM877 332l-3 1v3l3-4zM869 468l-3 2c1 3 5 1 3-2zM874 505l1-2c-1 0-2-6-4-6l-3 7-2 3c0 1 2 3 1 4l-2 5c4 2 7-4 6-8 2 2 5 1 4-3-2 4-2 2-4 1s3-5 3-1zM861 505c-4 5 4 2 2-1l-2 1zM955 500l-4 5c-4 10-8 19-13 27l-6 10c1 3 4 1 6 2 2 0 5 4 7 3 2 0 1-2 2-2 3 0 3 4 5 5 3-3 2-5 3-7l4-13c3-8 3-18 5-25l2-12c0-4 2-8 0-12-5 6-7 13-11 19zM954 486h-1l1-1c0-2-2-2-2-2l1-3c-4-1-3 4-4 6l2 1c-1 3 2 3 3 2v-2-1zM877 450c4 2-1 8-1 9l2 1c2-1 1-6 2-8s2-1 2-3l-5 1zM822 317c-7 5 4 8 2 1l-2 1v-2zM858 459l2 1 1-1c1 0 3 2 2 3 4-2 7-7 6-9 0 1-5 5-4 1 2 1 2 0 3-1-2-2 5-4 1-4 2-4-3-4-6 0l1 1c-1 3-7 7-6 9zM863 490c0-2 2-2 2-1 1-3-3-4 0-8h-1v2c-2 1-5 0-4 2-1 0 0-2-1-1-1 3 2 8-1 9l1 1c-2 1 1 4 0 6 1-3 5-6 4-9 0-1-4 0-2-3 1 1 0 2 2 2zM900 170v1c2-1-1 2 0 2 2-1 4-1 0-3zM934 189l-1-1h3c-1 1-1-3-3-2-3 0-1 6 1 3zM909 171h1l1 2h1c3 0 5-8 2-5l-1-1-2 1h-2c0-5-5 1 0 1v2zM951 278h1c2 1 2-1 2-2h1c0-4-4 0-4 2zM910 174c-4 1-2 7 2 2-1-1-3-1-2-2zM950 265c-1-2 3-3 1-5v1c-3-2-4 3-1 4zM929 243c1-2 2-3 3-2 2-2 0-1-1-1v-2s-3 3-4 2c1 2 0 3 2 3z"
          class="st2"/>
    <path d="M420 1h2-2z" class="st3"/>
    <path d="M407 0h2-2z"/>
    <path d="M385 0C295 5 50 80 3 436 50 80 295 5 385 0z" class="st3"/>
    <path d="M398 0h2-2zM402 0h0z"/>
    <path d="M435 2l2 1-2-1zM452 5l2 1-2-1zM439 3h0zM423 1l7 1-7-1zM431 2h2-2zM415 1h3-3zM448 4l2 1-2-1z" class="st3"/>
    <path d="M411 0h3-3z"/>
    <path d="M443 4h0zM332 654l-3-3c-3-2-5-7-8-10l-2-2-3-6-5-4-12-15-4-4-6-9-2-1-9-11-3-1-5-7-3-3-7-8-2-1-2-5-6-5-3-5-5-5-1-3-8-8-2-3-5-5-2-4-3-3c-2-2-1-4-4-7l-1-1-10-11c-4-4-9-8-12-13v-1l-2-4c-2-2-5-4-6-7l1-3-3-3-2-10-1-1-1-3c0-5-2-6-2-9l-2-7c-1-3-2-8-1-10l-2-12 1-3-1-8-1-5 1-3-1-7v-3l-1-4v-2-4l2-3-2-2 2-6v-3l1-3-1-4 1-2 1-9 2-6v-2l8-13 1-4 3-2 2-4 3-2 4-8 9-9 5-8 7-9c3-5 9-7 13-12v-2l7-9 13-19 4-7 7-10 2-2 3-6 3-2v-1l2-3c3-4 6-7 6-11 0-2 0-1-2-2l2-1v1c5 0 5-5 9-8 2 2 1 3 0 5 0 4-4 8-8 12-1 3-5 9-5 12v2l-1 3v5l-2 3h4c4-2 8-8 11-11h-3c1-2 3-1 5-2l1-2 3-2 8-9 9-10 5-7c3-4 10-8 12-13l1-2 3-1c3-1 5-5 8-9 2-2 5-4 7-8l9-9 2-2 1 2 9-9 6-4v-2l10-9 9-8h1l1-2h1l12-12 8-5 4-5 3-2 7-7 6-2 4-6 10-7 2-2 4-2 2-4 6-3 1-2 5-3 7-4 6-6 10-5 10-8 4-3 2-2-31-10v1c-1 2-4 3-7 5l-1 2-7 5-1 2-2 1-6 6-4 3-3 3-3 1c-2 0-3 2-5 3l-4 2-7 8-4 2-5 5h-2l-3 4c-1-2 0-1-2 0h-1v2h-3l-4 5v1l-5 2-5 4-9 10-5 3-6 7-4 2-1 3-4 1v2c-3 3-6 3-8 6-1 2-1 3-4 5l-7 8-3 1-3 4-4 3-1 4-5 4-1-1-2-1c5-8 12-14 17-21h-3c1-2 4-2 3 0 4-2 5-6 8-8l5-3 4-6c3-2 9-6 12-10l1-2 2-1 3-4 2-2 6-6 18-15 7-7 6-5v-2l4-3 10-6 3-4 13-10 3-4 14-11 2-1-13-3-1-1h-3l-2-1h-4l-2-1h-4l-2-1h-5-1l-6-1h-5l-3-1h-9-7-14C295 5 50 80 3 436c-11 83 8 157 46 220h284l-1-2zm-29-490l1-1-2-1c0-2 3-1 4-3v2l2 1-3 4-2-2zm3 6l-1-1-1-1v-2c2-2 6-3 6-5 1 2-2 7-4 9zm-8-30c2-5 6-4 10-5 1 0 2-2 3 0l-4 5h-3l-1 2-5-2h-3 3zm0 34v2l2 1-2 4c-1 0-2-3-3 0l1-3-3-1c0-1 1-5 5-3zm-15 1c1 1-3 3-4 3h-1c0-3 4-5 5-3zm-89 349c-2-1-1-3 1-4 1 1 0 3-1 4z"
          class="st3"/>
    <path d="M912 216c2 0 1 1 3 2 3-4-2-8-3-2zM925 165l-2 7 2-1s0 3 1 1c-2-2 3-5-1-7zM898 196v5c3-1 1-3 0-5zM933 249c1-2-2-3-3-2 0 0-2 3-1 4 1-2 4 0 4-2zM901 202c-2 2-1-1-2 0v3c-2-1-2 2-2 2 2 4 7-8 4-5zM887 213l1 1 1-1v1l1-1 3 1v4c1-1-1-3 1-4l-1-3c2 0 2 0 2-2 0 3-2-2-2-1-1 1 1 6-2 5l1-1h-1c-1-1 0-4-2-5l-3 1c1-2 0-2-1-3 2-1 4 0 5-2h-2v-1c2 0 3 0 2-2 2 1 4-2 7-1l-1-1c0 2-2 0-2-1l2-1c0-1-1-5 1-3l-2-4c-1 0-1 2-2 1v-1h-2v-1l-1-1-2 2-1-1v1l-4 3c-1 1 1 5-1 5l-1-1-1 1-2 2-2-1c-1 1-2 4 0 3l-1 1c0-1-3-1-3 1v2l-1-1c-1 3 0 4-2 5l-3 1v2c1 0 1-2 2-1 1 3-3 2-4 4v1h-1c-3 1 1 6 3 2 1 0 1 2 2 1-2-3 2-3 3-3v-2c0 2 1 1 2 0-3-4 5-9 4-3 0 1-2 2-1 3 1-2 3-2 4-2l-1 1 1 2c1 1 3-2 5-2l1 1 1-1zm-6-8l-1-1v-4l1 1 2-1c2 1 2-1 2-3 2 3 2-1 4 1 0 1-6 9-8 7zM923 319h-1c-1 1 1 2 1 4 1-1 1-4 3-5-2-2-2 0-3 1zM832 202l5-3c2-1 7-10 8-12l-2-5c-5-6-10 5-12 8s-5 6-5 8c1 2 6 4 6 4zM994 350c0-2-3 0-3 3 1 1 4-2 3-3zM957 189v-3c-3-1-3 5 0 3zM966 209c-2-2-3-1-4 1 2 1 2-1 4-1zM1003 329c-5 4 4 4 0 0zM1020 310l2-5c-1 0-3 0-1 2-2-2-2 2-1 3zM853 213c1-2 0-4 3-4v1l4-2-4-2c-2-1 0 0-1-2v-1c1-2 5 0 5 1-1 2 1 0 2 2 1-3 3-3 2-6-1 1 0 2-2 2-1-1 1-5-1-6h-1l1-1-1-1c1-2 7-5 4 0 1 1 2-1 3-1-1 2 1 2 2 0v-5l2-3h2l3-2c-1-2-3-1-4-2 1-2 1-3 3-3v1c1 1 5 2 3-1-1 1 0 2-1 1v-2 1l-1-1c1-1 2-2 3-1l-1 1c3 0 3-3 3-6 2 1 1-1 3-2-1-1-2 1-2-1 6-2-2-7 1-9-2-1-2 1-3 1v-1c-2 0-2 1-2 3-1-2-6 3-2 4l5-3c-1 2-4 9-1 8-2 3-3-2-5 1h2c-3 2-7 3-7 6-1 0 0-3-2-2l-3 3h2c-2 0-4 1-4-1l-1 4-1-1c2 2-2 3-3 5 1 1 1-1 1-1v2c-3-1-3 4-4 5l-2 3c-1 1-2 3-1 5l2 1c-1 1-3 0-3-2l-1 3 2 1-1 1c-1-2-2-1-3 0-5 6 3 7 5 9zm17-30h-3c-2 1 1 2-1 3v-2h-2c1-4 3-4 6-1zM591 396c-1 4 3 1 2-1l-2 1z"
          class="st2"/>
    <path d="M652 283l-6-1h-6l-2-1-6-2-2-2-4 1-7-1-3-1c-1 0-1 2-2 1-2-1-1-3-4-3h-5l-4-1-5 3-4 3v2l-5 3-1 1-4 3-4 5c-7 5-12 11-18 18l3 3v1l-5 1-2-1c-3 1-8 8-10 11l-11 10-4 5-2 2-1 2-3 2-6 7c-2 2-6 5-6 7-1 2 0 5-3 7-2 2-3 0-6 4l-1 3-4 3-2 4-8 8-2 4-9 11-3 6c-2 3-11 8-10 12 1 2 4 1 5 3 0-2 4-1 5-2-1 1 1 3 2 2 0 3-6 9-6 5-1 2-3-1-5 0-1 0-2 2-3 1-2-1 3-2 1-4h-2c-2 2-1 7-3 8l-1-1-1 2-2 1-5 9c0 2-2 2-2 3 0 2 3 5-1 5l-1-2c-6 10-11 25-19 35-3 4-5 8-5 11l-1-2-2 5v1l-2 2c-3 4-6 13-8 18l-1 5-3 1-6 13c-2 6-2 13-7 20 6 3 1 7-1 12v1c0 2-4 6-1 8 3-1 4-7 7-8l2 2c2 1 5 3 1 6l-3 1c-2 1-6 7-2 7 2 0 3-6 6-7-1 3 1 6 4 3 2-2 0-5 2-9 2-5 6-7 6-10-1-1-1 2-2 1-1-2 1-4 2-7 1 1-1 2 1 3 2-4 3-8 3-3 2-1 4-4 6-4-1 6-8 13-4 19l1-4c2 1 1 2 2 3 4-6 3-12 6-19 2-2 5-1 6-2 2-1 4-6 4-7s-2-2-1-4l2-3-1-3c1-2 7-9 3-8 1-2 3-3 3-6l2 2c1-2 3 0 5 0l2-3c0 2 1 3-1 5 1 1 1-1 2-1 0 3 2 1 2 2 0 2-2 1-3 2-3 3-3 7-5 2-2 2-5 5-4 7h2c-1 2-3 4-2 5-3-1-5 4-1 3-1 1 0 3-1 2v-2c-1 2-3 8-2 9 3 3 9-12 10-13 2-3 6-3 8-6l1 1 1 1c1 5 3 0 5-1h3l4-3c3-4 0-7-2-11l3-2c1-1 2-5 4-6l-2-1 9-12h3l1 1c4-5 11-5 13 1 1 1 0-1 1-2l2 1 1-5 3-1v-3l1-2v-3l3-3c3-2 6-2 7-5 2 1 1 0 3-1l2-1-2-6c-1-1-4 0-3-2s5-2 7-1 2 4 4 6l7 4c1 0 6-6 5-7l-2-1h-2l-1-5h2c2 0 1-2 3-3s11-2 11-6c0-2-4-1-4-3-1-2 2-6 3-8l1-2 3-1 1-3 6-3 6-6-1-2-4 2-2-1c-2 0-2 2-3 1-2-3 4-8 7-4l3-2c1 1-1 2-1 3l7-8c-3-3-6 1-11 2h-7c-1 0-4 2-5 1l-2-4h5l2-2c1-1 2-1 2-3 3 6 7-3 11-4 1 2-3 5 0 6l1 1 2-1c3 1 4-5 7-1v-2h2v-1c2-2 0 3 3 4l5-5v-2l3-1 1-2c2-4 7-6 8-9-2-1-2 1-3 1v-2c0 2-2 0-3 1l-6 2-1-1-1 1c-2 0-5-2-6-1v-2c-2 1-8 7-9 3 0-1 5-11 6-7 4-5 7-8 11-8-1 2-3 3-3 6 0 1 1-1 1 1s-2 1-2 3c2 1 6-2 5-4 3 2 5-6 8-8l1 1h2l-1 1c1 2 1 0 2 1l-2 4 1 2c-1 2-3 1-3 2s2 3 4 2l2-7c2-3 4-4 2-6l-2 2c-4-1 3-3 1-6-1 2-2 2-3 1v-1h-2c0-2 4-2 2-4l1-1-1-1c2-3-1-2-2-2 2-2 3-4 1-5-1-1-2 1-5 1s-3-2-5-3v-2l-1-1c2-6 8-10 13-13v1h1v1c4 1 6-4 9-6 2-1 5-1 7-3 4-3 6-7 9-11l-3-1-1-1-1-1h-3l1-2c3 4 5-1 7-2h2l1-2 4-4 1-3h-2c6-3 8-10 12-17-2-1-3 1-5 1 1-3 7-4 6-6 0-2-6 2-6 0 0-4 6-1 4-6h1v-2c4 1 8 0 11-2-2-2-5-1-7-1zM426 523l-4 3c-2 0 1-4 1-6l3 3zm3-4h-3c0-1 0-2-2-3h2c1 1 4 0 3 3zm-3-8c-3-2 1-6 3-8 5 2 0 10-3 8zm153-158c0 3-3 4-4 5 0-2 2-3 4-5zm-4-39l1-3v4l-5-1c2 0 2-2 4 0zm-12 12h5c-1 3-5 0-7 1-1-2 1-1 2-1zm-49 85l4 2c1 3-2 1-4 1-1 1-2 3-4 2 0-3 6-2 4-5zm-26 2c3 0-1 5-2 2l2-2zm-2 46c-1 2-5 0-6 2-3-3 7-5 6-2zm-3-33c-1 2-3 1-6 1 1-2 4-2 6-1zm9 69l-1-1h-2c0-1 1-4 3-5l1 1 1-1c2 2 0 4-2 6zm26-53c-3-2-5 4-8 7l-4 3v4c-1 2-3 1-2 3l4-1c-2 0-1 2-3 3l-2-1c-4 2-7 10-10 15-5 9-11 15-15 24-2 5-2 9-5 13l-1 2-1 4c-1 1-4 2-4 6v2c0 4-3 8-5 10l-1-1-1-1h-1c-2-1-1 3-3 1-2-1 3-9 4-11 0-1-1-2 1-4 1-1 3 1 3-2 0-2-2-1-1-2l3-6c1 2-1 2-1 4 3 0 5-6 6-8-4 2-2-2-4-3h-2c1-3 3-2 4-5 1 1-1 2 1 3 2-2 2-5 3-7 3-5 8-7 10-11l1-4c2-2 7-5 6-9l-1 1v-2h-2l6-9 1 1 1-1c3 1 5-4 6-6l1 1 1-2c3 0 3-5-1-4l1-2h-2c-3-2 5-10 9-12v2l1 1-1 2 2-2s2 0 3-2v-2l9-9c2-3 3-8 6-8l1 2h2c-1 5-7 6-8 10 0 1 2 1 1 2l-2 1-6 10zm3 14c0-2 3-6 5-3l-5 3zm26-20l-6 1c-1 0-3 0-2-1h-7c-2 4-7 9-12 9l2-3c-2 0-4 5-3 0 0-3 5-6 8-9 4-2 8-8 9-9v-4l5-1 1 2h1c0 4-6 5-7 9v2c-1 1-4 2-1 3l4-2v3l1-2 3 1c1-5 5-1 4 1zm8-3c-2 0-3 3-5 1 1-1 2-4 5-1zm-2 11c-2 3-5 4-6 1 2 0 3-3 6-1zm9-41c1 0 8-5 8-1 0 3-7 3-8 1zm15-25v2l-1-1-1 1c-4 1-7 6-11 9 0 2 2-1 1 0l-2 4 2-2v2h2c1-1 2 1 1 2s-1-2-2-1c0 3-1 4-3 5s0 2-1 4l-3 3-2-1-3 2-1-1-2 1-3-1h-1l-3 2h-4s-1 7-3 7l-1-1-1-1c-1-1-5-2-7 1h-2c1-3-1-2-3-2l1-2c-2-1-1-3 1-4l1 3 4-8c3 2-1 5 0 7 2 0 2-4 1-3l4-3 1 2h2l1 2c1-4 6-6 6-10l-3 2v-2l-1-1 3-3h1l1 1c-1 1-1 5 2 4l1-3 3-1c1-2 3-6 6-7l3-1 2-2c1-1 2 0 3-2 0 0-2-1-1-2h3l10-8 1 1 1 1-3 5zm5 7c-2-2 2-3 3-4 1 2-2 3-3 4zm14-9c0 2-3 3-5 3 1-1 3-4 5-3zm45-89l1 2c-1 1-3-1-5-2v-1l1-2c1 1 5 0 5 2l-2 1zM506 591c0 2 2 4 4 2 1-2-2-8-4-2zM756 392c-3 0-4 4-5 6 0-2-2 0-2-1l3-12c0-3-1-1 1-3 2-1 1-3 2-3-1-2-5-2-7-2l-3-2-11-2c-1-1-3-2-4-1 5 6-6 5-7 7v7c0 1-1 3 1 5h-2v1l-8 6c-3 3-5 7-1 8v1l2 1c-1 2 0 3-2 3l-4-2c-4 1 5 9 6 10 1 2 1 7 3 9 3-3 2 1 3 2 1 3 7 5 9 8l2-3c1-2 3-4 3-7l-1-1 4-4-1-3 4-5h1v-1c3 0 4 1 5 3 3-2 0-6-2-4 1-3 3-2 4 0l1-3c-2 1-3 0-3-2l-1 2h-1v-1l-2 1 1-7 1-1v-2h3l2 1 2-1h3s1 2 2 1l1-5c-2 2-3-2-2-4zm-25 4l1 1c-2 1-5-2-5-3h2v-2l4 3-2 1zM752 400zM747 408zM577 649c2 1-1 3 0 5 3-2 2-5 3-8 1-2 4-8 1-9s1 6-3 5l-3-4-6-3-4 2h-3l-1-1h-3l-5-1c-2 0-8-3-9 0v7s2 1 1 2c0 1-6 2-3-2h-3c-1 1 2 1 1 2l-2-1c-2 1-1 2-2 3l-5 1-1 2c-1 2-5 1-5 2 0 2 3 2 5 4l1 1h43c0-3 1-6 3-7zm-7 6c-2 1-5-6-7-1l-3-3c1-3 8 2 9-2 1 1 4 5 1 6zM722 437l-7 2c-2 1 2 5 2 5l9 6c3 0 1-7 3-9-2 0-6-2-7-4zM598 499c0-2 0-4-2-4-1 1 0 4-3 4 0-2 3-5 2-7l-5 2c-1-1-2-2-5-2l-11-1-9-1-7-4c-1 0-2 4-3 2 1-1 2-2 1-3-1 2-5 1-5 4 5 1 3 3 6 6l-1 1-1 1-5-2s0-5-3-4c2 4 9 10 14 13 3 2 8 1 9 7-2-2-6 0-9-2 0 2 2 3 0 5-1 1-1-1-2-2l-3 1c-2 0-2-2-3 0-1 0 1 4 4 3-1 2-2 3-4 1-1 2-4 2-5 1 0 2 2 4 3 5-3 1-7 0-9 2l-1 4c-1 0-2-1-3 1l1 4-1 3 1 4-2 1-1 3-4 1c0 1-4 5-2 5l-5 2 1 2c1 3 4 1 6 5l-8 2h-4c-1 0-2 4-1 6l3 2 1 4c2 2 9 5 3 6 0 1 1 2-1 3-2-2-4-1-4-4l-3 4 1 1c1 2-3 1-3 2v3l6 1 1-2 2-1 4-5 5-3 4-5 3-1c3-3 4-6 7-7h1c1-1 1-2 3-2 1 0 3 3 0 5h-3c-1 2 0 1 2 4-1 2-4-2-6-2-3 0 0 3 2 4l10 1 1-1c1 2 4 2 6 3l1 2h5c5 2 9 6 16 8 2-5 2-7-1-7 5 0 5-11 9-15-3-1-4 0-7-3v-2l-2-1v-2c-3-3-6-2-8-3l-2-2c-1-1-5 2-6 1-2-1-1-7-3-8h-2c-1-1-2-5 0-7 1-2 3-1 5-2-3 2 1 1 2 1l1 2 3-3 2-1v-3l4-1c2-3 1-5 3-5l2 2c2 1 7-3 8-5 2-4-1-13 4-18-2-1-2-3 0-5l1 1 2-3h-3zm-62 55h1c0 2-3 0-4 2-2-2 2-2 2-3 2-1 2-3 4-1-1 2-2 1-3 2zM761 384c0-1 0-2-2-2-2 2 4 4 0 6h3c2 0 0 1 1-1s0-2-1-4l-1 1z"
          class="st2"/>
    <path d="M558 396h1c-2-1-3 2-5 2 0-4-3 0-4 1h-1c-2 2 0 3 0 5 2-4 3-6 8-4-1 0-2 1-1 2l4-6-1-1-1 1zM738 428c-3 4 4 3 4 3 1-2-3-5-4-3zM608 376v-3c-1-1-3 4 0 3zM509 585v3c3 2 7-2 5-3-1-1-3 3-5 0zM867 475c-2-2-5 0-6 2 0 2 3 2 3 3h2l-1-1c1-2 3-3 2-4zM860 472v2h1v-3l1-1-1-1 3-1c0-1-2-4 0-1 1-3-2-2-3-1l-1-1-1 1c-3 0-3 3-5 4 1 3 4 3 6 2zM584 544c0-2 2-2 2-2l-2-1 1-2c-1-1-4-1-4-3v2c-2 0-1-1-2-2-2 2 0 4-1 6 2-3 5 0 6 2zM544 642zM783 346l-1-1h2l-1-3c-2 1-1 2-2 3-1-2 0-3-3-2 1 2-1 5-3 2v4l2-1c-1 1 1 4-1 3v-2c-2 3-3-1-5-1l1-1-1-1 1-5c1 0 0 2 1 1-1-2 2-3 2-5l-3-3-1-4-6-2-2-4c-1 0-2 2-3 1l-2-4c-4-2-10-10-12-4l1 3-3 2-2 3-8 12-2 4c0 1 2 3 3 2l5-6h1l2-2c1 0 3 2 4 1l5-5h3c1-1 0-5 2-3-2 1 0 3-1 4l-3 3c-3 4-3 10-6 15l2 1c-1 1-2 1-2 3 6 0 13 9 17 4l1 1 2-1 2-1v-1c0-1 3 0 3-2l-1-2c2 0 2-2 3 0l-1 1c2 2 1 3 0 6 1 1 1-2 2-1v1c-2 1-2 1-2 3l5 2 2-5c2 1 1 3 0 4l4-7h-1c1 1 4-1 4-3h-2c1-1 3 0 3-2-2-2-1-7-5-5zm-5 3l3-2c-1 2-1 4-3 2zM822 382c5-7-5-9-9-15v3c-2 3-4 1-7 3l-3 3v3c-1 2-3 2-3 4l7 4 13 6 4-9-2-2z"
          class="st2"/>
    <path d="M791 657l-1 1 1-1z" class="st0"/>
</svg>