<svg xmlns="http://www.w3.org/2000/svg" id="_x2018_ëîé_x5F_1" version="1" viewBox="0 0 809 1229"><style>.st1{fill:#f6b72b}</style><path fill="#e9d679" d="M48 298c3 46 35 97 47 141 31 99-11 173-40 268-32 102-77 197-43 326 0 0 90 211 396 196 209-11 275-117 337-206 80-114 76-285 38-419-22-80-86-120-150-166-79-57-165-106-205-197-15-35-16-72-18-108C402 3 247-10 203 5c0 0-171 52-155 293z"/><path d="M211 298v-1h-1l1 1zM222 991l-8 15 8-15zM228 981c2-1 3-4 2-5v-1h-1v-3l-1 3-1-1-1 1v-1c-1 2-3 4-1 5v1h1l-4 11 5-10 1 1v-1zM175 1019c-1 1-3 0-3 2 2 2 3-1 3-2zM169 444l1-1-1-2v2h-1l1 1zM186 308c-1 2 1 4 2 5 1-2-1-7-2-5zM178 320l-1 1c2-1-1-3-1-4l1-1-2-1c2 1 0 3 0 4l2 2h1v-1zM249 333c2 0 3-3 2-5-2 2 0 3-2 5zM253 341l3 1 1 1v-1c-2-2 0-2-1-4l-2-1v-2c-3 0 0 4-3 4 0-2-3-2-3-4l-1 3 1 1 1 3c1 0 2-3 3-1h1zM248 332h-1l1 1-2-2h-2c-2 0 1 4 3 1h1zM97 1022c2 0 2-2 2-3l-2 3zM196 316v4c2-1 1-2 2-3l3 1c1-1-1-2-1-3v-1l-1-4v-2h-1l1-1c0-1-1-2 1-3l2 1 1 3v-1l-1-4-1-4h1l-2-4-2 1-1-1c-2-1-3 0-4-2v-2l-1-4c-1 0-1 2-2 1v-3l-3 1 4 3-1 1v1l-1 4c2 1 1 2 1 3l1 1c2 3 2 9 4 10-1 0-3 1-2 2 2-1 3 1 3 2 0 0-2-2-3 0l3 3zm-5-29l1 1-1-1zm1 4v-1 1zm5 7h2s2 2 1 3c0 1-4-1-3-3zM249 327c2-1 2-3 0-4 1 3-3 2-2 0-2 0-1 3-1 4 1 0 3-2 3 0zM181 315c1 1 0 3 2 3l-2-3zM204 321l3-3-2-2-1-3v2l1 1-1 5zM221 977c2-3 1-6 3-8-1 3-4 5-3 8z" class="st1"/><path d="M111 1025l1-1-1-1c1-3 3-6 1-8l-4-2v-2l-1 1c0-5-3 1-5 1h-2c-1 1 0 2 1 3l1-1c-1 3 6 3 3 7l-1-1h-1c0-2 0-3-2-3v2h-1c-2 1-1 3 1 4l1 1h1v2h9l-1-2zM258 347l-5 1c2 2 3 1 5 0 0 2 0 4 2 3-1 1 0 2 1 2 2 0-2-5-3-6zM334 472l1-2 1-1c0-2-7 2-2 3zM217 340l-1-4v-1l-2-1v1l-1 1c-1 1-1 2-2 1l1 1c3 2 1 1 0 0l-1-1v-1l-3 2 2 1c2 1 4 0 5 2l-1 1 3 2c-2-2 0-2 0-4zM159 499l1 2h5l-1 1 3-2h1v2h3v-3l-4-4-1-1-4-3c-1 2 1 2 1 4l-1 1 1 1-1 2c-1 1-2 0-3-1l1-1v-1-1l1-1v-1-4l1-1v-1c3 1 1-4 4-2l1 2h2c1 0 1 2 2 0h5 2v-1c3 3 3-5 5-3v1l1 1-1 1 1 1-2 1c5 1 2-4 3-7-1 1-1 2-2 1 1-2-1-3-2-4v-1h-1v-3l-1 1c2-1 1-3 0-4l1-3-1-1v-1l-1-1c0-1 1-4-2-3 4 3-4 6-2 1-3 0-1 4-2 5-1 0-6-1-3-3 1 1 3 0 2-2l1 1 1-2c2 0 2-3 1-5 2 0 2-2 0-3l1-1-2-3c-3 2-3-2-4-4l-2 1-1-3-1 1c-2 2-1 6-1 9l-2 3h-1l-1 3v-2 1c-1 0-3-1-3 1l-1 2h-1l1 1c1 1 4 2 5-1l-2-1h2v8l-1-2c-2 0 0 5-3 5-2 0-2-4-2-5l1-1-2 1h-1v3l-1-3v5l-3 7h-1l2 3c-2 0-2 3-2 4 0 0 0-2 1-1 3 1-2 2-2 4 1-2 4-2 5-3l2 1v-2h1l1-1 1 2v1-1c1 2 0 2 2 3h-3v2l1 1v1h1l-1 1-1 1 1 1c-2 1-5 3-5 1-2 1 1 4 3 3l-1-2c2 0 3 3 1 3 1 1 3 3 4 2 0-1-2-3 0-4zm10-49l2 2c-2 1-4 0-2-2zm-4 2c2 0 1 3 0 3v-3zm-1 7c0-1 4-2 4 0 0 0-1 2-2 1l-2-1zm2 11v4l-1-1c-1 0-2 2-3 0l4-3zm-11 6c-1-2 1-3 3-2v-2c1 1 0 4-1 5l-2-1zm6 1h2c2 2-3 2-2 0zm-9 2c2 0 0 2-1 2 0 0 0-3 1-2zM142 491c1 2-1 3-2 2v1h1v2c1-2 3-2 3-5h-2zM258 359l-2-1v-1c-2 1 0 1 1 3l1-1zM213 1006l-6 10-8 10-1 1h1c5-6 12-14 14-21zM555 698c-1-1-1-2-2-1 2 0 2 2 2 3 2 1 4 0 5 2 2-4-3-3-5-4zM547 691c1-1-2-1-2-1h-1l1 2 2-1zM542 689l2 1c0-1-1-2-2-1zM544 690zM552 677c-4-2-2 4 0 0zM548 685c1 1 2 2 3 1 0-1-1-2-3-1zM248 301c4-3-2-5-1-7l-2 2c3 2 2 3 3 5zM376 543l1-4c-1 1-2 3-1 4zM365 555c-1-1-4 0-3 2 1 0 4-1 3-2zM213 307c-1-1 1-2 1-3h-1c-2-2-2 2 0 3zM537 675c0 1 3 3 4 1h-2l-2-1zM372 549l1-1c0-3-4-3-3 0l-2 4 4-2v-1zM325 464c2 1 5-2 3-3-1 0-4 1-3 3zM254 967l-1 4c1-1 2-2 1-4zM483 624l5 2c-2-1-3-3-5-2zM491 935c-1 1 1 5 2 6l3-1v-2c3 0 2 6 3 4l1 1c4-2-3-5-5-8-1 3-3-1-4 0zM589 994c-4-3-6-7-10-9 3 3 6 7 10 9zM536 670l-4-3c-2 3 3 2 4 3zM575 1025l-1 2h1v-2zM562 1021l-1-1h-1l-2-2c-1 2 1 3 1 4l1 1h1l1 1v-3zM563 1004l-3-2 1-1-5-5c-1 1 1 4 1 5l-1 1 1 2v4h-1l1 1 1 3v1h1c0 2 2 3 3 4 0 1-1 2 1 3v-2h1l1-1c1 2 1-1 2-1l2 8c2-2-1-5 0-7l1 3c2-1 3 2 4 2l-1-3-2-1c-1-1 0-4-2-5l-1 1-5-10zm-4 0c1 1 3 3 2 4-2 0-2-2-2-4zM323 451c-2 0-3 4-1 4s4-3 1-4zM438 822c-2 0-3-1-5 1l5-1zM475 839h-2l1-2c-5 3-10 3-15 2 4 2 7 0 11 1-1 2-4 1-5 3l3 3 4 1-7 2v1l-1 1h1c4 0 9 1 11-2l-6 2v-2c2-4 4-2 7-4-1-1 0-4-2-6zm-2 2c1 1-1 3-1 2l1-2zM133 835c-1 1 1 3 1 4 1-1 1-3-1-4zM448 836c-1-2-5 0-6 0h6zM467 833c2 2 4 1 5-1h-2l1-1-8 2c1 2 4-2 5 0h-1zM425 824l9 7 1 1h2c1 1 1 4 3 2 0-1-2 0-1-1h5c-2-3-5-1-8-3l1-1v-1c1 0 2 1 3-1l-8-2h-1l-1 1c-2-3-3-3-5-2zM476 830h-2c0 1 1 2-1 2l2 1c0-1-1-2 1-3zM256 833v-12 12zM482 856l7-2c-2-1-5 1-7 2zM410 857l-2-2c-3-3 0 3 2 2zM119 543v-2l-3-1v2h1l2 4v-4 1zM488 858l4-1c-2-1-3 1-4 1z" class="st1"/><path d="M476 847l-2 1c0 2 5 0 2-1zM475 854l8-2-8 2zM404 862c0-1 2-3 0-3-1 0-2 2 0 3zM412 787c1 2 4 2 6 1-1-2-4-2-6-1zM555 787l1 5c0-2 1-4-1-5zM559 792l3 6c1-2-1-4-3-6zM105 557l1-1v-1h-3l-1-1-1 4 2 1c2 1 2 0 2-2zM172 781l-1-4h-1l-1-5v-1l4 1h1c1 2 1 7 5 8 0-1-2-2-1-3l1 1c3-1-3-9-4-9l-1-1-1 1c0-2 1-4-2-5v-1l-1-1c2-1-1-7 0-7l3 3 1 1v-2c2 0 5-3 4 1l-1 3-2 1c-1 1 0 4 2 6h1l3 4c2-1 0-3 1-4l1 1c-1-1-3-5 0-3 1-1 1-4 3-3v-3l-4-7-1-1c-1-1 0-2 1-3l-1-2c1-2 4-3 2-6v1l-3-4c0 1 1 3-1 4l1 2c-3-1-4-3-5-5h-1v-1h-2l-1-3c-1 1 1 1-1 2l-1-1h-1c-1-2-4-4-2-6h2l1 3c2-2-1-3 0-5l1-1v-1l1 1c-1-2 0-6-2-9 0 1 0 5-2 2v3h1v4l-2-4-3 2s0-2-2-2c0 2 4 5 2 8l-2-3c-1 2 4 7 1 7v2c0-1 2-2 3 0l-1 2 3 4-1 2-1-1c1 1 0 3-1 2-1 0-1-3-2-2 1-1-1-4-1-5 0 0 1-3-1-2s0 4 0 5l-3-7h2c1-3-1-5-2-7l1-1h-2l-4-13v2h-1-2v1c-1 1-2-2-2 0-1-3-3 0-4 0v-4c0-1-2-7-3-3l1 4 1 3c0 2-6-1-4 3l-1 1-1 1-1-3h-1v-1l-1 1h-1l2 8v1h1c-2 2 0 3-2 5 3 1 3 2 4 4h2l4 12h-1v1c-1 2 0 5 1 5h2l1 3h-1v1h-1l3 5 1 2v-1c5 4 6 9 7 14v-1c2 1 1 1 0 2-1 2 0 4-2 4v3l-2-1c0 3 1 5 3 7 0 0 0-6 1-2l1 6h-1l2 4 2 4h1c2 2-2 6 1 7l1-7v-2l-1-4c-1 1-5 3-3 0h1c-1-2 0-4-3-5l1-3c2 1 3 3 4 2-2-2-1-3 1-4h3c1 1 3 4 4 3 4-1-2-6-1-6 1-1 1 1 2 1l3-1c2-2 1-3-1-5zm6-31c2 1 1 2 0 1h-1s0-2 1-1zm-3 1c1-1 1 1 1 2l-1-2v1l-1-1h-1c-2 0-1 1-1 2-2-2 0-3 0-5l2 1v-1c2 1 1 2 1 3zm3-6l3 1h-1l-1 3c-1-1-3-2-1-4zm-11 1l1 3c1 2 3 2 2 4l-1-1c-2 1 0 2-2 4l-1-1h-1c-1-1 0-3 1-3-1-2 1-4 1-6zm-4 4h2c1 2-4 2-2 0zm-8-16c2 0 1 2 1 4l-1-4zm10 30l-3-4h-1c0-2-2-3-3-5v-1l-3-4-1-4 1-2 1 1h1c2 0 0-3 0-4 2 2 2 4 2 6 1 1 2 1 1 2l-2-3c0 3 1 4 3 7l-1-3c3 1 3 5 6 8l-1 1h1c-1 2 5 5 1 6l-2 2v-4 1zm-8 2h1v-1h1l1 1v1h1c0 5-3 1-4-1zm6 1c1 2 2 1 2 3v5c-2-1-3-5-2-8zM426 819c2 1 5 4 6 2l-6-2zM480 794h-2l1 4 2-1c0-1-1-3-2-2l1-1zM331 460c-2-1-2 2-1 2 2 0 2-2 1-2z" class="st1"/><path d="M151 781c1-1-1-4-1-3l1 3zM156 812v-4c1-2-3-1-3-4v-2h1l-1-1v-2l-1-1v1l-4-6v-1c-1-3-4-6-2-9l1 1h1c3 1 1 0 1-3v-2c-1-1-3-2-3-4l1-1v-1l-3-6c-3 2-3-2-4-4l2 6 3 1-1 1v1l2 5h-1l-1 1c-3-3-3-7-6-10l3 7h-1v1l-1-1c-1 1 1 3 1 4l-1 1c-1 2 1 3 2 5v-1l5 6-1 1v1c-1 2 0 4-2 6l-1-1v7h-1l-1 1 1 3h1c3 2-1-6 2-5 1 1-1 2 1 3l1-2h1l-2-7 2 3c1-7 2 4 5 4v6h2v2h1c1 2-1 2-1 3l2 6c-1 1-3 0-3 2l1 1c1 0 1 2 2 1l1-2 1 3v-8l-2-6zM420 799s2 2 4 1c-2-1-3-2-4-1zM513 806l-2 6c0 1-2 2-1 3l1 1c2 0 2-4 2-5 0-2 2-3 0-5zM480 799c2 0 3 2 4 0-1 0-2-2-4 0zM375 928c0 2 0 4 2 6 0-2 0-6-2-6zM381 927c-1-2-5 2-3 3 0-2 1 0 2-2l2 7-1-8zM400 924c1 2 1 5 3 6-1-2-1-5-3-6zM177 715c-2 1-1 4 1 5l-1-5zM394 919l-2-7c-2 3 0 5 2 7zM372 923c-3 0-1 3-1 5l1-5zM401 920l-3-7v2h-1l2 7v-1h1l1-1zM363 915l-1-5c-1 2 0 4 1 5zM342 903c1-1 2-4 0-4v4zM345 897v2c2 3 3-1 2-2l-1 2-1-2zM368 890c-1 2 0 3 1 5l-1-5zM376 902c2 0 2 5 4 6-1-2-2-8-4-6zM413 861h-1c1-1 0-2-1-2v1h-2v1c-2 0-1 1-1 2v4l1-1c3 1 4 7 7 8v-1h1l1-1 1 1c2-3 5 4 8 7l-1-3 6 6c0-1-6-9-7-6l-1-4-6-6 1-1 1-1v-1l2 1c0-2-4-6-6-4l-1 1v1l-1-1h-1l-1-1h1zM397 912c1-1 0-3-1-4-1 2 1 2 1 4zM381 918l-2 1c0 3 5 3 2-1zM442 897l5 5c0-1-2-2-1-3l1 1c1-1-2-3-3-3v2c-1-1 1-2-1-3l-1 1zM422 899c1-2-3-5-4-6-1 2 3 4 4 6zM436 887h-1c3 2 4 7 7 8 0-3-3-6-6-8zM413 887l-2-4 2 4z" class="st1"/><path d="M426 867s-3-3-4-2c1 2 4 5 4 2zM393 875l32 53c-1-5-5-9-7-13l-13-22-5-7c-2-3-4-9-7-11zM394 897c1-2-1-3-2-5l2 5zM385 911l-1 1-1 1-1-2c-1 1 1 2 1 3l-1 1-1 1 5 17c0-5-2-10-4-15h2l1-1v-1l1-1 1-1v-1h3l-2-5v2l-1-1h-1l-3-6 2 8zM420 930l-4-8 4 8zM381 899l-1-1v-1c-2-2-4-2-3-5v-1l-1 3 1 2v1l2 2c2 3 0 5 3 6 1-2-1-3-2-4l1-2zM421 935v1l2 5v-3h1l-1-1c1-2-1-5-2-6l1 3-1 1zM433 909c0 2 3 4 4 6l-4-6zM430 936l-4-7 4 7zM306 665v-2c0-1-1-2-2-1l1 3c-2 0-1 2 0 3 0-2 4 0 0 1l3 5h2l2 1-2-3-1-5-3-2zM294 707h1l1-1c-2-7-8-14-13-21l1-1-1-1h1v-2h1l2 1c0-3-4-5-5-8-1 1 0 3 1 4l-1 1 1 1-1 2h-2c-2 0-2-1-3-3h1v-1l1 1v-1l1-1-1-1c1-2-5-3-1-5-1-2-2-3-4-3v-2 1l-2-2v-1c0-2-3-1-4-4 0 0 1-3-1-3s0 3 0 3c0 1-4 0-3 2h-1v1c0 1-2 1-2 3l-1 1h1c-1 1-2 2-1 3h2v1l2 1c1-1 5 1 3 3h-1v1c-2-2-3-1-5 1l1-1 1 1c1-1 0-2 1-1l3 3 7 5-1 1 2-1c1 2 4 3 3 4h-2l1 1c2-1 3 0 3 1l-1 1c0 1 2 3 2 1v-1c3 2 5 7 8 8l1 1h1l2 2h-2c0 2 2 4 3 5zm-29-39l-1-1 1-3h1l1 1c-1 1 1 1 1 2h-1v1l-1 1-1-1zm9 14v-1l1-1c2 1 5 2 4 5l-1-1-1 1-3-3zM262 693l5 8c0-2-3-5-5-8zM265 682c-2-3-5-5-7-4 2 2 4 1 4 3v2l1 1 2-2zM227 675c3-1 1-1 0-2l-1-2c-3 0-2 5 0 3l1 1zM267 686l1-1-2-2c0 2-1 2 1 3zM251 681c2 3 3 6 6 8l-6-8zM252 698c2-1 2-3 1-4l-1 4zM393 738c2 3 8 1 6-2l-1 1-1-1-2 2h-2zM365 729l-1 5c3-1 4-6 1-5zM394 734l-2-3-3 3-12 4 8-2 3-1c2-1 5 1 6-1zM347 740c1-1 2-3 1-4l-1 4zM282 715c-1-4-6-6-9-8 0-1-1-3-2-1 2 2 5 8 8 8l1-1 2 2zM165 723c1-2-1-5-1-6l1 6z" class="st1"/><path d="M273 646c-1 2 3 4 4 6h-1l1 1c-1 1 2 4 3 3l-1-1h1l3 1c0-1-3-3-2-4l2 2 1 1 3 3-1 1v1c-1 1 2 3 3 5 3 2 4 7 6 7l1 1v-2l2 1-1 2 2 2v-2c3 3 0 5 4 7l-1 1h1l2 4h2l1 3-2-2c0 1 1 3 2 2-2 2 1 5 1 4 1-1 0 0 1 1 1-2-2-5-3-8v-1l-3-6c-1-1-1-3 1-2 0-3-2 0-2-2-1 1-3-3-4-5l-6-6v-1c-1-3-4-4-3-6h1l-1-1h2v-1c1 2 2 1 2 0h1l2 1c-1-2-4-3-3-5 0 1 2 1 2-1l3 3c3 2 6 5 8 9 0-3-3-5-4-7h1v-1c0-2-2-3-4-5l1-1v-1l-1-1 1-1c1-2-3-1-4-2-2-2 1-3 2 0v-2l1 1c4-3 3 4 5 6l1-1c2 1 3 5 5 7l1-1v3c2 0 1 2 3 2-1 2 0 5 2 6 0-2 2-1 2-3 0 0-4-4-1-5h2l-2-3-1-1 1-1h-2v-1h-1l-1-2c0-1 0-2 2-3l-4-4-1 1v-2l-2-3c2 0 3 2 4 3 1-1 4-2 3-3l-3-1v2l-2-1c1-1-1-2-1-3l-1-2c3-3-5-6-3-10l3 3v-1c0 2 2 2 3 4h-1l2 1c-1 0 0 0 0 0l3 3-1-4v-2l-1 2-2-3h2c0-3-5-3-3-6h1-1c3-2-3-3-1-5l1 1 1-1 3 1c0-3-3-4-5-5l-1 1v4s-2 0-1 1v1l-1 1c0-1-2-2-2 0v-1l-1 2-3-1c2 2-1 4-2 5 0 1 2 2 1 3-1-1-2-2-3-1 0 1 3 2 2 3-2-1-4-1-5 1l-1-2c-2 1 1 1 0 2l-1 1 1 2h-3c1 2 4 3 3 5l1-1-1 4 4 4-1 1 1 1c0 2-5-3-6-5v-1l-2-2 1-1-2-2v2l-3-1 2 2c-1 2-6-2-4 2h-1l2 5c-1 0-2-2-3-1l-1 2c0 1 2 1 1 2l-3-4h-2l-1 1c-2-1-2 0-2 1zm37 3c-1 0-3-2-2-3l2 3zm2-4c-2 0-3-2-3-3 2 0 2 3 3 3zm-14-5c-1-1 0-2 1-2 2-1 0 3-1 2zm-17 7c1 1 2-1 3-1v-1l2 1v-2c2 3 7 3 5 5h-2v1l-1 1-1 1c-1-1-1-5-3-3h-1l-2-2zM308 659l2 4-2-4z" class="st1"/><path d="M303 673l-1-3c-2 1-1 4 1 3zM323 894l1-4 1-1-1-1c2-3 1-5 1-7l-1 4-2-1v1c-2 1-1 5-2 6v-4c-3 1-2 5 0 5v4l2-5c1 1-1 2 1 3zM322 673l-1-4c-2 1-1 4 1 4zM311 661c0 2 1 4 3 5l-3-5zM290 686l-2-4c-1 1 0 4 2 4zM299 661c-1 1 1 3 2 4l-2-4zM313 634c1 1 3-2 1-3 0 2 1 2-1 3zM353 735l1 2c0-1 2-1 1-3-1 2-1 0-2 1zM260 708v3c2-3 0-5-1-7-2 1 1 3 1 4z" class="st1"/><path d="M308 716l4 11c1-1-1-2-1-3v-1l-1-1v-2l-3-9-1-4-1-1-3-8-4-10-1-2h1l-2-2h-1v-2h-1l1-1-2-2h-1l-1-3c1 1-7-5-4-6l-1-1v1l-3-2-1-3-5-4-1-2 1-1-4-4 1-1h-1c0-2-1-3-2-3l1-1-3 1v2c-2 1 1 1 0 2-1-2-3 0-3 1 0 0 2 3 4 3h1l4 4c2 1 5 2 2 4l2 2h3c3 1 2 4 4 5-1 2 2 2 2 4h1v2l1-1c1 2 0 4 2 4v-1c1 1 0 4 2 6 2 1 2 3 4 6l2 2-1 2 4 6 1 5h1v2l1 2 1 3 1 1zM316 609l3 3c-1-1-2-4-3-3zM267 626l-1-1-2 1h3zM355 739c3-1 6-5 7-7-4 0-4 5-7 7zM472 745c0 2-1 1-3 3 2 0 4-1 3-3zM540 737l1 3c2-1 1-3-1-3zM471 710l-1 4 1-4zM491 717c-3-3-3-9-7-6l2 1c-2 2-1 5 1 7-2 1 3 5 4 2 1-1-2-2-2-4h2zM493 708s1 2 2 1c0-1-1-2-2-1zM549 711l-5-4c2 2 3 4 5 4zM418 776h-4 4zM410 780h-3c0 2 3 1 3 0zM540 754c0 3 4-2 1-1l-1 1zM502 716l-1-1c-3-1 0 4 1 1zM416 781h-5c1 2 5 2 5 0zM400 743c1-1 3-1 2-2 0-1-4 0-2 2zM508 763c2-3-3-3 0 0zM530 763l-3-3c-1 1 2 4 3 3zM458 677c2 0 2-2 4-3-2-2-1-3-1-4h-1l-1-4v7l1-1c1 2-3 3-2 5zM457 665c3 0 2-4 0-4 1 0 0 0 0 0l-1-1v2c-2 0-3 3-2 4l1-2v1h1v1l1-1zM455 656v3c2 2 4-3 0-3zM474 663h1l-1-1c0-2-2-4-4-5l2 3h-1v2l-1 1c-1 0-2-3-4-2l5 4h2c2 3 4 1 1-2zM572 713l-7-4c1 1 1 3 4 5 1 1 6 3 3-1zM460 653h-2c0-1-1-3-2-2s2 4 3 6l1-4z" class="st1"/><path d="M428 629c-2-2-5-1-7-3l3-1h-1l1-1c-3 2-1-4-5-2 1-2-4-3-4-6l-2 1 2-2h-2l-1-3-4-1v-2l-4-3-7-5-3-1-1 1-4-4v-1l-9-5-4-3h-2v-1l-2 1-4-4-2 1 1-1-10-5-7-3c-1 0-1 2-2 0v-1c-3-2-3 2-3 3-1-3-3-2-5 0l-1-2c0 2-2 2-4 5l-2 3-3 2-1 6 1 1-1 9 1-1-1 3 2-1-2 3-1 3h1l1 6c1 4 3 7 6 11l5 10 1 1 2 6h4c-5 1-2 4 1 9l2 6 5 8 3 6 1 2 1 4 2 2v2l2 2 1 2 4 6-1 1 3 4v2l3 2 1 3c2 3 4 5 7 5l7-2 3 2h3l4 1 1-1c1-1 3 1 4 1h9v1h1v1l-1 1v1c-2-2-3-3-4-2l-1 2c-1 0-3-2-4-1 0-1-1-2-2-1v2c-1 2-3 0-2-1-2 1-2-2-4-2v3c-1 1-3-1-4-1v-1h-1l-2-2c-1 0 0 2-2 2l-4-2-2 1c-1 2 2 2 3 3h-2l1 3c2 2 1 7 4 5v1l1 1c-2 0 0 3 1 3 2 2 4 3 6 2 0 0 0-2 1-1l-2 2c1 3 4 4 6 6l2 3h1l3 2v3l3 4 1 2 2 6h-1v1c-2 1-5-2-6-2l4-2c-1-2-4 0-5-1 0 0 1-2-1-2 2-1 4-1 5-3-1-1-2 1-3 1v-1h-1c-2-1-4-4-7-2 2 2 2 3 4 2v2l-5 2h4l2 2c-1 1-4-1-5 1l4 1c1-1 3-4 4-2 0 1-2 2-1 3l2 2c-2 3 2 1 3 4l1 1-2 2 3 3h-1v1l-3 1c1 1 2 2 3 1l1 1 1-1h4v1h2c-1 2 1 3 2 3v5c2 2 8 1 10 0l1-1c5 2 11-6 15-10l2-3 3-1 5-2 5-3c3-2 6-2 5-6l-1-4 1-3-1-3 1-3c1-2-1-4-1-6l1-5c-1-2-2 0 0-2v-3c0-2-4-4-4-6l2-2-1-2-1-7c0-1-3-1-3-3l3 1c2-1-1-2-1-4l1-1v-4c-1-1-3-1-2-3l-1-1c0-1 1-4 3-3v2l2-3c2 2-1 4-2 6 1 1 1-1 2-1v1l1 1v1c1-2 3-4 2-6v-1h-1c-1-4-1-9-3-13 0 3-2 6-4 8l-1-1c-3-1-1-5-3-5h-3c4-2 1-7-2-5l2-2-2-2v-3l-1-1v-2l-3-2-2-5 1-1-2-3 1-1-1-2v-1c0-3-2-4-3-6v-2l-4-5h-1c-2-1-2-3-1-4v-2c0-2-2-2-3 0l-3-1h-1zm-57-7c2-1 2 2 2 2l-2-2zm21 4c2-1 4 2 2 3l-2-3zm41 148c-1-2-3-3-3-5 1 1 5 2 3 5zm-15-10c-2 1-1 3-1 4l-1 1v1l-1-1h-1c0-2-2-3 0-5h-1l1-1h1v-1l3 2zm22-2c0-1 1-2-1-3 2-1 3 3 1 3zm18-13c3 1-2 3-1 0h1zm-48-24h-2l-1-1-4-4h1v-1c3 0 6 5 8 5l-3-4 1-1v-1c3 1 4 4 6 5l-1 1 1 2c-2 2-4-1-6-1zm55 3c-3 3-4-2-4-3l4 3zm-21-2l-1 1v1c-2 1-3-2-5-3l1-1v-1c2 0 3 2 5 3zm-11-5v1h1l6 6c-2 0-4-3-6-1l-1-1c0-1-2-3-3-2v2h-3c2 2-4 1-5 2l1-1h-2v-1l-1-1-2-2 1-1h1c2 1 3 2 4 0h1v-1c1 1 3-1 1-2l1-1 6 3zm3-6l-1 1-3-4 4 3zm23-17s3 2 1 2l-2-1-3-1h4zm-75-8v-1 1l-2 2c-1-1 0-3 1-3l1 1zm59-24c4-2 3 4 0 0zm-81-33h-5 5zM468 668c-1-1 0-3-2-3s-1 3 0 3l2 4v2c0 2-1 1 1 3 3 3 1 7 5 9v1l1 1c1 1 1 6 4 5-2 3 0 5 3 6l2-4c-1 2 0 3 2 4 1-1-1-2 1-3 1 1 1 2 2 1 0-2-2-2-3-4v-1h2c-1-1-3-3-4-2v-1l-1 1c0-2-2-2-2-3l1-2 5 2c1 2 1 4 3 2-2-1-4-7-6-5v-3l3 2v-2l-2-3-1 1-1-1c1-1 0-2-1-3l-2 2c2 1 1 3 3 3 0 2-1 4-3 1l-3 3-1-2v1c0-1 0-4-2-3 1-1 0-4 2-4l-1-1-1 1-2-2h-1v-1l-1-1v-2l-2-2zM565 709l-7-4 7 4zM509 698c0 1 2 1 1 2 0-1-1-2-2-1 0 2 2 3 4 4 0 0 1 2 2 1 0-1-3-2-3-4l2 2c0-2-2-3-4-4zM491 704l-2-3h-2l1-2h-1c-1 1-2 0-2 2h-3l2 1-1 2-3 1 2 6c3 0 0-6 0-5l2-1c3 0 2 4 5 5 1-2-2-2-1-4l1-2h2z" class="st1"/><path d="M477 671c0 2 2 2 3 4 1-2-2-5-4-5 2 0 0 1 1 1zM498 697l-4-4c-1 2-3 1-4 2-1 2 5 5 7 7l-1-2h1v-3h1zM521 814h-2c0 3 5 0 2 0zM139 758c0 1 1 4 3 5l-3-5zM126 765l-2-5c-3-4 0 5 2 5zM105 752v0zM130 763l-2-5c-1 1 1 3 2 5zM135 799c-2 1 0 3 0 4 1 2-1 5 1 7 1-4 0-7-1-11zM138 785c1 3 1 7 4 10l-4-10zM137 776l-4-6c1 2 2 6 4 6zM141 813c0-2 1-4-1-4l1 4zM100 845l2 8c0-2 0-6-2-8zM103 861c0 2 0 5 2 7l-2-7z" class="st1"/><path d="M117 879v-1l-1 1c1-5-1-10-3-15l1-1v-1-2h1l1-1-1-5v1h-3l-2-12h1l1-1c2 2 0 5 2 7l1-1h2c2 0 1-5-1-5h-2v-3h1l1-1s0 1 0 0c1-1-1-6-2-8l1 5h-3v1h-3c-1-2-2-5-1-7h2c1 0 0 2 1 1l1-1 1 1 1-1c-1-4 1-11-2-15-1 3 2 7 1 10h-1l-1 1-1-1-1 1-1-1h-1v-4h1l1-1c1 0 0-10-2-10l-1-1h-1c0-3-3-5-1-8h2l1 7 1-8 1 1h1c2 2 0 6 2 8 0-5-2-10 0-14h1l1-1 2 8 1-4 1 1 1-1 3 10v-7h2c1 5 2 9 1 14h-2l-1-6c-3 7 0 13 2 20 0-3-2-6-1-9h3c0 3-1 6 1 9 3-3-1-6 2-8h1l1-1c2 0 1-2 2-2l1 3c2 0 0-3 2-4l1-1c1-2 0-4-1-4-1 1-3 2-3 4l-1-3c-2 0-2 2-2 3h-1l-1 1c-2-1 0-4-1-6h3v1c3-2 0-4 0-7l1-4v-4-6c2 2 1 4 3 7v-2l2 2 1-2 2 6v-5l-3-5v-3l-2-6 1-1 1-1 1 1-3-5-2-1-1 1-2-5h1v-1c3 0 0-3-1-2h-1l-1 1 3 6h-1l-1 1v2l-1 1h-1l-4-10v1l-1-1h-1c-3-4-4-9-6-13h1l1-1-1-5 1-1h2l1-1 1 4h-1l-1 1c1 2 1 5 3 7l-1-4h1v-1h3l2 4c-1-2-2-8-4-9v1l-1-1-1 1-2-7h-1l-1 1-2-6 1 7h-1v1 4h-1v1h-1l-1-1v1c-2-1-1-3-2-4-1 5 3 9 3 14h-1v1h-3l-2-4-1-1h-2s0-1 0 0v1h-3l-1-6-2-11-1-5v-1l-1-2v-5l-1-6c-2 2 0 4 0 6h-1v1c-1 2 0 6 1 8h-2l1 1h-2c-1-2 0-5-2-7v-1h-1l-1-4 1 8-1 1h-1s0-1 0 0v8l1 1 1-1c0 1 0 4 1 3l1 1h1v4h-2l-1-1v-1l-1 1-1-3v-1h-1v6l1 1v-1l1 4 1 1v2h-1v-1l-1 1-1-2 1 11h1l1 4h1l1 4 1 1 1-1 1 6v-1l1 1h1l1 3h1l1 7h-2l-1-1h-1c-1-2 0-4-2-6v-1l-1 1-1-3 2 9 1 1v-1l1 4 1 1h1l1 1v1h1l5 25h-1v1 6l-1 1h-2l-1-5c0 4 1 9 3 13h1l1 3 1 1v-1c2 1 1 4 2 6l1 1h1v1l-1 1-1 1v-1h-1c-2-1 0 6 0 7l1-1v1l2-1c0 2-1 5 1 7v1l1-1 2 6v-2l1 1h1l1 5h-2v1l-1-1h-1l-1-3 1 6 1 1h1l1 4h1v1l2-1c0 4 0 8 3 11l-3-16zm-3-111l1-1h2l1 3-1 1h-1v2h-3v-4h1v-1zm-5 1h2c1 3 3 6 1 9l-1-1h-1c1-2-2-5-1-8zm-14 8h-2v-1l1-1h1l2 2h-2zm7 2l-1-7h3v7h-2zm1 13c0-2-2-4-1-7h3v7h-2zM100 848l-2-7 2 7zM134 531l-1 2 1-1v-1zM129 542l1-2v-1l-1 2v1zM265 877c-4 1-2 5 0 7v-7zM257 910v0zM249 911l-1-1v5l1 1v2l-1 9c0 3-2 6 0 8l1-4 1-4v-2l1-2c0-1-1-5 1-5 0-1-1-4 1-4-3-4 3-9-1-12l-3 9zM218 938l1-7 1-6h-1c0-4-5 1-3 2 1-1 2 0 2 1v1l1-1-1 7v3zM159 922l-5 5c2 0 5-3 5-5zM265 891l-1-4c-1 1 0 3 1 4zM198 928l-2 5c2-2 2-3 2-5z" class="st1"/><path d="M130 835l-2-1 1-3c0-1-1-2-2-1s1 6 1 8l1 4 1 2-1 1 1 6 2 7v-4-4h-1v-4l-1-2 1-3-2-3 1-3zM148 830c2-2 3-4 2-6l-1 1-1-1v6zM132 823c-2 0 0 2 0 4v5l1 1v-3h1c0-3-3-4-2-7zM145 838c-2 3 1 1 2 3 1-2-2-2-2-3zM255 855c-1 0-1-2-2-1-1 2-3 5 0 6l-2 3c0 1 2 2 1 3l-2-1v-6c-2 2-1 2-1 5v8l-3 2 3 7c1 1 2 1 1 3l-1-2-1 7h2l2 5c-1 2-3 1-3 1-2 2 2 5 2 7l1-1 2 1c2-1-1-4-1-6l2-3-1-3c-1-1-3-1-2-2h3l1-2v3c1-3-3-6 0-9l2 4c2-3-1-5-1-7v-2-7l3-2-1-4h-1c-1-3 2-7 1-11-2 6-2-4-2-6-3 4-2 7-2 10zM259 884c0 2 3 3 4 3 0-2-2-7-4-3zM87 723l-1-8c-1 3 0 5 1 8zM130 733h-1v1c-1 2 0 4 1 6v-2l2 1 1-1v-4l-1 1-2-6v4zM145 495h1l-1-2c0 1 1 3-1 4 2 1 1-1 1-2zM163 508c1-3-2-5-4-4 3 1 3 3 4 4zM137 527v1h-1 1v-1zM118 709l-1 2c0 3 2 6 3 8l-2-13c-2 1 0 2 0 3zM126 688c0 3 0 6 2 8l-1-4h1l1-1-1-9v5h-1l-1 1zM341 478c-1 0-3 0-5 2 2 2 3 2 5 0l-2-1 2-1zM238 451l2 3c3-2 0-4-2-3zM311 454c-1 1 1 3 2 1l-2-1zM325 455c-2-1-3 3-1 4 1-1 3 0 4-2l-3-2zM90 1019c-1 1-7 3-8 5l2 3h5c0-3-1-5 1-8zM137 524l-1-1 1 1zM137 525v-1 1zM93 719l-1-4 1 4zM136 683c-1 3 0 6 2 9 1-2-2-4-1-6l1-1v-1l-1-5v3h-1v1zM117 731l1 6-1-6zM136 749c0 3 1 5 3 8l-3-8zM122 731c1 3 0 8 3 11 1-2-1-4-2-6l-3-14c-1 3 1 6 2 9zM119 741l1 5c1-2 0-4-1-5zM125 710h-1v1c-1 2 0 5 1 6l1-1v-1c2-3-1-7-1-10v-1 6zM135 745c-1-2-1-5-3-6 0 2 1 5 3 6zM130 697l1 6c1-2 0-4-1-6zM124 703c1-1 0-4-1-5l1 5zM132 708h-2v1l2 8v-3h1v-1c1-2-1-6-1-9v4zM115 691l2 13c1-4-1-9-2-13zM128 749l-3-6c0 2 1 5 3 6zM127 716c-1 3 1 5 1 7h-1l-1 1 1 6v-3h1l1-1h1l-3-10zM241 914l-2 18 2-18zM129 862l1 5-1-5zM216 948l-2 6-2 9c2-5 4-10 4-15zM114 962l-1-2v-5l1 7zM164 951l-4 4 4-4zM118 954c2 0 0-2 0-4 1-2 3-4 0-5v9zM269 957l2-7-2 7zM272 956c-2 1-1 4-2 5v3c1-2 3-6 2-8zM258 955c-2 3-2 6-2 8l2-8zM170 944l3-4c-2 1-3 2-3 4zM114 952v-4l1-5-1 9zM192 945c-1 3-3 5-2 8l4-13c-2 2-1 3-2 5zM158 942l-1 1-5 4c1 2 4-4 5-1 0-2 2-2 2-3l-1 1c1-3 5-4 6-7-3 1-4 4-6 5zM217 946v-5 5zM250 944c1-2 3-3 2-5-2 0-1 3-2 5zM173 953c1-1 3-2 3-4l-3 4zM389 868l4 7-4-7zM312 873l1-4-1 4zM368 883c-1 1 1 2 2 2-2-2 0-4-2-6v4zM346 866l1 6c1-2 0-5-1-6zM379 888l-1-2c-2-1-1 2 1 2zM289 881c2-1 2-2 2-4-1 1-3 3-2 4zM373 890c1-2-1-5-2-7 0 3 0 5 2 7zM466 846l-1-1c-4 4-9-1-14-1 5 4 10 4 15 2zM395 854c0 1 1 3 2 1-1 3 2 3 3 4l3 4c1-1-1-2-1-2l-2-4-5-3z" class="st1"/><path d="M288 875l2-5c1-1 3-1 3-3h-2c0-2 4-5 4-8h-2c2-2 4-4 4-7h-1l2-6-3 3 1-4c-2-3-3 1-2 2-2 0-3-2-4-3-2 0-1 3-4 3l2-4-2 1v-1c-1 0-1 2-3 2l-1-1v6c1 1 0-1 1-1 1 1 0 2-1 2v5l-1-3v-1l-1 1-1-8c0 1-2 2-3 1l-1 2-1-4c-1 2 2 5-1 6-1 0 0-2-1-1l-1 3h-2c-2-1-1-2-2-4l-2 3-1-1-2 2v4 7l-1 1v1l1 8 1-2c0 2 3 8 3 4v-2l-1-2v-3l2-3v-2h1c0-3-2-7-1-9 1 0 1 3 2 2h3v1 6 2h1c0 1-1 6 2 6 0 0 0-1 0 0 1 0 0-2 1-1 0 1 1 3-1 4-1-1 0-2-1-1l-1 1v2l1 2-2 2v4l1 1c1 1 0 2-1 4v4l-2 2v4h1c1 1-1 4-1 5 0-1 0-3-1-2h-1l-1 1c-1-1-1 0-1 1l-1-1v1l-1-2c-1 4 0 8-2 11 2 2-1 9-1 12v5l1-6h2l1-6-1-1h-1c0-1 1-8 2-7l1 3 1-6h2l1 5-1 1v3 7l1-1v7l-3 2v4l3-4v-1l1-4-1-1 1-6h1c1-4-1-9 2-13l1 6c1-1 0-3 2-3v6l-1 1v2c0 1-1 3 1 3v-1h1l1 1c-1 3-2 6-1 9l1-3-1 9h-1c-3-2-1 3-1 3-1 2-2 0-4 1 2 1-1 3 0 5 1-2 2-8 3-3h1l-1 5-1-1c-1 2-2 5-1 6l1-3v7l2-3 1-1 2-5 1-2-1-3 1-1v-5l-1 2c1-6 4-9 4-15l1-10 2-5-2 1c-1-2 2-5 1-7v-2c-1 1 1-2-1-2v-4h1l1-5v-1c0-1 4-7 2-8h-2l1-4 1-1zm1-22c0 1 2 2 1 3-1-1-2-2-1-3zm-7 30v3c2-1 0-4 2-3v1c3-1 2 2 2 4-1-4-5-2-4 1h-2l-1 5h-2l-1-2 1-1h-1v-3l1-1c1-1 1-3-1-5l-1 2c-1-3 0-4 1-6l1 1v-5l1-1v-4l1-1 1-1v-3h-2l1-5v1l1-1 1 1v-1c1 3 2 5 1 7s0 4-2 6c1-2 2-1 3 0l1-3c1 1 2 3 1 5l-2 4-1 5zM306 870c1-1 2-6 0-5s-2 4-2 6l2-3v2zM332 866l1 4c1-1 0-3-1-4zM388 866l-5-8c1 3 2 6 5 8zM207 908c0-3 3-6 2-8-2 4-3 7-3 11 2-1 0-2 1-3zM142 817c-2 1-2 4-1 6l1-6zM144 830c-1 2-2 4-1 5 1-1 2-3 1-5zM119 834c1 4 0 8 2 11 1-4 0-8-2-11zM148 815l1 4c1-1 1-6-1-4zM118 825l-1-15c-1 5 0 10 1 15zM122 886l1 7c1-2 0-4-1-7zM126 841l-1-4h1v-2l-1 1-1-2c-2 1 0 3 0 5v5l3 6-1-9zM157 874c2-3-5 0-6 1 1 2 5 0 6-1zM132 859l1 4-1-4zM118 869l3 14v-6l-1-2c-1-2 0-5-2-6zM200 888c-2 3-1 6 0 8v-8zM154 864c1 2 4 0 5-2-1 0-6 0-5 2zM329 883c-2 1-1 2-2 3 2 1 2-2 2-3zM145 906l2-1-1-1c1 0 6-1 4-3 0 0-7 3-5 5zM161 915l-9 8c4-2 7-6 9-8zM122 905l-2-9v2l-1-1h-1c-1 2 0 5 1 6l1 1 1-1 1 2zM116 918l-1-5c-1 1 0 5 1 5zM148 916c-1 2-3 1-5 3 2 1 5-1 5-3zM171 937l3-6v-2l-3 6h1l-1 2zM150 931c-3 0-6 1-7 3 1 1 1 0 3-1 1-1 5 0 4-2zM149 925l-7 3c2 0 6-1 7-3zM119 911l-2-6c-1 2 0 5 2 6zM168 932l-4 5 4-5zM145 911c3 0 7-3 8-4l-8 4zM221 915v-2h3v5c0-2 3-5 0-6l1-1-1-1c0-2-1-6 2-5 1-2-1-4-2-2l-1-3 1-1c0 1-1-3 1-1v3l2 1-1-5h2c-2-3-1-6-1-9l2 2c2-3-2-5-2-8l-2 2v-1c-2 1 0 2-2 3v-1h-1c-2 0-2-2-3-2-2 2 1 3 1 5v1h1v5 5l-2-3c-2 2-2 4-1 6l2-4c-1 2 1 2 1 3l-1 2 1 1v5c-1 1-3 4 0 6z" class="st1"/><path d="M262 936c1-2 2-4 1-6l-1 6zM149 917l6-4c-2 1-5 2-6 4zM242 203v-1h-1v1l3 2-1-2h-1zM157 269h2l-1-1h-1v1zM253 244v0zM251 244l-2-2v2c2 0 1 2 1 2l2 1-1-3zM274 242h-1 1zM250 232v-1h-2v1h2zM258 244v0zM254 245l1-1-1 1zM262 244v1c-1 0-2-2-2 0v-1h-1v2h3l1-1v1c1 0 0 2 1 1v-1l2 1-1-2h-1s0-1 0 0l-1-1h-1zM256 245h0zM276 235l1-1-1 1zM250 237h-2v-1h-1l1 1 1 1 1-1zM277 239h4v1c-1-2 3 0 2-2h-2-4v1zM270 239v-1h2-3-1-1-3 4l1 1h1zM268 246l-1 1c1 1 2-1 1-1zM270 237c2-1 0-2 0 0 0-1 0 0 0 0zM246 235v0zM264 240h1-1zM252 234h-1l-1 1 2-1zM267 241h-2 2zM271 233v0zM337 222v0zM258 247h-1 1zM321 241v0zM332 221l-1-1 1 1zM327 222c-1 1 1 1 1 2h3l-3-1-1-1zM333 218l-1 2h1l1 1 1-1-1-1-1-1zM343 216l-1 1c1 1 2-1 1-1zM273 251l1-1h-1 2c-1 0 0 2 1 1l-1 1h1c-1-1 1-1 1-2v-1h1l-2-1h1l-1-1 3-1-1-2-3 1h-5v0l-1 2h2l1 1h2l-1 1h-1l-1 1-1-1c-1 1 1 2 1 2l1 1 1-1zm1-3v-1h-1 1l1 1h-1zM335 217h2v-1l-2-1v1h1l-1 1zM280 250l-1 1h2l-1-1zM256 247v1h1l-1-1zM291 248v2l2-1-2-1z" class="st1"/><path d="M280 248c-1 1-2 1-1 2l1-1 1-1-1 1 2 1v-1l1 1s1-2 2-1v1l2 1h3l-2-1v-1h3l-1-1v-1l-1 1h-1l-2-1-1 1v-1l-1 1-1-1h-2l-1 1zm7 0v1h-2l2-1zM338 214v1h2l-2-1zM254 248l-1-1 1 1c1 0 1 0 0 0zM265 249h0zM269 249v0zM277 251h2-2c1 1-1 1-1 1h1v-1zM240 264c1-1-1-2 0 0zM240 259v0zM242 262l-1-2 1 2zM216 278v-1-1 2zM218 262l-1-1 1 1zM210 263v-1 1zM219 261c1 1 1-1 1-1l-1 1zM211 272v-1 1h0zM218 254v0zM221 256c0 1 2 1 0 0zM221 260l-1 1h1v-1zM204 266c-1 0 0 0 0 0-1 0 0 0 0 0zM218 276h0zM218 277h-1v2l1-2zM229 270v1l1-1v-1h-1l1-2h-1v1-1l1-1v-1l-1-1h-1-2-1l1 2-2-1v5h-1v1c-1-1 0 2-1 2h-1v4h-1v1h-1v-1l-1 1v1l3 1h2l1 1v-1c1 1 1-1 2-2v-1l1-1 1-2 1-2-1 1v-1-2h1zM208 258v-1h-1l1 1zM243 265v-2-1h-2v1h1v2h-1 2zM241 263v0zM218 267v0zM233 277c0 1 0 0 0 0l1-2-1-1v-1l-1 1 1 2v1zM242 289zM247 227h1v-1l-1-1v1c-1 1-2 0-1-1l1 1c-2-1 0-2 0-2h-2v1h1l-1 1v1l1 1h2l-1-1zM211 262l1 1-1-1zM244 226c0 2 2 0 0 0zM263 232l1-1v-1l-1 2zM249 230l-1-2v1h-1 1l1 1zM268 231h0zM268 229c1 0-1 0 0 0 0 1 0 1 0 0zM234 277v0zM205 266v-2c1-1 1 3 2 2l-1-2h-2v1s0 2 1 1zM217 262v0zM230 274l1-2-1 2zM215 263c2-1 0-2 0 0zM201 271zM231 268v-1 1z" class="st1"/><path d="M217 281v2 2c-1 1-1 0-2-1-2 2 2 5 3 2l1 2 1 1h-1 2v2h-1l-1-1v1l2 3c-1-1 0-2 1-2l1 1v1l-2 1c2 1 1 3 2 5h1c-4 0-2 5 0 8l1 3v-2c1-2 3-3 4-1 1 0-1 2 1 2l2-4 3 4-1 2h1v2c0 1 1 3 2 2-2-1-2-2-1-3-2-2 0-6 3-1l1-1c-2 1-1 2 0 3 1-3 3 0 5-2h-2c2-2 0-3 3-4-2-1 1-2 0-4-2 0-1 2-1 2l-1 1s-3-5-1-6l2 2v-3c-1-3-4 0-5-3l2-3h1c0-2-2 0-2 0l-2-4-2 1-1-1-2 1h-2v0l-1 1h-1c-1 0 0 2-2 2l1-1-3 1v-1h-1c0-1 1-2-1-1 0-2 2-1 2-2l-1-1v2h-1c-1-1-2-4-1-5l2 1 1-2v2l2-2v1c2 0 1-2 2-2v1l2-2h-1-1v-2l-1 2-3 1s1 0 0 0v-1h-1l-2-1 1 1-2-1h-1l-1-1h-3zm9 23c-1 0-2-4 0-4s3 5 0 4zm5-10l1-1c2-1 5 3 1 5l-1 2c-2-1 0-3 0-2-1-2-2-2-1-4zM267 234v1h5c0-1 3 0 2-1v-1c1-1 3 0 2-1v-1l-1 1-1-1c1 1-1 2-1 1v1l-1 1h-1v-1 0h-1v1h-3zM251 244l1 1 1-1h-2zM338 119v0zM335 128l1-2h-1v2zM338 124v0zM341 122c-1 1-2 2-1 3l1-3zM338 123l1-1-1-1v2zM339 113v0zM255 255v-1 1zM338 112v0zM338 110l-2 1-1 1 1 1v0l1-1 1-1v1l1-2h-1v-1 1zM348 128h-1v2l1-2zM355 134c-2 1 0 2 0 0zM343 127l-1 1 1-1zM344 131h1l-1-1v1zM338 132h0zM347 127l1-1-1 1zM341 126h-1 1zM341 131l-1 1 1-1zM271 256h0zM346 127l-1 1v1l1-2zM341 129h-1v-1 1l-1 1v1h1l1-2zM281 268l-2-1 2 1zM279 275v0zM364 143v0zM276 273l-1-1v1h1zM250 262h2-2zM258 257l-2-1v2h-2l1 1v2h1v1l-1-1-1 1 2 1c0 2-1 0-2 1v-1h-1-2v1l-1-1v1l2 2v2l1-2v2h1-2l1 2v1h2v-1l-1-1v-1l-1-1h1v-1h2l2 1c-1-2 1-1 1-1 1-1-1-1-1-1l1-1-1-1-1-2h1v-1h-1v-1l1-2zm0 9l-1-1 1 1zM253 272h0zM250 260v-1h-1 1v1zM246 231h-1v1h-1l1 1h1v-2zM293 260l-1-2v2l-1-1v1l-2 1h3v-1h1zM259 262c1 0 0-1 0 0 0 0 0 1 0 0zM283 264h2c1-1-1-1-1-1h-1v1zM278 267v0zM276 257l-1-1-1 1 1 1 1-1zM269 262c1-1-1-2-1-1l1 1zM261 259c-1 1 1 0 0 0zM281 264c0 1 2 0 1-1l-1 1zM266 261l-1-1h1l-1-1h-1-1v1h2c0 1-2 0-1 1h2zM350 205h-1 1zM355 202h1l2-1c0-3-2 1-2-2l-2 2v-1h-2l1 2h-1l1 1 2-1zM370 207h0zM358 204h-1 1zM350 202h0zM344 212c1 2 3 1 3 0h-3zM361 194h0zM352 199l-1 1h1v-1zM360 196l-1 2c0-1 2-1 1-2zM354 198h0zM356 193l-1 1c-1 0-2 0-1 1l2-1v-1zM342 209h-1 1zM349 208l1-1-1 1h-1v1l1-1zM348 211h1l1-1 1-1h-2l-1 1v1zM349 212l1-1-1 1zM358 206h0zM355 206l2-1c-1-1-2 0-2 1zM345 207l1-1-1 1zM346 208l2-2-2 2zM364 177c0 1 0 0 0 0v-1l-1 1h1zM367 160h1-1zM363 163l-1 1c0 2 2-2 1-1zM363 162h2c0-2-2 0-2 0zM360 134c-1 0-3 1-2 2l2-2zM364 142l1-1-1 1zM354 190v2h1l-1-1 1-1v-1l-1 1v0zM358 138h-1v1l2-1h-1z" class="st1"/><path d="M356 177h-1v1h1v2l2-2h2l-2 2h1l1-1v-1h5c-1 0 0 0 0 0l-1-1c1 0 0 0 0 0l-2 1 1-1h-2v-1 1h-3 1l-3 1v-1-1 1zM369 150l-1 1v1c1 0 2-1 1-2zM358 140c-1-1-1 0-1 1 0 0 0-1 0 0h1v-1zM362 187h1c-1-1 1-1 2-1l-2-1h-1c-1-1-2 1-3 1h1l1 1 2-1-1 1zM356 192l1-1-2 1h1z" class="st1"/><path d="M361 184h-1l1 1v-1zM356 190v-1 1zM355 184l-2-1 2 1zM363 181s2 0 1-1l-1 1zM352 181l1-1v-1-1h-1l-1 1-1-1v2l1-1v1h1v1zM356 183v0zM340 216h-1l-2 1 3-1zM256 207l-1 1h-2l1 2h1l-2 1h1c1 1 2 0 2-1 0 1 0 0 0 0v-1-1l1-1h-1c0 1 0 0 0 0zM251 212l-1 1 1-1zM256 212l-1 1c1 0 2 0 1-1zM252 211l-1 1 1-1zM249 213v0zM319 663v6h1l-1-6zM215 205v-1 1zM246 211c1-1 1 0 1 1l1-1v-1h-2v1zM245 214h1v-1l-1-1-1-1 1 1-1 1c-1 1 1 1 1 2v-1zM260 206v0zM213 214c-1 1 1 1 0 0zM143 216c-2-1-3 2-1 1l1-1zM56 214l-1-2c0-1 1-4-1-4s-3 11 0 8l2-2zM229 212v0zM228 208c1 2 1 0 1 0h-1zM244 208h1-1l-1-1 1 1zM258 207c1 1 1-1 1-1l-1 1zM258 203c-2 0 0 2 0 0zM249 211v0h2l2-1v-1h-1v-1l-1 1h-1-1v2zM215 186l1 1h1v-1l-1-2v2h-1zM242 187l1-1h-1v1zM243 182v-2-1l-1 3h1zM219 181h1c1 0 1-3-1-2v2zM205 182h-1 1zM245 200h-1v1h1c1 0 0 0 0 0v-1zM214 176v0zM218 176h-1c1 0 0-1 0 0h-1c0 1 2 2 2 0zM247 178l1-1h-1l1 1v-1h1v-1h-1l-2 1 1 1zM221 178c1 0-1-2 0 0zM225 179v-1 1zM175 188c-1 0 0 2 0 0zM241 183c0-2-2 0 0 0zM244 198h0zM216 188c1 1 0-1 0 0zM239 195v-1 1l-1-1c0 1 0 2 1 1zM204 184h0zM90 223c-1-2-4-2-4 0l2 2c0-2 2-2 2-2zM218 184l-1-1h-1 1l1 1zM137 243l-1 1 1 1v-2zM59 701v-5l-1 2-1 7-2 3-1 2 2 1c-2-3 3-7 3-10zM136 243h-1c0 1 0 0 0 0l-2 1h1l2-1zM156 265h1v-1h1c-1 0-1-2-2-1h1c-1 0-2 0-1 1h-1l-1 1h2v0zM159 268l1 1h1v-1h-1l-1-1h-1l1 1zM130 241l-1-1-1-1v1l1 1h1v1h1v-1h-1zM160 283v0zM81 1025l-2 2h2v-2zM215 174l-1 1v1l1-2zM217 971c-2 1-2 3-2 5 3-2 1-3 2-5zM199 999l2-4c-2 0-2 3-2 4zM207 973l1 2c2-1 1-3 1-4l-2 2zM216 987c2-3 4-5 4-8l-4 8zM168 281h-1 1zM187 262v0zM179 270zM180 269c0-1 0-1 0 0zM199 251h-1 1zM189 260l-1 1h1v-1zM128 257c0-2-3 0-2 1 1 2 2-1 2-1zM122 230c-1-1-3 0-3 2 2 2 3-1 3-2zM202 278v1h-1l-1-2v1l1 1v3l1 1h1l1 1c2-2-1-3-2-4v-2zM246 277l-1-1h1l-2-3v1h-1l1 1-1 1v1h-1l2 1v-1h2zM153 289l1-1 1-4 1-1v-3l1-4v-5h-1v-2l1-1h-1l-1 1v-1 1l-2-1-1-1-1 1h1v1h3v3l-1-1h-2l1 1h1l1 2-1-1v1l-1-1v1h-1v2l-1-1-1-1h1v-1c1 0 0 0 0 0l-2 4v2h2l1 2-1-1h-1-1v1l1 1c2 2-1 7 2 8l2-1h-1zm3-16h1-1 1v-1c1 1 0 2-1 1zm-6 4h1v-1h1v2l-2-1zm5 1h1c-1 1 0 2-1 1v-1zm-3 1h1v2l-1-2zm-1 5l1 1-1-1zM164 270v-1h-1v1h1zM163 285l-2 2-1 1 6-6-1 1v1h-2v1zM161 272zM158 280c0 2 3 0 4 1l-1 2h1l1-1h1l1-1-1-1h3l1-2h1v-1h1l1-1 1-1v-1h1l-1-2c0-1-2-1-1-2l-1-1v-1l-1-1c-1 1 0 1 1 2v1l1 1h-1v1h-1l1 1c0 1-3 0-2-1v2l-1-1h-1v-1h-1v1h-3v1l1-1 2 2s-1 0 0 0h-1v1l-2-2h-1l1 2-2 2v2h-1-1zm8-5l-1-1 2 1h-1zm-3 1l2 2c-1-1-2 0-2-2zM123 230h-1 1zM169 280h-1v1l1-1zM157 262h0zM268 120v0zM260 124v1c1 1 2-2 1-2l-1 1zM272 121h0zM323 106v3l1-1-1-2zM286 118v3l1 1v-2-1h-1l1-2v-3l-1 2v2zM298 109l-1-2 1 2zM306 107l1-2c-1 0-2 1-1 2zM300 110s0 1 0 0v0zM296 109l-1-1 1 1zM265 124l1-2h-2c-1 1 1 1 1 2zM257 133h-1v1l1 1v-1-1l1-1v-1l-1-2v4zM253 129v0zM259 131v2l-1 1v1l1-2v-1l1-1v-1-1l-1 2zM255 134v-1 1zM261 131h1v-2l-1 2zM266 128h1v-1l1-1v-1-2-1l-1 3h-1v3zM265 125l-1 1 1-1zM266 126h-1 1zM255 136v0zM177 269h-2-1v1c1 1 1-1 1-1l1 1c1 1 1 0 1-1zM175 267v0zM164 267h-1l2 1v-1 1h1l-1-1-1-1v1zM160 266l1 1-1-1zM163 269l-1-1 1 1zM159 265s-1 0 0 0zM253 136v-1 1zM167 271l-1-2 1 2zM154 266v0s0-1 0 0z" class="st1"/><path d="M169 272h1l-1-3v1h-1v1l1 1zM173 270v1l1 2v-3h-1zM161 264l-1-1 1 1zM253 147v1l1-2-1 1v-1 1zM270 191v0zM266 131v-1-1 2zM265 132v-1 1zM308 109l-1-1 1 1zM260 197h1l2-2-3 2zM270 191l2-1-2 1zM144 162c0 2 1 1 1 0h-1zM237 173h-1 1zM150 157c1 2 2-1 0 0zM166 153l-1 1 1-1zM164 157v-1l-1 1h1zM165 154l-1 1v-1 2c1 0 2-1 1-2zM148 150c-1 1 2 1 3 1l-3-1zM161 151h-1 1zM155 151h-1 1zM158 152l1 1v-1l-1-2v2zM163 156l-1-2-1 1-1 1h3zM250 141l1-1h-1l-1 2-1 1v1 2l1-1 1-4zM250 176v0zM211 174h1-1zM245 178c2 0 0-1 0 0zM224 174h-1 1zM161 172h0zM246 181l1-1-1 1zM251 180h1-1zM250 178l1-1-1 1zM244 152c0 1 0 1 0 0 1-1-1 0 0 0zM241 150l-1 1 1-1zM211 172l-1 1 1-1zM243 152v-1c-2 0-1 1 0 1zM253 136c0 2 1 0 0 0zM251 137l-1 1 1-1zM258 143v0zM260 141v0zM253 138v-1l-1 1v2l-1 2v3l1-1v-1-1l1-1v-3zM245 149v-1l1 1v-2h-1v-1l1-1 2-2v-1-1-1c1 0 0 0 0 0l1-1v-1-2l-1 2s1 0 0 0l-1 1h-1l1 1v1h-1l-1-1-1 3h-2l1 2v1l1 1 1 1v1zM225 171v-2h-1c1 0 0 0 0 0l1 2zM240 171h-1 1zM236 165l1-1c-1 0-2 0-1 1zM224 172v0zM238 164c1 1 2 0 1-1h-1v1zM245 156c-1 1 1 1 0 0zM247 156l-1 1 1-1zM241 158c-1-1-2 1 0 0zM149 884c1 1 4-1 4-2-1 0-5 1-4 2zM187 623c1 0 2-2 0-2v2zM121 478h0zM184 616l-1 3-1-1 2 3 2-2-2-3zM159 615c3 5 5-1 0 0zM190 636c1-2-2-4-3-5-2 2 2 3 3 5zM169 616c-2-1-1 3 0 3 2-1 1-3 0-3zM174 632c0-1-2-7-4-6 0 1 3 7 4 6zM126 464z" class="st1"/><path d="M160 624c2 1 1 5 3 5 3-1 0-5-2-6h1l-1-1c2-3-2-6-4-5 2 1 0 2 1 3l-1 1v1c-1 0-2-1-2 1 1-1 1 1 1 1l-1-1 1 4c0-3 0-2 2-3l1 1 1-1zM182 610h1v-1l9 13v1l4 3 2 4 1 1 4 7-1 1h-1c-3-1-3-4-5-6l-3-3c-1 0-1-4-3-5l-1 1 2 3v2l5 5v5l2 1 3 6h-1l-1 1-4-5 2 6 1 1-1 1 2 2 1 4 5 5 6 9 3 2 1 4c2 1 3-3 2-4-1-2-4-2-5-5h3c1 0 2 2 4 0v-3h-1l-3-5-6-8 1-1 1-1 3 1 1 5h1c2 1 2 6 6 5-1 1 3 7 4 4l-1-3h1l-2-1v-1l-3-3v-1l-2-1 2-2c-2-2-3 0-4-2l-1-1-2-2v-1l-3-2-3-5-4-6-1-1-4-5v-4l-2-1c1-2-2-5-4-7h-1v-1c0-1 1-3-1-4l-1 2c1-2-2-3-2-5l-1-3-3-2-2 2c-1-2 2-2 2-3l-1-3 1-2c1-2-1-4 1-5l2 3v-2l1 1v-5l-1-1h-1c-1-1-2-4-3-3h-1l-1 1-3-3 1-1v-1c0-2-3-4-4-4v1h-1v1c-1 1-1-1-3-1 3 3 5 7 10 11l-1 1v1c-1 0-2-2-3-1 2 2 6 7 2 6l-1 3-2-1v7l-1 1 1 1 2 1h1c0 2 2 3 3 1zm30 55h-1v1l-2-2h1v-1c2-1 4 1 2 2zm-2-8c-4-3 2-3 0 0zm-2 2h-1l-1 1-4-6h1l1-1 4 6zm-9-19c-4 2-2-4 0 0zM170 639c-2-1 0-2 0-4l-2-3-2-4c0 2-2 1-3 2 0 2 3 2 2 4 0 0-2 0-1 1l-3-3 3 6c1-1-1-4 2-4l1 4v-1c1 1 2 3 3 2z" class="st1"/><path d="M190 637l2 3c2 0 0-3-2-3zM171 618c-3 4 3 3 0 0zM124 626v0zM86 628c-1 3 1 5 3 7 1-2-3-4-3-7zM95 644l-2-5c0 2 0 3 2 5zM182 613l2 4-2-4zM110 640l3 3v-3l-1 1-2-1zM107 643h-1v-5l-1 2c-3-2-2-6-6-8 0 1 1 4 3 4-2 1 2 3 2 5 1 2-1 5 1 3 0 1 1 3 2 2v-3zM165 618c1-1 0-3-2-4-1 1 2 3 2 4zM130 633c0 2 0 5 2 5l2 3v1l-1 3 1-1 1 1 1-3 1 1v-1l1-2 2 2 1-1h1v-1c0-2 2-3 3-2 1-2-1-6-3-4l-1 4-1-1v1l-1-1c-1 2-3 1-4-1-2 1 0 3 0 3-2 1-3-6-5-6zM142 622l1-1c1 1 2-1 2-1 0-2-3-2-4-3s-1-4-2-2v2h-1v1c-2 2 1 4 2 5l1-1h1zM146 620v5c1-2 2-3 0-5zM107 629c-2 2-1 4 0 6 2 1 2-3 1-4l-1 2v-4zM136 541v4c2 0 2-5 0-4zM139 649c3-5-5-4 0 0zM145 551l3 3-3-3zM170 541c-1 0 0 4 2 4 1-1 0-4-2-4zM153 550l5 6 2 1c2-1 1-3-1-5l1-2h2l1-1 3 3-1 1v1l-1 1 2 2 1-1h1l1-1h1v-1h1c-1-2-5-3-5-6h1l1-1c4 1-1-3-2-4v1l-1 1h-1c-1-1-2 1-3 1 2-3-2-4-3-6l-1 1v1l-1 1v1h-2l3 3-1 1-1 1-2-1c-2-2-3-6-6-7 1 1 0 3 2 3-1 1 2 4 4 6zM153 559l-2-3c-2 2 1 3 2 3zM200 547c0-3-4-5-6-7l6 7zM174 553c1-1-2-4-3-3l3 3zM184 563c0-2-1-3-3-4l3 4zM140 563c2 1 3 6 5 5v-2c-1-3-5-5-6-7-2 2 1 3 1 4zM163 557s-2 2 0 3v-3zM185 556l4 8c2-3-1-8-4-8zM196 561l-1 1 2 2c1-1 0-2-1-3zM151 598h0l5 2c1-2-5-5-5-2zM142 587l-2 1c3 2 5 5 9 4 0-2-6-7-7-5zM138 584c4 3 4-3 0 0zM104 561l-1-1-1 2c1 2 4 1 2-1zM167 592c1 1 4 4 4 2 0 2 2 2 4 2-2-2-5-6-8-4zM165 588c2 3 3-2 0 0zM104 580c-2-2 1-3 0-4-1 1-3 2-3 4h3zM147 570c-1 1 4 7 6 5-1-1-5-7-6-5zM110 562c-3-2-4 1-1 3h1l1 1c3 0-1-4-1-4zM120 565h1l-1-3v-2c-2 2 0 3-1 5v1l1-1zM101 573l3 1c2-1 0-5-3-1zM108 573l2 1v-3l1-1-3-2c0 2 2 4 0 5zM311 150l-1-1c-1 0 0 2 1 1zM359 525c-2-2-3 1-2 1 1 1 2 0 2-1zM130 536h-1l-1 2 2-2zM287 159v0c-1-1-1 1 0 0zM94 435zM299 158h-1l1 1v-1l1 1c0-1 2-1 0-2 0 0 1 0 0 0l-1 1zM299 152l1-1c-2 0-2 2-1 1zM218 596c1 0 1-2-1-2-4-2-1 4 1 2zM128 538zM656 748c-3 4 2 4 0 0zM60 691l1-2-1 2zM522 617c-2 2 3 3 4 2l-4-2zM315 181l-1 1c1 0 4-1 3-2l-2 1zM315 186l1-1c0-1-2 0-1 1zM294 165l1-1c-1-1-2 0-1 1zM305 202h1l1 1-1-1h-1zM303 203h0zM313 185l1-1-1 1zM281 163v0zM299 165h2l-1-1-1 1zM318 179l-1 1 1-2h1-1v1zM264 161h-1 1zM269 162h0zM99 454zM131 547l-1 4v1l2 1-1-1c0-2 2-4 0-5zM190 683c-2-2-2-5-4-6-1 1 0 1 1 2 2 2 3 6 5 7l-2-3z" class="st1"/><path d="M152 678h2c1 1 2 3 0 4h-1c-1-1-2-3-4-3 1 2 6 7 5 9l-1 4-6-9h1v-1c0-2 0-5-2-5v2h-1v1c-1 2 2 3 2 5l-2 2-1-1v1c-1-2-3-6-4-4v1c-1 4 4 8 3 11l-3-4c-2 0 1 6 0 7h-1v1l1 1h-1l-1 1-1-2c0 2 0 4 2 6v1l1-1 2 1 1 1 1-1v-3l2 1c1 2 1 9 3 10v-2h1l1-1v-3h-1v-1l-1 1-2-4h1c2 0 1-5 3-3 2 1 2 7 4 8l-2-7h2v-3l6 12c1-2-1-4-1-7h2v-4l4 8v-2l2 3c-1-6-4-11-7-16l3 3c1 1 0-1 1-1l7 10v-4l1 3c1-1 0-3-1-4l-3-5h1l-1-1c1-6 4 3 6 3h1l1-1h3l2 1c0-2-2-5 1-4s9 8 9 9l-2 1h-1l-1 1-3-4c-1 2 1 3 1 4l-1 1h1c-2 0-1 3-2 4l-4-1-2 3c1 2 3 1 3-1 2 1 2 3 1 5l-2-2v3c1 1 3 3 3 5l-1 1v3l-2 1 1 1v2c1-2 2-2 1 1l1-1c2 2-1 3 0 4l1-1 2 1-1 2 1 1c-1 4 0 10 5 8l2-12v-1l1-11-1-3v-6c-2-1 0-1 1-3l1 1v-2l1-1-2-4v-1c-2-3-6-5-8-9h1v-1l9 6c-2-5-7-7-10-12l-3-6-5-6-1-3h1v-1l1-1h1v-1l4 7c2-1-1-2-1-3h1l1-1c2-2 2 3 4 3h-1l2 2c2 2 2 5 3 7l1-1 3 4h3c1 0 1 3 2 1l-9-12h1v-1-1h2c3 2 4 6 6 8l3 1v2l2 1c1 2 2 3 4 3-5-5-10-11-13-17h1l1-1c3 5 8 9 12 11 1 1 2 3 3 2-1-3-11-11-11-14v-3l-1 1c-3-2-3-6-5-8l-6-8-3-4-1-2-2-4-1-1-1-2-3-3c-1 2 2 4 0 5l-1-1-1 1-3-6c-3 1 0 2 1 5l3 5c1 1 1 1 1-1h1v-1c1-2 1-1 2 0l2 2v2c0 1 3 2 0 3l-1-1-1 1c-1-1-1-4-3-4-1 1 1 3 2 5h-1v1c-2 1-1 2-1 3l-3-4v-1l1-1h1c-3-1-1-5-4-4v-1l-1 1-2-2c-1 0 0 3-3 1 0 0-1 0 0 0-2 1 0 2 0 3l-1 1c1 1 2 0 2-1l1 3 1-1c1 1 1 4-1 4 1-1 0-4-2-2l-1-1-1 1-1-1v4l-2-2 1-1-1-1-4-5c0-1 2-2 1-3h-1l-3-4 1-1h-1v-1-2c-3 2-6-2-6-4l1 1c2-3 2-4 1-6-2 1-3 1-4 4l-1-1v2h-2c1 1-1 2-1 3h1c0 1-2 4 0 6l1-2 3 8v-1c2 2 3 0 4 2h-1l-1 1c-1-1 0 1-1 2-1-2-5-3-5-5h-1v-1c-2 0-1 1-1 3h-1c-2 1-2-2-4-1 2 1 3 4 4 6 0 1 2 2 1 3h-1l-1 1c-1-2-3-1-5-3v3l1 1c1 1 0 3 2 5h1l1 2c1-2-1-3 2-3h1l1 1v1l3 2v-5l1-1h-1l-3-4 1-1 1-1 1 1v-1l1 4c1-1 2-3 3-2l1 1 1-1v1l1-1c2 2 0 4 1 7l1-2c2 2 0 4 3 5v-2c1 1 2 3 0 3v2c1 1 3 2 2 3h-4v-3h-1l-1-1v-1c-1-1 0-3-2-5l-1 1-1-1 1-2c0-1-2-2-3 0l2 4-1 1v1l-2 2h-1l-1 1h-1l-1 1 1 1c-3 4 2 8 4 12v-1zm33 47l-3-2c2-3 4 1 3 2zm5-5v-4c2 1 1 4 0 4zm-36-31l2 2-1 1-1-3zm12-2l1 1 1 1v2l-1 1h-1l-3-1v-4h3zm-19-56l1 2c0 1-2-1-1-2zm14 22l-1-2-3-2v-2h-1l1-3s0 2 1 1c-1 0 1-2 2-1-1 0-2 2-1 3 1-2 3-1 4 1h-2v1s2 5 0 4zm25-1l1-1h2l2 3-2 1v1l-3-4zm-24 2c1 2 4 3 2 4 0-2-4-2-2-4zm7 2l2 1v-1h1l1-1v3c2 1 2 3 0 2h-1l-1 1-2-5zm20 8l-1-1c-1 2-4-3-4-4s2 1 2-1h2l6 10h-1l-1 1-1-1-1 1c-1-1-4-3-1-5zm-38 6l1-1v-1l1-3h2l1-1 2 4h-1v1c-1 0-2-2-2 0h-1l1 1c-2 1 0 2-1 3l-3-3zm14 0l2 4c-2-1-3-3-2-4zm3 4h1c1 2 7 8 5 10h-1l-2 1c0-4-5-7-3-11zm-9 2c1 2 3 4 1 6l-1-1v1l-1-2h1l-1-1 1-3zM89 681v0zM114 678v0zM127 677l-1-6 1 6zM97 438l-2-2v3l1 1 1-2zM128 460h-1v1h2l-1-1zM125 458v0z" class="st1"/><path d="M146 667l-2-5c0 2 0 4 2 5zM100 450h4v-2l-2-1h-1l-2-3-2-1v2l2 6v-1h1zM182 698l2 2c0-1-1-4-2-2zM137 524zM183 484c0 1 0 1 0 0zM123 542v0zM307 179h0zM122 544l-1-1 1 1zM60 708v4c2 1 2-4 0-4zM87 713l-1-8 1 8zM105 696l1 2-1 1-1 1v-1c-1 3 0 7 1 9v-5h2v-4h2v2c-1 3 0 5 1 8v-3l1 1 1-1c1-3 0-7-1-10h-2l-1-4-1-1h-1l-1-4v1h-1l-1 1v6l1 1h1zM43 1027l1-5c5-8 10-17 17-23l5-6 11-7 3-5 5-8 1-4-3-3c-2-3 2-5 4-8h1v-1c2 0 1-4 1-5a45 45 0 0 0 1-10c-1-1-1-4-3-5l-5-1v-2l-1-3c-1-2 2-7 6-4l-2-6 1-2v-6c0-2 2-4 1-7l-3-9 1-3-1-4v-1l-1-4 1-4 2-4-1-5c-2-2-1-6-2-8l-2-1v-6l-1-1v-4l-1-1-1-2-1-2-1-6-3-3-1-3-1-2v-2l-1-1v-6c1-4 4-6 1-10l-2-1 1-3-3-3-1-2-2-6-1-1v-2-7l-1-1-2-9c-1-2-3-4-2-6l1 1v-2c3-1 3 9 5 4 1-3-2-1-3-4-1-1 0-2 1-4l-1-5c-1-1-3-2-3-4v-4l1-2v-2l1-1v-3h-2l-2-4 1-2-2-2v-5-2l1-1v-4c0-1-1-4 1-6l1-1c0-1 0-7-2-7h-3c-17 56-32 112-38 170-3 29-4 58-1 87 1 18 1 60 19 69 6 2 8-6 10-12zm11-294v4c-1 1-2-3 0-4zm-6 12l1-3 1 1 1-1c1 1 1-1 2-1 1 1-1 1-1 2s2 5 0 6l-4-4zM721 1016a508 508 0 0 0 62-412c-22-80-86-120-150-166-79-57-165-106-205-197-15-35-16-72-18-108C402 3 247-10 203 5c0 0-124 38-151 198h1c-1 4 2 6 3 1 2 2 3 6 3 8h-2v2l3 3c1 1 3-1 4-1l2 2 2-1c3-1 9 2 9-3 2 1 0 4 2 5l5-2 7 3 2-2c2-1 2 1 3 1 2-1 4 3 3 6h3l2-2h7v1l4-3 2-3 4 2c2 1 2 2 2 3h5v-1c2-2 4-1 4-3l5 1h2l2-1v-1l-1-1h1-2v-1l15-7h1c0-1 0 0 0 0l1-1 1-1h1l2-2h1l1-1 1-1 1-1 2-2h1v-1l1-2h1v-1h1v-1h1v-2h-1 2v-2l2-1h-1v-1h1v-2h-1v-1h-1l-1-1h-1l-1-2h1l-1-1h-1l1-1h-1l-1-2c1-1-1-2-1-1l-2-1-1-1c0-1 0 0 0 0v-2l-1-1h-2v-1c0-1 2 0 1-1h-2l-1-1 2-1-3-1-1 1v-1h-1v-1l-1 1-1-1c0-1-1-2-2-1l-1 1v-1h-2l-2-1v-1l-1-1c0 1-1 2-2 1h-2l-1 1v-1l-1-1v-1h-1l1-1 2-1-1-1h-1v-1h1c1 0 1-1 0 0l2-2v1h1c-2-1-1-3 1-3h2l1 1 1-2h6l-2-1v1h-2-4-1c-1-1 1-1 1-1 1 0 3-1 2-2l-1 1v-1-1l-1-1h2v-1c0 1 0 0 0 0v-1h-1l1-1 1-1c-2-1 2-1 3-2l-1 1 1 1h1l2-1 1 1 2 1h1v1h1s0 2 1 1l2 1v1l2 1h1v1l1 1h1v3h-1l2 1v2h-1c0 1 2 1 1 2h-1c0 2 1 0 2 1h-1v1l1 1v3h1v1l2 2 2 1h-1l2 1-1 1 2 1 1-1h-1v-1l2 1h-1l2 1h1l2 2 1 1 1-2 2-1h1l1-1v-1h1v-1l1-2h1l3-2h1l1-1h1v-1h5v1h-1l3 1-1-1h1v-1h2l1 1h1l2 1 1-1 2 1h3l2 1-1-1h2l2 1v-1h1l2 1 1 1v-1h1l1-2h1v-1l1-1 1-2 1-2 2-1v-1l1-1v-1l1-2v-1l1-2v-1-2l2-1v-2h-1l2-1h-1l1-1 1-2 1-1-1-1h1v-1l2-2v-1l1-1 2-3 1-1v-2h-1 2l1-1h1l1-2 1-1 1-2 1-2 1 1 1-1c0-1 0 0 0 0l1-1c1 0 0 0 0 0l1-1h1l2-1h1l1-1v-2l1 1 1-1h1l2-2h1l1-2 1 1 2-1 1-1 1-1 1 1 1-2 3-1v1l4-2h2l2-1h8l1-1h3l1-1 2 1 1-1h7l3 1 1-1 1 2v-1l4-1v1l2 1 1 1 2-1h1l1 1h2v1l2 1h1l-1 2v2h-2c0-1 0 0 0 0h-1v0h-1l-2 1 1-1c-1 0-2 2-3 1h-1l1-1v-1l-1 1-2-1v1l-1 1c1 0 0 1 0 0v-1l-1 1-1 1h-1c-1 2-2-1 0-1v1-1l1 1-1-2v-3l-1 2v-1h-1l1-1c-1 0-2 0-1 1l-2 2v-2h-1v2l-1-1h1l-1-1h-1-1v2l-1-1v-1l-1 2-1-1-1-1v2h0-1v1l-1-2h-1v2h-1v1l-1 1s-1 1-1-1v-1l-1-2v6c1 1 1-1 1-1l1-1v6-1l-1-1v1l-1 1v2h-1l1-2-2 2h-1v-2-1-1h1c1 2 1 1 1-1v-1-1-1-3-1c0 1 0 0 0 0l-1 3v3l-1 1c0-1 1-2-1-3l-1 5v-2-1l-1 1v2l-1 1v-3-3l-1 2v5h-1v-1-1-2 0l-1 1v3c0 1-1 6-2 3v1l1 1h-1l-1 2h-1-1v-2l1-1v1l1-3v-2-1-1-1l-1 2v1h-1l-1 1s-1-1 1-1l-1-2v-1l-1 4c-1 0 0 0 0 0l-1 1-1 1v-1-2-1-2h-1v6l-1 1v-1l-2 1 1-1-1-1h1v1l1-3v-1-1l-2 4v-2l-1 2v2h-1l-1-1v1 1l-1 2v4h-1v-2-1l-1 1v1l-1 1v2l-1 1-2 3v-2l-1-1h1l-1-2h1v-1-1-2 1h-1v6h-1v-1l-2 1v-1l-1 1v1s-1 0 0 0l-1-1-1 2-1-2c1 1 0 2-1 3v1-3l-2 5h1v-1h1l1 2c1 0 0-2 1-1l1-1 2-1 1 1c1 0 0-2 2-2 0 0 2 1 0 1v2h-1 1c-1 1-1-1-1-1l-1 1v3h-1c-1-1-1 1-2 2h-1v-1l-1 2v2c1 0 0 0 0 0v0c-1 1 0 2 1 1h1v1s-1 0 0 0v1l2 2h-1v1l-1 1c-1-1-1 0-1 1v-2h-1l1-1v-1l-1 1-2 1v-1l1-1 1-1h-1v-1h1l-1-1h-1v1l-1 1h-1v-1l1-1h-1-2v2c-1 1 0-1-1-1h-1l1-2 1-2v1l-2 1v-1l1-1v-2l-1 1s1 0 0 0v1l-1 1v1l1-1v1l-1 1h-1c1-1-1-1-1-2v3h1-1l-1 1h3l1 1h-1v1l1 1v0h1v1l1 1-1 1 1 1-2 1h-1-1l-2 1-1 1s1 0 0 0v-1l-1 1-1-2 1 2h-1l-1 1v1h-2l-1 1h-2v1c-2-1-2 0-1 1h-1l2 1v-1h1v-1h1v1l-1 2h1l1-1v1l2-1v1l1 1h2l1 1h2l1 1h1l2 1 1 1h2l1 1h2c-1-1 2-2 2-1l1 1-6 3 3-1s0 1 0 0h1c0 1 2 1 2 3h-1 1c-1 1 1 2 1 1v-1l1 1c-1 1 0 2 1 2h1l1 1 2 1 2 2 2 1h1l2 2 1 1v1h1l2 3h-1-1v-1l-2-1-1-1h1-3-1l-1 1-1-1-1 2h-2c0 1-2 0-1 1v1l-1 1-2 1v1l-1-1v-1l-1-1-1-2h-2l1-1h1l1 1 1-1v-1h-1v-1l2 1s2 3 2 1h1v-1 1c2 0-1-2 1-2v1c1 0 2 0 1-1h2v-1h-1l1-1 1-1h-2v-2h-1v-1h-2l-1-1-1-1h-2v1l-2 1h-1l-1 1h-1l1 2h-1v2l-1 1v1h-2-1l1-1h-1l1-1c-1-1 2-1 2-1v-1l1-1h-1l-3 1 1-1h-1l1-1 1-1v1l1-1h2v-1l1-1h1v-1-1l-2 1h-1l-2 1h-1v2h-1v-1c-1 1-2 2-2 0h-1v-1h1l1-1h-1v-1l-1 1-1 1h1l-3 2c1 1 1-1 1-1l2 1c1 1-2 1-2 2 1 0 3 1 2 2h-2l1 1-2-1v2h-2v0h-1v3h1l1 2 1 1 1-1v1l1 1h1v1h1v1h1s-1 0 0 0h2l1 2h1l1-1h3c-1 0 0 0 0 0l1-1v1l2-1-2 3h1c1 1 0 1-1 1 0 2 2 0 3 0v-1 1l1-1h2v1l1 1v-2h1l1-1h1v1h1l1 1h1c0-1 0 0 0 0l-2 1h-1 1l-1-2-1 1-1 1h1v2s0-1 0 0h-1l-1-1-1 1c0 1 0 0 0 0h-1v1c0 1 0 0 0 0l1 1v1h1v-2h1l1-1h2v2h-1 1l-1 1h1-2-1v0l-1 1v1h0c-1 1 0-1-1-1-1 1 0 2-2 2v-1 1h-3v1l-1-1c0 1-1 0 0 0h1v-2l2-1-2-1v1c-1 0-1-2-2-1v4l-1 1 1 2-1 1h2-1l1-1v1h1v1h1l-1 1h-1v2l2-1v1h1l-1 1-1-1h-1v1c-1-1-1 1-2 2v0h-1v-1h-3v-1-2h1l1-1v1h1v1h3c-1-1-3 0-2-1s0-1-1-1l-1-2 2-1h-2 1l1-1-1-1-1 1-1-1v2l-2-1-3 1h-5v1l-1 2 1 1v3l1-1h3l1 1h-1v2l3 1-2-1 1-1h3c-1 1 1 0 1 1v-1 2h-3v0l1 2h-1 1c-1 1 0 1 1 1h2l-1-1 1-1h1l1 2 1-1-1-1h1v-1h4l1-1h1v1h2v-1h3l1 1c-1 0 0 0 0 0h4l-1 1h1l-1 1v-1h-2l-1 1-1 1h1l2 2 1-1h1c2 0 4 1 5-1l-1-1h2c1 0 2 0 1 1h-1v2h-1v2l1-2 2-1v-2l-1-1h2v-1l2-2s0 1 0 0h2l-1 1-1 1v1c0 1-2 1-2 3l1-1v2s-1 2-2 1l1-1-1-1-1 2s1 0 0 0l-1 1v1l-1 1h1l-1 1h13l1 1-1 1h-1l-1-1-2 1h-3l2 2h-1l3 1 1 1h-6c1 0 0 0 0 0v-1h-3l-1 1h-1l-1-1h-1-1v1l1 1v-1c1-1 1 0 1 1l1-1 1 1h2l1-1 1 1 2 1h-1l1 1h3l2 1h1v1h4v1h2v-1l3-1h-2v-1h-2l-3-1h1l-1-1h2l1 1 1-1h-1 1l1-1h2l1 1h3v-1h4v-1h2l2-1-3-2h-2-1-1l-4-2h1-1 4l3 1h4l5 1 1-1v-1l2-1h-1c-1-1 0-1 1-1l1-1-1 1h2v-3l2 1v-1l-1-1h1l-1-1 1-1-1-1v1l-1-1h1c0-1 0 0 0 0h1l1 1v-1c1 1 2 2 3 1h-1l-1-1h1l-1-1 1-1-1 1-1-1v1l-1-1-1-1-1-1v-1l1 1h1l-2-2h1l3 1-1-1-2-1-1-1h2l-1-1h2s-1 2 1 1h-1l1-1 1-1h3l-2-1h2v1l1-1v-1h2v-1h-1l1-1h2l1 1h1v-1c-1 0-2 0-1-1-1 1-1 0-1-1h1l1-1h2v-1h1c0-1-1-2-2-1 0-1 1-2 2-1h-1 1l1-1h1c-1 1 0 1 1 1v-1l1-1h-1v-1h-2 1v-1-1h1v2l2-2v2l1-1h1v1l2-1 1-1c-2 1-2-2-3-1l1-2 1-1h1c0-1 0-1 0 0l1-1h1l2-1h-1v-1h-1-2l1-2 3-1h-2l1-2-2 2c0-1-2-1-1-2l1 1v-1l1-1h1v-1-1l1 1 2-1-1-1 2 1h-1 4l-3-1 1-1h-1-3l-1-1h-2v-1-1 1h-1-2l1 1-1 1h-2v-1l1-1-2 1h-2v-2h-1 2v1c-1-2 1-2 1-1v-1l1 1v-2l1 2 1-1-1-1 1 1 1-1v-1l-1-2-1 2v-1-1l2-1v1l1-1v1l2-2h5l1-1h1v-1h1c-1-1 0-1 1-1l-1 1 3-1h1v-1l-3 1v-1l-2 1-2 1v-2c-1-1-1 1-2 1l1 1-2 1h1l-1-1v1h-2l1-2c0 1 1 0 0 0h-2l1-1v-1h2v1h2v-1-1l-1 1v-1-1h1v1h1v2l2-1 1-1h-1v-1h-1l2-1-1-1h-1l1-2 1 1v1h1v-1-2l1-1c-1-1-3 2-3 2v-1l-1-1-1 1h-1l1-1 2-2h2l1-1v-1c1-1 1 0 1 1l2-1h1c1 0 2-1 1-2l-1 1v-1h-1c0-1-1 2-2 1v-1s2-1 1-2h1-2c0-1 0-2 1-1l2-2c-1-1 0 0-1 1v-1h-1l-1 1-1 1-1 1 1-2-3 2v-2-1l2 1v-1l1-1v-1 2l1-2 1 1 1-2h1l2-2-1 2 1-1h1l1-1-1-1v-1l-1 2-1-1h-1l-1 1h-1c-1-1 0 1-1 1h-1-1l1-2h1l1-1-1-1-2 2 1-2h-1l1-2-1 1-1 1-1 1h-1l-1 1v-3l1-1h1l1-1-2 1h-2l1 1-2 1h1c-1 1-1 2-2 1v2l-1-2v-1l-1 1-2 2v-1 1l-1-1h-1v2h-1v-2h1v-1h1l2-2h1l2-1h1v-1-2l-1 1-1 2v-1-1h1v-1h-1l-2-1v-1l2-2-2 1v-1-1-1c1 0 0 0 0 0v1h-1v1l1 1h-1l-1 1v-1l-1 1v-1l1-1h-1v-1h1l1-1c-1-1-2 2-3 2v-2l1-1-1-1-1 2v2l-1 2-1-1v-1l-1-1v2l-1 1v-2l-1 1 1-1v-1h1l-1-3 1-1h-1v3l-2 2v-2l-2 2c1-1 0-2-1-1v0-1h-1-1c-1-1 0-1 1-1h1l1-1v-2l1-1c-2 0 0-2-1-2l-1 2v2h-1v1-2l-1 1-1 2-1-1-1 2v1l-1-1v-1l1-1h1-1l1-1 2-2c-1 1-1 0-1-1v-2l1 1h1c-1 0 0-1 0 0v-1-1-2-1l1-2-1-1-1 3h-1-1-1v-1h-1v0l-2 1v-1h-2v-1l1-1 1 1v-1l1-1v1h1v-1l1 1v-3-1 1h1v-1-4-1h1v-2l2 1h1v1l1-1v1h2v1h1v1l2 2s0-1 0 0v1l1 1 1-3 2 2h1l1 1 1 1 2 1 1 1 1 1 1 1 1 1h2v1l1 1h1l1 1 1 2h1l1 1v1h1l1 3 1 1 1 1v1l1 2 1 2 1 2v2l1 1v5l1 4v6h1v9l-1 1 1 1-1 2h0v4 1l-1 1v3l-1 3-1 1v2l-1 4-1 1v1l-1 1v1 1l-1 1-1 1v3l-4 2-1 1-2 1h1v1l-1 1h1l1-1 1-1v-1l1 1 1-2h1c0-1 0 0 0 0l1-1v-1l1-1h2v-1l1-1 1-1h1v-1h1v1l2-2 2-1 3-3h2l1-2h1l2-1 1-1h1v-1h2l-1 2-1 1v2l1 1-3 1 1 1h-2l-1 1-1 1s2 0 1 1h-2v-1h-1c-2 0 0 1-2 2h2l-1 1-2 1h1c1 1-1 1-1 1v0l-2 1h0v1l1-1-1 2-2 1-1 1-1 1h2v-1l2 1h2c0 2-2 0-2 1v1l-2 1h-1-1l-1 1h-2l1 1-2 1v1h-2l-2 1v2l-1-1v1s0-1 0 0h-1v1l-2 1-3 1 1 1-4 1 1 1-3 1h-1l-1 1h2l-1 1h-3v1h-2v1l-2 1-2 1v1l-1 1-1 1-1 1c0 1-3 0-2 2-2 0-1 2-2 2l-3 1 1 1h-2s0 1 0 0h-1l1 1c0 1-2 1-1 2h-2-1v1h-2c-1 0-1 0 0 0l-1-1v2h-1l-1-1-1 1-1 1-1-1-1 1h1-1l-1 1h-2v-1l-1 1h-1-1v2h-1l-2 1h2l-2 2-1 1h-1v1l-2 1-1 1h-1l-2 1 2-1v1h-1l1 1-1 1h-1v1l-1 1-2 1h1v1l-2-1c-1-1 1-1 1-1h-1-1 1c-1-1-2 0-3 1l1 1-2 1v1l-1 1h-1v2 1h-1l1 1c0 1 0 0 0 0v1 1l-1 1v1h-1v1l-1-1v2l1 2h-1v1l1-1-1 1h0c-1 1 1 3 1 3h-2v1 1l-1 1v1l-1 1v2l-1-1-1 1v-1l-1 1v1l-1 1v1l-1 1v-1h-1 1l-1 1-1 1-1-1-3 1v-1l-2-1v-1-2-1l1 1 1-1h1v-2h0s-1 0 0 0l-1-2c1-1 1 1 1 1l1-1 1 2 1-2v-1c0-1 1-2-1-2 1-1 0-3-1-3l-2 2v-1h-1-1 1v-1l1-2v-1h-1l-2 2v-1h1l-1-1h2l1-1 1-1s2-2 0-2l1-1h1c2 1 1-3 0-1v-1l-1 1c0-1 0 0 0 0h-1l-1 1-1 1-1 1h-2v1h-1v1l-1 1h-1c0-1-1-1-2 1h-2v1h-1v1h-1v1h-1c-1 0-1 2-2 1h-1-1l-1-1v1l1 1v1h-1l2 4-1 1 1 1v2h1l-1 1v1l1 2 1 5 2 10 1 4 1 7 1 3v2l2 9v2l1 3c2 4 2 9 3 14l4 21c0 2 3 4 2 7l3 16 2 10 1 2 2 3 4 4c2 3 3 8 6 5 1 3 3 3 5 5 2 1 4 4 6 3l-1-2 1-1 1 2h2v1l2 1 7 7v5l2 1v3l4 1v-2c2 0 1 3 0 2 0 3 2 0 4 0 1 1 3 2 3 4-1 1-2 0-3-1 0 3 2 4 4 6l5 5 7 6 1 2 6 5 7 7 3 1 3 5c2 1 2-1 1-2 2-1 3 1 3 2-4 2 4 5 0 7l2 1h-3v3l-1 1c0 3 1 2 3 1l3-2h2l2 5c1 1 4 3 3 4 0 1-1 2-3 1 0 1 0 3-2 2v-1l-3-2-2 1v-1c-2-1-4-2-4 1 0-2-2-4-4-3 0-2 3 0 3-1 1-1 0-3-2-3l1-1c-2-1-4-2-6-1l4 2c-4 1-10-1-15-2l4-1 2-2h3l4 2c2 0 1-2 4-3-3-2-5 0-8-1 1-2 2 0 2-1 0-2-3-1-5-2v-1l-2-2 1-1h-1c-3-2-7 0-10 3l-1-1v-1l-1 1h-3c-1 0-1-2-2-1 2 1 2 3-1 3l2 4-2 1c1 2 3 5 5 4v-1c1-2 1 0 3 0 1 1 3 0 3 2-1 1-1 4-3 3l-6-1c-1 1 1 3 1 4l-1 1 1 3 1 1v3l4-2c1-2-3-2-3-3-1-2 4-4 5-4l1 3-1 3c-1 1 0 2 1 3l-2 6 1 3-2 6 1 2-1 4c0 2 3 2 2 4-1 3 1 3 1 5l-2 2 3 5v7l7 2c-1-3 3 0 6-3l1-4-2-1 1-3 4 4 1-2v1l1-1c1 1-2 3-1 4l2-1c1-1 0 0-1-1h1v-3l2 3h2c2-3 2-6-1-8l3-1c-1-1-1-6-3-5v-1h1v-1c2-1 5 3 7 2l-1-1h1v-1l3 3v-2l1-1s-1-2 1-2h1l3 2c0 2-4 5-1 5l-2 3h-1l-1 1-2-2c-1 0-2-5-4-3v2h1l2 2s0 3 1 2v2h1l1 3 4 3c1 2-1 2-2 3 0-2-2-3-3-2 0-2 0-4-2-4-1-1-3 3-5 4l-3 1c0 1 1 4 2 3 1 0-1 4-2 1v-1c-2-2-4 5-6 2 1 0 2-1 2-3-2 0-3 2-4 3v-2c-2 0-1 2 0 3-2 1-1-2-2-3-1 0-4 0-4 2s5 1 6 1l1 1 4-2 2 1 1-1 4 1 1-1h6l1-1 3 1 3-1h3l2-1 5 1 1-1 6 1h5l-1 1v1l-1 1c1 1 3-1 5-2l1 1 1 1c-1 2 3 3 3 0h1v-1l3 2-1 1 1 1c-3 2-6 0-8 2h-1l-1-1 1-1c-2-2-3 1-5 0v-1h-1c0-3-6 0-8 1l-1-1h-1c-1-3-4 1-6 1l3-3-5 1c-1 1-2 3-4 2l1-1h1l-1-1c-2-1-5 2-7 2v-1h-2l-5 2h2v1l1 1-1 1c1-1 2 2 4 1 0 0-2-1-1-2l1-1v-1l3-1v1h1l2 1h3l-1 1 1 1h-6v-1l-2 3h2l4 2 1-1 1 1h2l-1 1 9-1h-3c1-2 2 1 3-1l-2-1c1 0 3-1 2-2l1-1v-1l3 1 1 1 3 1-6 2-1 1 1 1 4 1 10-2v1h1v1h5l1 1 1-2h6l1-1c1 0 3 0 3-2l1-1h-1v-1l1 1h1l6 3h3l3 6h2c2 1 1 3 2 4l3 1 1 4c2 2 7 4 8 7l-2 1 2 1v-1c1-1 3 1 2 1 1 2 3 2 5 3l8 6h-2l2 1-1 1v1l-12-3 8 4v2l-1 2v1c-1 0-3 0-3 2 0 1 4 0 3 2h-2c2 3 8 3 6 6l-7-1 2 1v1l-2 2 1 2v1s4 3 1 2l-2 1v-2l-2 1v3c1 1 2 3 4 3l-1-2 2 1-2 3 5 5-1 1 1 1c-2 3-4 0-6 0l-1 1c3 1 5 4 8 3-2-3 0-4 3-2l3 6c1 0 1-2 2-1v3h-1c1 2 2-1 3 0-2 0-1 2-2 2l2 1v2c1 2 3 1 5 3l4 4c-1 0-3 0-2 1l4 2 4 4v2l3 1c-1 0-1 1 1 2l2-1c1 1 1 2 2 1h-1l1-1 1-1c1-2 4 2 5 3 2-2 2 1 3 2h2l2 2c-1 3 4 4 7 6l1 2 4 2 1-1 4 3c2 2 3 3 6 3-2-3-7-3-10-7-1-2-4-2-6-4l-3-3c-1-1-3-1-3-3 0 0 2-1 0-1-1 1-2 0-3-1l1-2-2-2 5-1-2-1v1l-4-1c-1-1 1-1 1-2 1-1 1-2 4-1l3 2 1-1 5 5h-2l3 2h-4c-1 1 4 3 5 3l1-1 1 1v1h1l3 3v1l1-1 3 2-1 1c1 2 2 0 2 0l5 2c0 1 0 2 1 1l-6-5h1v-1-1l1-1-2-1v-1c-1-1-4-1-5-3l-3-3 1-1v-1h5c-2 0-3-3-4-2-1 0-3 2-3 0l2-1c-1-1-5-5-1-3 4-4-7-3-6-6 0-1 2 0 1-2-2 4-6 0-7-2h2c-1-2-2-1-3-1l1-2 1 1 1-1c3 0 6 5 9 3l-5-5 2 1c-2-4-5-2-7-5h1v-1c1-2-10-7-10-6h-1l-1 1v1l-2-3-1-2-8-3-5-3h1v-1h1l1-1-6-2 1-1v-1c1-2-2-1-4-2l-2-1h-1c-2 0-3-3-5-3v-2l1-1-8-3c1-1 1-1-1-2h3v-1l7 3c1-1-1-1-1-1l1-1-1-1 1-1 1 1c2-1 2 0 3 1l2 1 2 3h1l-1 1h3c-2 1-2 3-1 3v-1h3l1 1 2 1 5 5 3 1 12 11 3 1 3 3 3 2 3 2v1c1 2 0 0 1 0l2 3v-1l1 2 4 2 1 1 1 1v1h2l3 4c-1 3-3 0-4 0 1 2 6 4 7 2 1 2 1 5-2 3l3 1 2-1c3 1 2 4 3 5s3 0 4 2v4h2c2 2 0 5 2 6h2c2 2 0 4 1 5l2 1c2 1 0 4 1 5s3 1 3-1l2 3c-3 1 0 7-4 5l3 2c1-1-2-1 0-2 2 2 0 5 4 7h2c3 2 1 4 2 5h2l2 1v2c1 2 4 1 5 1 2 2 1 6 1 9l-1 3v1l-1 1c-1 2 0 4-2 6l-1 5c-1 2-3 3-3 5l1 2-2 5c3 1 1 5-2 7l3 1-2 3v1c-1 2-3 2-2 4h1c1 4-4 7-6 4l1-1-1-1c2-1 0-3 1-5l2 3 1-3-1 1-1-7-3 2-1 2-1 1-2 4c-2 2-4 3-3 5-2-1-2 3-2 4l-2-1c-2 1 1 2 1 3v1l1 2 3 7c2 0 2-4 2-5l-1-4h-2c1-1-1-2 1-3-3 0-2-4-1-3 2 0 3 6 5 7 1-2-4-4-2-5 1-1 3 2 3-1l1-1h1l3 2c1 0 3-2 3 1-2-3-3 1-5 3l-1 1v3c-1 3-4 4-5 6 4 2-3 4-4 5v3l-4 2h-2-2l2-4-2-6-1-1-1-3 1 1 1-2c0-1-2-2-3 0-1 1 0 4 1 5l-2-2-1 4h1c1 2 1 0 2-1 1 1-1 2-1 4l2 2c1 2 1 6 2 4 0 5-6 2-6 6-1-2 0-3-2-3v3h-6c1-2 3-4 2-6l-2-1 1-5c2 1 1 2 2 3l1-2 1 2 1-2c0 3 0 5 2 7 1-2 0-3-1-5l1-1-2-4v-3c-1-1-3 1-4 2l-5 2h-2l-5 2-1-1c-1 1-3 4-3 1l-1 2-1-1c-1 1 0 2 1 2 1 2-1 1-3 2v-1l-1 1c-1 1-2-1-2-2-1 3-3 6-2 9 0-2 2-1 3-1h2l1 3h-1l1 1 1 1c-2 2-3-1-5-1l-2 1h-1c-2-1-4 1-4-1-1 2-4 1-6-1l-1-1c-1 0-6 2-7 4-1 1-3 5-2 6l7 2 2 1c2 1 5 1 7 3l2 3c3 3 3 7 5 10s4 4 4 6v16l-1 2c2 1 3-2 4-2h3l2-1c0 2-3 1-4 3v2c-1 0-4 0-2-1-4 0 0 3 2 3-2 2-5-2-6 0-1 1 3 4 0 5 1 1-1 2-1 3l2 5c-2 0-4-2-5-3 3 4 7 4 10 7l1 4 3 6v2l-1 1 2 4-1 1v5h-1l1 4c1 1 4 2 2 3h-2l-1-2c-2 1-1 2-1 3-5 2 3 6 6 9l10 11 2 1 2 4 1 1 1 2 1 2v4l2 3h2v2l7 7v1l-1 1 4 2 1 1v-1c2-1 2 1 2 2l6 6c3 3 5 7 9 5l1 1v-1c2 2 3 2 5 2l1-1h1l6 3h2l3 3v-1c1-1 1 1 2 2l6 4 3 3 3 6 3 4v2c0 1 2 2 1 4-3-2-6-5-9-5 29 7-10 76-14 91-3 12-4 23-4 35-1 13-2 27 6 37 7-4 12-11 17-18 11-15 23-30 36-43 10-11 22-22 31-35l13-23c6-13 13-25 21-37zM114 212c-1 0-3-1-2-3 2 0 1 3 2 3zm-44 3v-6c1 1 1 1 2-1 1 2 2 9-2 7zm-4-4c-1-1-1 0-1 1-1-1-4-5-3-6 2-1 5 4 4 5zm6-9c-1-1 1-4 2-2l-1 2h-1zm37-5v-1 2c2 1 1 3 0 3v-2c-1-1-5-2-5-5v1l1-1c2 0 4 1 4 3zm-35 2c-3-2 1-5 1-2l-1 2zm-14-5c0 1-1 3-3 2l4 7h-5l1-1-2-4 1-1v-1h1l-1-3h1v-3c1 1 4 3 3 4zm77-32l1-1-1 1zm1-2h-1 1zm4-6v-1 1zm4-4l-1 1 1-1zm0-3s1 0 0 0c1 0 1 1 0 0zm35 25h1-2l1-1v1zm-5-5v1l-1-1h1zm61-20l1-1-1 1zm69-36h1l-1 1v-1zm-25 13c0-1 0-3 1-2v1h-1v1zm-7 0h0zm3 1v-1 1zm-25 29h1v1l-1-1zm12 35l1 1c-1 1-1-1-1-1zm2-1l1 2-1-1v-1zm-1 0l-1-1 1 1zm-7 0v-1l2 1h-1-1v1-1zm4 1l1 1-1-1zm-13-1l-1-1 1 1s-1 0 0 0zm-5 5l1 1-1-1zm6 1h-1 1zm9 4v0zm-13 19l1 1-1-1zm0 1v0zm6 1c1 1-1 1-1-1v-1l-2 1v-1h1v-1l1 1 1-1h2v2h1c-1 1-2 0-1 1h-1-1zm-3 1v0zm2 3c-2 0 0-2 0 0zm-3-1h0zm1 1l-1 1 1-1zm25 6c1 1-1 0 0 0zm2 0s-2 1-1-1l1 1zm16 14l-1-1 1 1zm12-2c-2 0 0-2 0 0zm3-1h-1 1zm-22-5v-1 1zm-4 0l1-1-1 1zm65-100h1l-1 1v-1zm-57-14c-1 0 0 0 0 0v-1 1zm3 2l1-2h-1l1-2h1v2l-1 1 1 1h-2zm-20 6c-2-1 1-2 0-3h-1l1-1v1h1v4l-1 2v-3zm-4 3v-1h1l-1 1zm6-1v-1-1-1-1-1h1v2h1s1 0 0 0v1l1 2h-2v0l-1 1v-1zm17-1h-1v2h-1l-1 1-1-1-1 1v-2l1 1v-1l1-1 1 1v-2h1v-1h1v2zm2 0v1-1zm-1 3v1h-1v-2l1 1s0-1 0 0zm-4-4v-1 1zm-5 0l-1 1v-1h-1l1-1 1-1v2zm-4 4v-1h1s1-2 2-1v1l-2 1h1v1h-1v1h-1v-1l-1 1-2 2v-1l1-2 2-1zm53 1c0 1-1 2-1 0h1zm1 1v0zm-6 1l1-2-1 2zm-22-1l1-1-1 1zm-38-1l-1 1 1-1zm-2 4v-1 1zm0 3v-1-1 2c0 1 0 0 0 0zm2-1h-1l1-1v-3 1l1 2 1-1h-1v-1-1l1-1 1 1v-1h2s0-2 1-1h1v1l1-1v3h1l-1 2-1-1 1-1-1-1v2l-1-1h-1c1 2-2 0-2 1v2h-1l-2 2v-1h-1l1-1zm6 0v1l-1 1h-1v-1c0-1 0 0 0 0v-2l2 1zm51 1v0zm-61 2v-2 1h1v1l-1 1v-1zm44 0h-1 1zm-48 3v0zm1 1v1h-1l1-1zm-1 3v-1-1l1 1 1-1h1l-1-1v-1h2v2h-1l-1 1-2 2v-1zm7-3v0zm-5 5l1-1h1l-1 1v1l-1-1zm9 1l-2 1v-1s0-1 0 0l1-1v-1h2l1-1 2-2 1-1h2v-1l-1 2 1-1c1 1-1 1-2 2v1h-1-1v1l-1 1-1 1-1 1v-1zm8-5v-1 1zm29 0c1-1 2 0 0 0zm-26 2l-1 1c0-1 0-2 1-1zm-25 5v3-2-1zm-5 3h1v-3l1 1 1-1h1l-1 1-1 1-2 1s1 0 0 0zm9 2v-1l2-2-2 1 1-1-1-1-1-1 1 1v-1h1c1 1 1 0 1-1l1 1-1 1 2 1c0-2 1-2 2-3v1h1l-2 2-2 2h-1l-2 1zm-16 5l1-2s0 1 0 0h2c-1 0-1 1 0 0v2l2-2v1l-2 1v1l-1-1-1 1v1h-1l-1-1 1-1zm-2 1v0zm-2 1l-1 1 1-1zm1 0h0zm7 2l-1 1v-1h-1l1-2h-1 1s-1 0 0 0l2-2h1l1-1v1l1-1c0-1 1-3 2-2l-1 2 2-1v1-1c1 1 0 1-1 2l-1 1h-1l-1 1 1 1h-1v1h-1l-1 1v-1h-1zm8-2h-1 1zm-6 3l2-1-1 2c-1 1-2-1-1-1zm22-1v1-1zm-20 4v-1 1zm12 0h-1v-1h-2l1-1h3v1l1-1 2-1 1 1h1l-3 1v1l-1-1-2 1zm14-2c0 2-2 1 0 0zm4 2s1-1 0 0c1 1 0 1 0 0zm5 1l1-1h-1 1c1 1 0 1-1 1 1 0 0 0 0 0zm3-1l-1 1c-1-1 0-2 1-1zm14 3h-1s1 0 0 0l3-1c0 1-1 2-2 1zm4 1h0zm1-1h2v1h-1l-1-1zm-2-1l2-1c1 2-2 2-2 1zm3 0h2-2zm3 0v-1 1zm-48 0c0-1 2 0 1-1h1v1h-2zm36 2h-1-1l2-1h1c0 1 0 0 0 0-1 0 0 2-1 1zm7 1c1-1 3 1 0 1v-1zm1 1h-2v-1h1l1 1zm-6-1v-1 1zm-35-1l1 1-1-1zm32 1h2v1l-2-1zm2 1l-1 1 1-1zm2 2l1-1-1 2v-1zm-1 0c1 0 0 1 0 0zm0 0l1-1-1 1zm-2-1h0zm5-1l-1 1c-1-1 0-1 1-1zm-38 2l1-1h1l-1 1v1l-1-1zm30 0v-1h3v1c-1 0-3 0-2 1l-1-1zm-8 2v1h-1-1-1v-1h3zm-7 1l2-1v1h1l-3 1v-1zm-11 2l-2 1 2-1zm8 2c-1 0 1-1 0 0 0 1 0 1 0 0zm3-1l-2 1 2-1zm5 2c2 0 1-1 0-1h1c0 1 0 0 0 0l1 1v-1 1h1c1 1-2 1-3 1v-1zm7 0v1-1zm0 4h-1 1zm1 0v0zm-5 1l-1 1c0-1 0-2 1-1zm-4 0l-1 1 1-1zm-2 1c-1-1 1-1 0 0zm-18 1c-1 0-1-1 0 0zm11 0h1s1-1 1 1l-1 1c0 1-1 0 0 0l-1-2zm20 1l1 1-1-1zm0 2l-1-1h1v1zm3-2c1 0 1 2 0 0zm2 1v-1h-1l2-1c1 1 0 2-1 2zm-32-1h0zm-5 1s2 0 1-1l1 1 1-1h1v1h-1l-1 1-2-1zm17 0l1 1-1-1zm-14 1l2 1-1 1h1l-2 1v-2h-1l1-1zm-1 2c0 2-1 0 0 0zm-8-1h0zm5 3v-1l2-2-1 2c1 0 0 2-1 1zm18 0h1l1-1-2 2v-1zm10 0l-1 1 1-1zm-19 2l2-1-2 1zm23-1v1l-1 1c-1-1 0-2 1-2zm-19 3l-1-1 1-1v2zm-6 1c-1-1 1-1 1-1h2l-1-1h2l-1 1v1h-3zm23 0v-1l1-1 1 2h-2c-1 0 0 0 0 0zm4 0h-1 1zm-24 1c-2 1-1-1 0 0zm-7 4h-1s0 1 0 0v-1h-1l1-1 1 1v-1l2 1 2-1v1l-1 1h-2v1l-1-1zm7 0l-2-1h1c1-1 1-1 1 1zm1 0h-1 1zm-3 2h1v-1l1 1v-1 1s-2 0-1 1h-1v1c-1 0-3 0-2-1l-2 1v-1c-1-1-2 0-2-2h4v1h2zm18 1l-1-2 1 2zm6-2c1 0 0 1 0 0zm-15 3l-1 1-1 1h-1v-3l1 1h2zm-4 1h-2c0-1 0 0 0 0h2zm-19-3h0zm3 0v1h-1l1-1zm3 2l1-1-1-1v-1h1v1h1v2 1l-3 1 2-2h-1zm-4 2v-1h1l2-1-1 1v1h-2zm5 3s1-2 1 0c1 0 0-2 1-1v1h-2zm9 0v-1h-2l2-2 1 1v1h1l-2 1zm3-2h-1 1zm-13 2l-1 1 1-1zm-6 3c2 0 0 1 0 0zm3 0l-1-2 1 2zm1-1c-1-1 0-2 1-1l-1 1zm29 6l-2-2c0 1 0 0 0 0-1-1-2-1-1-2 0 0 0 1 0 0v1h2v1h2l-1 2zm-3 2v1h-1v-1h1zm22-1l-1 1-1-1v1l-1-1h-1-1-1-1v-1h3l1 1 1-1 2 1zm-2-1v-1h1l1 1h-2zm5 0h0zm6-1v1l-2-1v-1l2 1zm0-2h1l-1 1h-2l1-1h1zm0-1c1 0 0 2 0 0zm-26-2s0-1 0 0l-1 1h1l-1 2h-1v-2l-1-1h1v-1h1l1 1zm-28-1h0zm29-1h0zm-13 0h0c0 1 0 0 0 0h-1-1-1v-1-1c1 0 0 0 0 0h2l1 1v1zm4-1l-1-1 1 1zm4-1l-1-1-2 2-1-1v-1h1c-1-1 1-1 1-2h2v3zm33-2c1 0 0 2-1 1v-1h1zm-2 1l-2-1h1-1c1-2 1 0 2 1zm-22-1l-2 1h-2-1v-1l-1-2 1 1 1-1 1 1v1s0 1 0 0v-2l1 1s0-1 0 0l2-1v2zm0-2v-2-1 3zm30-2h0zm-5 1h-1 1zm-13 0c-1-1 1 0 0 0zm-1 0l-1-1 1 1zm3-1h2-2zm18 0h-1l1-1v1zm-6-1l-1 1-1-1v-2l1 1v-1l1 1v1zm9-1l-1 1 1-2v1zm-4-1l-1 1v-1h1zm-36 0v1h1v2h-4v-2l3-2v1zm-8 0h2v1c1-2 2 0 2 1v1l-1 1h-1l-1-1h-1c-1 0-2 0-1-1v-1-1-1c1 0 2 0 1 1zm-15-1v-1l2 1h-2zm56-1l-1 1 1-1zm-23 0c-1 1-2 0 0 0zm22-1h0zm-22-1v1l-1-1h1zm-3 0l-1 2-1-1-1-1c0-1 2 1 2-1l1 1zm47-5h-1-1l2-1v1zm-1-1h0zm-36-2h-1v1l-1 1-1 1-1 1c1 1-1 1-1 2l-1 1v-1h-3l-1 1v-1l1-1h-1v-1c-1 0-2 2-3 1l1-1h-1v-1l1 1v-1l2-1v-1h-1l-1-1h1v-1h1v1h3s0 1 0 0l1 1h-1l2 1v-1-2l1-1h1c1 1 2 0 3-1h-1 1v-1h1v1l-1 1v2zm-1-4h0zm41 2h-2 2zm-2-1h-1-1 1l1-1v1zm-7-1l2-1-2 1zm0-2l1-1-1 1zm-4-2v-1l1 1v1h-1v-1zm-1 0l1-1-1 1zm3-1v0zm0 1s0 1 0 0v2h-1l1-2zm8-1h-1v1h-1-1l2 1-1 1h-1c-1-1 1-2 1-2h-2-1v-1 1h-1v-1l1-1 1 1v-1l1 1 1-2 1 1h1-1v1l3-2v1l-1 1h-1zm5-2h-1v1l-1 1-1-1s0 1 0 0h1l1-1v-1l1 1zm-4-2l1-1v-1l1 1h-1v1h-1-1 1zm-4 0h-1c0 1 0 1 0 0v1l-1-1 1-1 1 1zm3-10h0zm-23-3h3v2l-2 2-1 1-1 2-1 1-3 4-1 1v3l-1 1h-1-1l-2 4-1-1v-1l1-2 1-1h-1l-2 2s0-1 0 0v-1h-2v2h-2v2h-1v3h-2 1l-1-1h1v-1-1l-1 1-1-1h1v-1h1l1-2-2 1v-1-1l1-1h1l2-3 1-1 1-2v-1l1-1v-1-1-1h1v1h1v-2 1l-1-1v-1h1l1-1v1l1-1h2l2-2c-1 1 1 1 2 1l-1 1 2-1s0-2 2-1zm-2-1l-1 1 1-1zm-33 1l1-1c1 1 0 1-1 1zm6-3v1h-1l1-1zm3 0h-1l3-1v1h-2zm34-2c0 1 0 0 0 0v2l-1 1h-1v-1l-2 1c1-1 2-1 0-2h2l1-1h1zm-29 0c1-1 1 1 0 0zm3-1l-1 1c-1-1 1-1 1-1zm31 0c-1-1 1-1 0 0zm-4-1v-1l1-1v1l-1 1zm12-3l-1 1 1-1zm-15 1c0-2 2-1 0 0zm-2 0h-1 1zm24 2l1-2v1l-1 1zm5-1v-1 1zm-4-1l1-1-1 1zm-20-1l1-1-1 1zm-10-1h-1 1zm3 0h-1 1zm9 0l-1-1 3-1-2 2zm8-1h2-1-1zm16-3l2-1c1 1 0 1-1 2l-1 1v-1l-2 1h-1l-1 1h-1-1-1l2-1v-1h1v1l2-2v1l2-1 1-2-1 2zm-48 0c0 1 0 2-1 1v-1h1zm8-1l-1 1 1-1zm-4 0h-1l2-1-1 1zm24-1l-1 1v-1h1zm-24-2v1h-1-1l2-1zm29-1l-1 1-1-1h2zm3-1l-2 1c-1-1 2-2 2-1zm-26 0v-1 1zm-8-1l-1-1-1 1-2 1-2 1-1 1h-1c0 1 0 0 0 0v1h-1l-2 1h-1v2l1-1h1l2-1 1-1 3-1v1h2l1-1c1 1-1 1-1 1l-2 1v1l-1 1v-1l-2 1-1-1 1 2h-3v1l-1 1h1l1-1h2v-1h2l1-1v1l-1 2-2 1-2 1-2 1h4l-2 1v1h-2v1h-1-1l-1 1-1 1c1-2 0-1-1-1h-1l-3 1h-2v1h1l-2 1h-1-2l-1 1v-1l-1 1v-1l2-1 1-1 2-1h1l1-1h-1-1l-1 1v-1-1l-2 1v-1-2h-1c-1 0 0 0 0 0l-1-1-1 1h1l1 1h1l-1 1 1 1h-1-1v-1h-1v-1h-2l-1 1v1h-2c-1-1-1 0-1 1h-4l1-1v-1l-1-2s2 0 1-1h-2-1v1h-1-1l1 1v2h-1-1l-2 1-1 1-1-1v1h-2-1s-1 0 0 0v-1l1-1-1 1h-1l-1-1c2 0 1-1 1-1h3l-1-1-1-1 2 1 1-1h1v-1h1l1-1h-1l-1 1-2 1h-1-2l1-1v-1h1l-1-1c-1 0 0 2-2 1v0h1v-2h1v-1h1s1 0 0 0h2l1-1 1-1h1v-1l1-1h2l1-1h1l2-1 1-1 1-1 1 1 1-1v1l-1 1-1 1h-1-1v1l-1 1c0-1-1-1 0 0h-1l-1 1h-1-1l-1 1-1 1h-3v1l1 1-1-1h3v-1 1l1-1h1v-1h2l3-2h2v-1l2-1v1l-1 1-1 1-2 1h-1c0 1 0 0 0 0l-1 1-1 1v1h1l1-1v1l1-1v2h1l2 1-1-1h1v-1-1h1v-1 2h1l1 2 1 1 1-1 1-1-1-1-1-1h-1 1l1-1 2-1v0l1-1 1-1h1v-1h3l-1 2c1 1 2 0 2-1h-1v-1l-1-1h3v2l1-1v1l1-1v-1-1h2v-1l1-2h1v1h2l1-1h1l1-1v1h2l1-1h2l-1-1h1l1 1 1-1h1l1 1v1h1l-1 1zm-28 16c0 2-2 1-3 2v-2h3zm2 1v-1l1 1-1 1v-1zm-19 0l1-1v1h-1zm5-2c0-1 0 0 0 0h-1 1zm10-15l-1 1 1-1zm-2 2l-1 1-1 1v-2h2zm0 3l-1 1 1-1zm0 4h-2s0-2 1-1l1 1zm-4-1v1h-1l1-1zm37-11h1l-1 2-1-2h1zm14 1l5-1-3 2c-2 0-2 1-2-1zm20 1v-1 1zm-7 0v-1h-1 1-1l2-1v1l-1 1zm4-3l-1 2v-2c-1 0 0 0 0 0h1zm-44 0h-1l2-1-1 1zm41-1v-1h1l-1 1zm-79 0v-1h-1 1v-1l1 1-1 1zm84-3c-1-1 0-1 1-1l-1 1zm-3-2l-1 2v1c-1 1-1 0-1-1h-1 1l1-2h1zm2-1v-1 1zm-3-2v0l1 1c0 2-2 2-2 2v-1-1h1v-1s-1 1 0 0c-1 1-1 0 0 0zm-2 0v1l-1-2h1v1zm-3-1l1-1-1 1zm-1-1v-1 1zm-2-1v-1 1h0c2 0 0 2-1 2l-1-1 1-2 1 1zm-6-2l-1 2v-1-2l1 1zm-31 0l1-1s0 2-1 1zm-5-1h1v2c-2 1-1-1-2-2v-1h2l-1 1zm1-1v-2h1l-1 2zm5-3v1-1zm-2 1c0 1-2 1 0 0zm34-1v1h-1l1-1zm-39 0v-2 2zm5 0h-1v-1l1 1zm2-1v-1s0 1 0 0h-1v-1h1v2zm2-1c0-1 2 0 0 0zm31-1v1l-1 1c-1-1 0-2 1-3v1zm-25 0c-1 0 0-2 1-1l-1 1zm1-1c-1-1 1-1 0 0zm18-2s-1 2-2 1l1-2 1 1zm0-1l-1-1 1 1zm-12-6l-1 1v0c1 1 1-1 1-1 0 1 0 0 0 0zm-10 2v-2 1h1l-1 1zm-3-1h-1l1-1h-1v-1-1 1h1v-1h1v2l-1-1v2zm3-2v1l-1-2h1v1zm91 66l-2 1 2-1zm-13 6l1-1-1 1zm1 10h1v1l-1-1zm-1 2l-1 1 1-1zm-46 36l1-1-1 1zm-43 29l1 1-1-1zm-4 19c-2-1-1-2 0 0zm-3 1l1 1-1-1zm1 3c-2 0 0-2 0 0zm-5 5v0zm-9-22c-1 0 0 0 0 0 0-1 0 1 0 0zm-3 10v-1l1 1h-1s-1 0 0 0zm-13 2l-1 1 1-1zm-3 1v-1h1c1 1 0 2-1 1zm16 3c1-1 2 0 1 1l-1-1zm-13 3h1v0h-1zm40 132c1-1 3 1 4 1-2 2-3 1-4-1zm25 19c0-2 2-7 5-5 0 1 3 8-1 6l-2 4-2-5zm12 56l2-2v-2c1-1 4 1 3 2l-2 1c0 1-2 2-3 1zm20 8l-6-1v-1c2-2 7-1 9-1l1 1-3 3-1-1zm6 47c-2-2 1-3 2-3 1 1-2 1-2 3zm2-6c0-2-2 0-2 0l-2-2c0-2 7-1 4 2zm12-37l2 1c0 1 2 1 1 3-1 3-2-2-3-4zm-8 2l3-1 1 2 3 1c-1 2-4 2-5 2v-1c0-2-2-1-2-3zm-23 7l4 1c1 1 0 1-1 3 1-2-2-2-3-4zm12 7c-3-2-6-1-6-5 2 2 5 2 5-1h5c2 0 2-2 0-3l2-1-2-1 1-2v2h2l2 5 4-2h3c1 1 0 2 2 3 2 2 3 1 6 2l-5 1h1l-1 1 1 1c-3 1-4 5-7 6l-5-1c-2-1-1-3-3-3l-1 4c1 1 1-1 2-1 2 0 3 3 5 3-3 3-5 1-8-1l-5-2c-3-2 0-3 2-5zm-8 7c0-1 1-2 2-1l-1 1c3 1 0 4-1 3v-3zm0 5c-1 2-3-2 0-2v2zm42 34v2c-2 2-4 1-6 1l3-2v-2h2l1 1zm30 2h-2c-1 0-2 2-3 1l1-1-1-1c2-4 4-1 7-2h1v-1l2 1v1l1 1c-2 2-2 1-4 1h-2zm100 1c1-1 1 1 2 2l4 1 2 2-1 1-1 1c-3-1-5-5-6-7zm-40 10l4 3-4-3zm53 0l1 2c-1 2-3-1-1-2zm-36 13l-4 2c-1-2 3-3 4-2zm-4 75v-1l-1-1v-1l1-1v-1l4 3 1 1 1-1 2 1-1 1h1c-2 3-3 0-5 0l1 3-4-3zm2 6l1-2c1 0 4 2 3 4 0-1-4 0-4-2zm15 0h-3l1 1c-1 1 0 3 1 4-1 1-2-2-4-3-1 0-3-1-3-3 0 0 3-2 3 0 2-1 4-1 5 1zm1-10c2-1 3 2 5 2l-1 1 3 1c1 1 1 5-2 3 0 2-1 1-2 1s-3 1-4-1c2 0 3 0 1-1v-2c2-2 3 2 5 2-1-4-6-3-7-4l1-1v-1l2-1-1 1zm-26-3h-1v1c-1 1-2 0-2-1l1-1c1-1 1 0 2 1zm22-2l-2-2c1-2 4 2 2 2zm-9-5c1-1 2 0 3 1-1 1-3 1-3-1zm24 0h-2l-1 1c-4-1 2-4 3-1zm-34-1l-1 1 1 1 1-2 3 4-1 1v1l-3-2h-1c-2-2-5-5-6-2-2-1 2-2-1-3l1-1 3-1v-1c1 0 4 2 4 4zm30-5l-1 1v1c-2 3-6 0-8-2l5 1-1-1 1-1v-1l4 2zm-41-4c2 0 5 2 6 4-1 1-2 0-3-1h-3v-2c-1 0-3 2-4 1l1-2-2-2c1 1 2-1 3-1l2 1c2 1 1 2 0 2zm29-1c-1 2-6 0-5-1 0-3 4 1 5 1zm-7-2c0-1-3 0-3-2 1-1 4 1 3 2zm-14-1c-1 2-3 0-4-1 1-1 3 1 4 1zm-14-2l-1 2c-1-1-3-2-2-3l-1 1c-2-4 5-2 4 0zm13-2c-1 1-3 0-4-1 1 0 5 0 4 1zm-16-3c3 1-2 2-1 0h1zm121-11h-1l1 1c-2 2-4 0-6 1-1 0-3 2-5 1l1-1v-1h1v-2h1v-1c3 2 5 0 8 2zm-42-7h2c-1 2-2 2-4 0 0 2 0 3-2 2v-3l4-1v2zm-45-10c2-1 0-2 0-4l4 4-1 1 1 1c0 2-3 1-4 0l1-1-1-1zm-11 1c1-1 4 2 4 3s-2 2-3 0c0-2 1-2-1-3zm-9 6c-2-1-1-4 1-4 0 0 1 5-1 4zm34 7c-1-2 1-3 1-4l-3-2 2-2h-1l1-1v-1l3 2c0-3-4-7-5-11l8 6-4-6h1l1-1 5 4 1 2 2 3c-1 2-4 0-5 0l3 4h2v2l-2 3-1 1-1 2h-4c2-3-3-2-4-1zm20 0l3-1c0 1-2 3-3 1zm9-1c2 3-2 2-4 4l4-4zm-10 2l-3 2c-1-1 2-4 3-2zm11 4l-4 1c1 0 2-2 4-1zm20 1c2-1 0-3-1-2l1-2c-1-1-3 2-4 1v-1c-1-1-5 1-3-2l-3-1 1-1-3-1c2-1 4 0 6 1h5l-1 1c2 1 5-2 7 0v1h4l1 1v1h1l-4 2-1-1-1 1c-2-3-4 1-1 1v2h-1l-1 1-2-2zm93 21c-1 2-4 3-5 2l2-1h-2l3-3 2 2zm-5-3l-4 1c0-3 4-3 4-1zm-26-9c-1-3 6-4 5-1-1 2-4 1-5 1zm15 3l-3 1c1-1 2-3 3-1zm-50 5l-2-1c2-2 2-1 3 0l3 1c1 1 2 3 3 2-3 1-4 3-5 5-1-1 1-3-1-4l-1 1v-4zm-8 5h4l-2 3-2-3zm78 8l-3 2c0-1 2-3 3-2zm-74 4c2-2 4 1 2 2v-1l-2-1zm-18 1c2 0 4 3 2 5l-2-5zm28 11c-1-1 0-4 1-4l1 1c1 1-1 1-1 2 2-1 0 2-1 1zm-26 8c-2-3 4-4 0 0zm-2 8c1 1 3 3 2 5l-2-5zm74 17l-1 4c-1 0-2-3 1-4zm-35 26c1 1 2 2 0 3v-3zm-21 6c-2-1 0-3 1-3 2 1 0 3-1 3zm22 11l1-4 4-3-2 2c2 1 1 1 0 3-1 1-1 4-3 2zm41 9l-1 1-1-9 1 1c2-1 0-2-1-4l1-2c-1-2-2-2 0-4l1 2v1h1c0 1 1 3 2 1l1 1 1-1 1 5c-1 1-3 2-2 3l2 2-2 3c1-4-4-1-1 0-1 1-2 1-1 2-2 0-1-1-2-2zm1 5v1c-1 2-3-2 0-1zm-4 2l1-1 1 2c1 1 3 0 3-1v-3s1 2 2 1h1c-2 3-4 9-7 8l-1-6zm-52 6c-1-1 2-1 1-2l2 1c-1 1 1 1 1 2l-4-1zm4 2c2-2 6-1 5 1l-2 1-3-2zm48 2h4l1 1c-1 4-6 2-5-1zm4 7c1 1-1 2-2 2-1-1 1-2 2-2zm-6 8c3 2-4 2-2 0h2zm-24 3v-4c1-2 2 3 3 4h-3zm8 7l3 3h-3v-3zm-58 3c2 0 4 2 5 3-2 2-5-1-5-3zm-34 6l1 1v-1l1-2v3l1 5c-1 3-6 2-5-1 0-1-2-8 2-5zm-11 7l1-1h-1l1-1-1-1 3-2 2 1v-1l1 1 1 1 1-2v2h-1v3c1 3-5 3-7 0zm153 29c1 0 2 2 3 1 0 2-3 1-3-1zm-117 30c-1 2-3 2-4 2v-1h-1c1-3 4 0 5-1zm-8-1c0 2-4 2-4 1l3-3c0 1 2 1 1 2zm64-8l3 3c-1 1-3-2-3-3zm-84 5l4-4 1 1-1 1c1 0 2-1 3 1v1h-2c-1 0-3 2-5 0zm5 5l1-1v-1c2-2 2 3 5 0h-2v-2h1c3-5 3 2 7-1 0 3-4 2-6 3l2 1v2c-1 2-2 0-4 2l-4-3zm25 3l1-3 1 1c3 1-1 3-2 2zm18 3h-5 5zm2-2l2 2c-1 2-5 0-2-2zm-59 3l4 2-4-2zm63 1l-1-2c1-1 3 0 4 1s2 2 0 2l-3-1zm12 5v-2c-1-1-3 1-4 1-1-1 0-1 1-2h-2v-2c2-1 2 1 3 1h2c1 0 3 0 4 2v1c0 2-3 2-4 1zm14-1l2 2c-2 1-4 0-2-2zm11 7c0-1 3-2 3 0h-3zm-68 12c2 1 2 2 1 3 0-1-2-2-1-3zm142 1c1 1 3 0 2 2h-1v1c-2 1-2-2-1-3zm4 6v-1c2 0 0 9 4 5v5c-2 2-9-5-3-3 1-3-3-3-5-4 1-2 3 0 3-2h1zm-14 1l6 1h-2c0 2-2 1-4-1zm-36 3c2-4 4 3 0 0zm2 3l2-2 1 1c-1 0-2 2-3 1zm35-2c1-1 1 1 2 1s7-2 5 2c0 1-3-1-3 2-1-1-6-3-4-5zm17 8c-1 1-3 1-3-1l3 1zm-8 0l-1 2c-4-2 0-5 1-2zm8 4c3 2-2 2-3 1 0-1 2-2 3-1zm-61 3c-1-2 1-1 2-1 1 1-2 2-2 1zm17 4c2 0 1 3 0 3v-3zm40 19c2 3-4 4 0 0zm3-1c4-1 4 3 0 0zm3-11c-1 1-2-1-3-1 2-2 4 1 3 1zm-64-1s2-2 3-1l-2 3-1-2zm51 3l2-2c0 1 2 2 2 0 1 2-3 3-4 2zm18 0c2 0 3 4 1 5v-2s-3-3-1-3zm-8 4l2-1c2 0-1 3-2 1zm-43-1c0-2 1 1 2 0 1-5 6 1 3 4l-5-4zm35 4l2-3c1 2-1 4-2 3zm16-1c3 0 3 4 3 6l-1-1-2 1c-2-2 0-4 0-6zm-45 7v-3l-1-1v-1c3-2 4 6 1 5zm47 11h1c0 2 1 4-1 6l-1-1-1 1-1-5 1-3c0-2-1-3 1-4h2c1 2 0 4-1 6zm-49-8c0-2 4-3 6-1 1 1 0 3-1 4 0-3-6-1-5-3zm34 5l-2-2c2-1 3 0 2 2zm-130 3c1 0 3 0 3 2l-3-2zm102 12l1-1c-1-1-3 1-5-1l7-2-1-1c-2-1-7-2-3-4l2-1c0-1-3-3-2-4l2-1h-2c3-5 2 3 3 4l1 1c2 2 1 5 1 6 2-1 2 6 0 6-1 1-3-3-4-2zm1 4c1-1 6-2 4 1-1-2-3 0-4-1zm43 9c-3-1-3-3-1-5 0 2 2 3 1 5zm-15-2c-2-1 1-2 2-3 1 2-2 4-2 3zm-24-2c1 2 0 4-3 6-2-2 1-5 3-6zm39 7v3-3zm-46 10l-1-2-1-2c0-2 5-1 5 0 2 1-2 6-3 4zm-3 3h4c0 2-4 4-4 0zm-3 5c1 0 4-1 4 1l-2 2-2-3z" class="st1"/><path d="M559 1026l-1 1h2l-1-1zM272 1015v-1h-1-1v-1h-1l2-5c0-1-2-2-1-3h-1v-1h-1c2-2 4-3 4-6l-9 6 1-4c3-4 11-7 8-11l1-1-1-1 2-5-1-1 2-3c-3-1-4 3-6 4l-2 1c-2 1-3 5-4 4 1 1-1 1-3 4 0 1 0 3-2 3v-1l-1 1-3 1 1-1c-2-1-1 2-2 2l-2 1-5 5-1 2-2 1-2 5h-2c-24 12-3 34 2 50 3 11 5 22 11 31a236 236 0 0 0 80 58c21 9 46 11 69 10 22-1 43-4 63-12s37-22 54-36c13-11 26-23 30-40 3-10 2-21 6-31 5-11 2-23-4-33l-2-2v-1l-2-3-2-4-3-3h2c1-3-2-5-4-8l2 1-1-3-1-1 1-1c-1-3-7 0-10 0l-2-1-5 1-6-3-3-2c-2-1-2-4-4-6l-4-6c-2-5 2-10-3-16l-2-2-2 1-6-3-1 1-5 1-2-2h-4l-2-1h-1l-1-1-2 1-1-1-1 1-2-2h-3l-2-3c-1 1 0 2 1 3-2-1-4 0-5-2l-1 2-4-4c-1 1 2 3 1 4-6-6-11-15-16-21l14 20c-1 1-2 0-3-1 0 1 2 2 0 3l-1-2v2l-2 2-2-3h-2v0h-1l-1 1-4-5 2 4v1l-1-1 2 6-2 1-2-1v2c-4-4-5-8-8-12l6 12-2-1-2 1-2-4v3c-3-1-5-3-7-6-1 1 1 2 1 2-2 1-2-1-3-1-1-1-3-1-3-3l-1 1-1-1 1-1v-1c0-1-1-5-2-4h-2c-1-2-1-5-4-8v-2l-3-6-2-6-2-2c-1-3-1-6-3-8l-3-5-1 1-1-1 2 3-1-2c3 2 3 5 4 7h-1v1c-1 1 2 4 3 5h1l1 2h-1v1l2 4h1l2 4h-1v1l3 6h1l1 2h-1c-1 2 2 5 1 7l-3-4v4l-3-9v1h-1l-1 1-1-1 1 3h-1l-1 1v-1l-1 2c-2-2-1-4-3-7-1 2 1 4 1 5l-1 1c-1 2-7 1-5-2v-1c2-1 0-3 0-3l-1-1h-1c-1-1 0-3-2-4 0 2 2 4 1 6v2l1-1c0 2 2 4 0 6l2 2-1 1h1v2l-2-1-1 2c-2-2-1-4-2-7v8c-1-1-2-3-3-1l-1-3-1 3c-2 0-2-3-2-5-1 0 1 4-1 4-2 1-1-4-2-4-1-1 0 3-1 3l-1-4-1-4h-2l-1-5c-1 4 3 10 0 14l-1-1-2 1-2 1-1-4c0 1 0 6-2 4-3 4-4-2-3-4h1c1-1-1-3 1-3l1 1 2-1v2h1c2 1 3 0 3-2h-1c-1-1 0-5-2-3h-1s1-2-1-2h-2l-1-9h-1l-1-3h-1c0-2-2-8-1-9 0 0 3 1 2 2 1-2-1-5-2-3v-2l1 1v-4c0 1-2 2-1 3l-1-4c-2 2 1 6 0 8h-1l-1-1-1 1-1-4h-1v-1h-1c0-1 0-4-2-4l-1-1v1l-1 2v1l-1 1-2-3-1 4c-1-2-3-1-4-4l1-1h-1c1-2-1-4-1-6-2 1-1 3-2 4v1l-2-2-3 4-1 3c-1 1-3 1-1 3l1-1c0 2 3 5 0 8h-1v1l-1 1c-1-1-1-2 1-3-4-1 0-5-2-7v-1h-1l1-8v-7l-2 15-2-4c-2 2 1 3 0 4v1l-1 1v2l-1-1-1 1v-3l-2 5h-1v-1l-1 1-1-1-1 1c1-2-1-2-1-3v-5l-2 3v-2c-1 2 0 5-3 6h-1l1-7 5-5 1-1c1-2 4-4 2-6l-1 3c-1 0 0-2-1-1l-1-1v1c-2-1-1-3 0-4h1l1-1c1-1 2-3 1-5l-1-1h-1c1-1 2-4 0-4l-1-1h-1c-1-1 0 1-1 1 1-2 0-2-1-4 0-3 3-5 0-7l-1 2v-1l-1 3-1-1-1 1v-1h-1v-1c-1 0-2 7-3 6v-1l-1-1v-1l-2 7h-1l1 1v3l2-2c1 2-1 3-1 5l2 3-1 2-1 3v-1c-3 0 0 6 1 2h1l1-1 1-1-1 6-2 2-1 2v-3l-2-2c0 2-3 5 0 6-2 0-1 3-3 3 1 1-1 4-1 6l-2-2h-1v-2h-1l-2 4v5l-1 2c-1 3 0 6-2 8 2 1 1-2 2-2 1 2-2 5-1 8l2 2c1-3-1-5 1-7v1c2-3 1-5 2-7v1l1-3c2 1 3-1 3-3l1 1h1v1l3-4 1-1h-1c1-1 1-2 2-1 1-2 0-5 2-6 0-1 2 0 2-2v3l-1 6-1 1-1 5c0 1 0 4-1 3-2 0 0-2 0-2-3 2-1 5-3 7v-2l-4 5 1 1-4 5-1 2-1 1-1 2h2l-1 2-1-1c-3 3 0 3 0 5 3-1 4-3 5-5l3 2v3l-2 1c0 1 1 3-1 3v-1h-1c-1 0-5 0-3 2v1l1 1c-4 4 0 2 2 2v1h3c1-1 3-2 3 0l-3 4h-2l-1 2-4 2v1l-4 2v-1l-1 1c-1 2-3 2-5 3h1l1 2v1l1 1c-1 1-3 1-2 3l2-2-2 6 2 1-3 3 1 1-1 1c0 1 2 3 0 4l-1-2c-2 2-2 6-3 9l1-1c1 3-4 3-2 6l1-3v3l-2 1c2 0 1 4-1 6zm129-77c1 0 2 2 1 3l-1-3zm-62-30v4c-1-2-2-3 0-4zm6 4l2 1v3c-1 1-2-3-2-4zm-20 0v-2c2 0 1 3 0 2zm-24-4c0-2 1-1 1-1 2 2-2 2-1 1zm53 15v1h1l1 2v-2l1 4 1 3-1-1-1-1h-1c-2 0-3-3-2-5h1l-1-1h1zm-21 9h-1v-3h1c2 0 2 1 1 3l-1-1v1zm18-8v-3 3zm-39-10c1 0-1 2 1 3v1h1v1l-1 1h-1c-1-2-1 3-1 3h-1l2-9zm-4 13v-1h-1v-5c-1-1-2-1-1-3l2 3v-1l3 6 1 1 1-1 1 2h-1l-2 2-1-1-1 1-1-3zm-7 10c1-1 2-2 3-1v1l1-1v3l-5 1c-1-1 1-4 1-3zm-6 3l3-1c0 2-5 3-6 4 0-2 2-3 3-3zm0 2c3 3-3 3 0 0zm3-1l3 3c-2-1-3 2-4 2-2-1 1-3 1-5zm9 16h1v-1l1-1c1 2 3 0 3-2l-1-3 1-4c-1-3-2 0-3 2l-1-1h-1v-2c0-1 2-2 1-4v-1c0-3 3-6-1-7l3-1v4l1 1v3l2-1c-1 4 2 7 3 12l2-2 1 1c0-2 2-2 1-4-1 2-2-2-3-3v-3c-1-3-2-10-1-13h2v1l1-4v10l1 1-1 2 1 4 2 2v2c1 1 2 0 2 2s1 1 1 0c1-2-2-3-1-5 1 2 2 1 3 1 1 1 1 4 3 2 2-1 0-6-1-8 2 0 2 2 4 3v-2c1 2 2 4 0 4 2 1 3 2 3 4 2-1 0-2 2-3l1 1v-2s-1-2 1-3l2 1-1 3c2 1 3-2 3-3s-2-4-1-5h1v-1-3c2 0 1 2 1 4l2 4 1 3 3-2 1 1 1-1c1 1 1 2 2 1l1 1v-1l1-2 1 2v-2h2c0 2 1 7-1 6l-1-2c0 4-7 4-6-1 0 1 1 4-1 5h-3l-1-1c-2 0-2 1-3 2v-1l-1 1h-3l-3 3h-3c-2 0-4 4-6 1-1 2-4 2-6 2l-3 2-2-1-5 3c-2 1-6 2-5-1zm6-24v5c0-1-2-4 0-3v-2zm11 2c3 2 1 4 0 7 0-3-3-3-2-6h1l-1-1 1-1 1 1zm155 43c1-1 2 3 3 4-2 0-4-4-3-4zm-1 1l1 3c-1 0-3-2-1-3zm-184 9l-1 2 1-2zm-33 18l-2 3c-1-1 2-2 2-3zm106-1l1 4c-2-1-2-3-1-4zm-4 1c2 1 2 3 0 4v-4zm-78 3c1 2 0 4-1 5l1-1v-4zm-10 3l-1 5 1-5zm-17 9c-1 3-4 3-5 4 0-1 3-5 5-4zM314 683v-3c-2 0-1 2 0 3zM250 168c0 1 1 0 0 0zM112 647l1 5-1-5zM282 526c2 1-1 2 0 2 2-1 3 0 5-2h-4l2-1-3 1zM290 527c-1 2-3 1-4 2l-1 1c0 1 0 0 0 0l-3 2h5l3-2c2-1 3 0 3-2h-3v-1zM278 511h-1l-5 2c-1 2-3 2-5 3l-11 5c1 1 3 0 4-1l2 1 7-3 4-3c1-1 6-3 5-4zM282 520c-1-1-1 2-2 3 2 0 4-3 2-3z" class="st1"/><path d="M279 517c-3 0-5 2-9 4-2 2-5 1-6 2l-1 1-4 1h-1v1l-4-2h-1c-2-1-3-3-5-3v2h2c1 1 2 3 4 3h1c1 0 3 3 5 2l1 1v-1c2 1 3 5 5 2l1-1c3 0 4-3 7-3v1l5-3c0-2-3 0-4 1 0-2-2 0-4 0v-2l3-3c2-1 4-1 5-3z" class="st1"/><path d="M268 531h-2c1 2 4 2 6 3 2-3-4-2-5-2l1-1zM276 537l5 2c-1-2-4-5-5-2zM299 538c1 1 4-1 4-2l-4 2zM255 540c0-2-5-4-7-4l7 4zM296 532l-5 2c1-1 3 1 3 1 1 0 2-1 2-3zM314 539c-1-2-3-1-4-1l-1-2-2 2h3s1 2 2 0l2 1zM214 506l13 7h3c0-2-3-2-4-3l-9-5-3 1zM195 517c-1-1-2-3-3-2 1 1 2 3 3 2zM182 511l-5-4c0 2 3 4 5 4zM141 519v-1 1c1 1 5-2 4-4l-2 1v-1s0 2-2 2l-1-1v1h1l-1 2h1zM152 512h-1c2 2 2-2 0-3-1 1 1 3 1 3zM259 517l4-3 5-2-12 6 3-1zM235 516c1 0 3 2 3 0l-7-2c1 2 2 1 4 2zM261 510l-3 2 3-2zM278 503c-2 1-5 2-5 4 2-1 5-2 5-4zM187 516l-1-1 1-1-1-1-3-3v2h-1c2 1 3 4 5 4zM311 592c-1 2 0 3 2 2-1-1-2 0-2-2zM303 589c-3 1 2 3 1 0h-1zM445 612l-1 1s2 0 1 1l-1 1 3 2 2-3c0-2-2-1-3-1l-1-1zM181 572c1-1-1-4-3-4l3 4zM420 586c-7 1-15-4-22-4l1 1-1 1h-1c-1 2 1 2 2 3 2 0 2 2 3 2 1 1 5 1 7 3l-1 1v1h-1c1 2 3 1 4 2v2h4l-1-1v-2l1-2c1 1 0 2 2 3l-1 1v1l-1 1c1 1 6 4 4 5l4 2-1-2h3l-4-3 1-1v-1-1c-1-1 0-2 2-3h1v-1c2-1 4 2 3 2l-4 2 4 5v-1c2 2 4-2 6 1h-3l1 2s-1-1-2 1l3 1c0-1-2-1 0-2 0 2 2 1 3 1l6 2c-1-2-1-5 1-3l5 2 1 2h-1l5 4h4c1-2 1-4-2-5v-1h3c-2-2-6-2-8-3l2-1h1v-1l9 2h1c-4-3-9-3-13-6l1 1h-3v-1l-1 1c-3-3-7 0-7-4h1v-1l10 2-7-3h-1l-1-1-1 1c-2-1-3-2-2-3l-3-1c3 2 1 2-1 3l2 1v2c-3 0-5 0-5-3h2l-1-1-5-1-1-1h-2l-1-1h-5l1-2zm18 15l-1 1c3 2 1 3 4 4-2 1-5-1-7-2l2-2v-1h2zm4-2c0 2-2 0-3 0h3zm-15-7c-4 1-2-4 0 0zm-13-2l-1 1v1l-5-2c2 1 3-2 4-2l2 2zM465 605c1 1 2 2 4 1l-4-1zM268 727c2 0 1-5 0-4v4zM301 601l-3-2c-1 2 2 2 3 2zM286 719l2 3 2 1c3 1 4 4 6 3l-10-10h-3l3 3zM322 604h3c-1-2-2-1-3 0zM406 579l3 1c1-1-2-2-3-1zM307 565c1 2 3 0 4 1-1-1-3-2-4-1zM283 540a202 202 0 0 0 22 13c5 1 12 5 19 8l9 4 9 3c1 0 1-2 3-1v2l3 1 2 1 2-1 1 2 3 2h3l2 2 6 3 5 2 2 1 1 1 1 1 8 4 1 1c2 2 6 3 7 3l2 2 4 3 3 3 2 1 9 7c6 4 13 10 17 15 0 0 2 3 3 2l-1-3-2-1-1-2-3-1-1-2-3-5-3-3-3-2-2-2-3-1-5-4-6-4-3-3-4-2-8-5-7-3-2-2c-1 0-3 0-5-2l-1-1-8-3-5-3-7-2-1-2-4-1-5-2c-1 1-1 2-2 1l-1-2-6-1-4-3-4-1-6-4-1 1-1-1-6-3-3-2h-2l-2-2s0 1 0 0l-3-2-2 1-2-2c-1-1-1-2-3-2h-4c-2-1-3-4-4-2zM313 564l-4-2c0 1 3 3 4 2zM301 560l2 2 3-1c0-2-3-1-5-1zM348 563l-3-1c1 1 2 2 3 1zM261 549l-5-4c2 2 3 4 5 4zM415 583v-2c0-2 0-1-1-1-4-1-3 1-1 1l-1 2h3zM303 543c0-2-2 0-3 0h3zM312 540c-2-1-2 2-1 3 1 0 3-2 1-3zM318 598c-2 1 0 2 1 3 1-2-1-2-1-3zM159 533l3 2 2 2c1-1-1-2-3-3l-2-4-4-3c0 2 2 3 3 4l1 2zM187 537l2 3-2-3zM110 500l1-1c0-2-5-3-2-4l4 1c-1-2-3-2-4-2l-2 1-1-1v3c2 0 2 2 2 4l1 1 1-2z" class="st1"/><path d="M114 490l-1 2c1 1 2 4 0 5l2-1c1-1 1-3 2-1 1 0 3 1 2 2l2 2 2-1-2-1 1-2-1-2c2 0 3-2 1-4h-2l-4-2c2 0 0-2 2-3h-1c1-1 3-4 5-4v-2l-3 2c-2-1-1-3-2-4l3-2 1 2 3-2s-1-2-2-1l3-4c-3 2-4 0-6-2l2-1v1l4-1 1-2-5-1v-2l-2-3-3-3c-2-1-6-8-7-4l-2-2v7c-2-1-3-4-4-6 0 2 2 4 0 5l-2-1v4a215 215 0 0 1 2 13l1 2 1-1c-2 2 2 3 0 5l-1-2 1 6 1 2-1 1v3l5 2-1 2c3 3 2-3 5-1zm-6-29c3-1 2 4 0 0zm-3 3v3-3zm4 12c-4-1 1-5 0 0zm1 2c-2-1 2-4 2-5v2h1l3 1-1 3c-2 1-4-2-3-3l-2 2zm4 8l1 1 1 1 1-1v3l-1 3v-1l-1-1c-2-1-1-3-1-5zM128 449l-3 2c-1 0-2-2-3-1v3c-1-3-5-2-3 0l2 1c2 1 0 5 3 5v-1l1-1h1c-1-2 0-3 1-5 0 0 2 1 2-1 2 1 3 5 3 7-1-2-3-1-3 1l1-1 1 1h1l-1 4h2l2-7c1 0 3 0 2-1 1 2 2-1 3-1l4 2 2 3 2-6 5-9c-2-1-2-3-5-4l-1 2-4-3-1 2c0 1-3 1 0 3l1-3c2-1 3 2 1 3 3 0 3 3 1 4-1-1-2-2-4-1l-1-2-2 2 2 2v-2c-1 2 1 1 1 2 1 2-1 5-3 5l-1-3-1 5c-2-3-1-5 0-8-1 2-2 1-3 0l3-1-1-5-2 6-1-1c-1-2-1-4 1-4h1v-2-3l-5 5 1-2-1-3 1-2h-2c1 3-1 8-5 7-1 4 3 5 5 6zm7 5l-2 2c-1-1 0-3 2-2zM110 517v-2 2zM113 513v1l3-5-2-1s1-2-1-2c0 0-4 2-3-1l1-1c-2 1-2 0-3-1l-1 1-1-1v9l1 1v-1c4 1-1 3 2 4 1-1 1-6 4-3zm0-6c3 0-2 4-2 1l2-1zm-4 4v-2h-1c0-2 3-2 3-1v2h1l-3 1zM113 500h3c-1-2-3-1-3 0zM137 472c0-2-1-3-2-2l-2 6 3 2v1l1-2-1-2 1-3s0 1 0 0zM117 505v1l1-2-1 1zM129 491l-4-2 1 4h2l1-2z" class="st1"/><path d="M138 457v1c0 1-2 3-1 4 1 2 4 0 4-2l-1 1-2-4zM247 521l-6-3c0 2 4 4 6 3zM176 524c0-1-3-3-1-3h-2c1 1 1 4 3 3zM141 525c3-2 0-4-2-4 1 1 3 3 2 4zM207 534l4 5c0-2-3-4-4-5zM138 518c-1 1 0 2 1 2l1-1c-1 1-2 0-2-1z" class="st1"/><path d="M189 529l-1 1c-1 1 1 3 1 4l-2-1 2 3h2v1l1-1c0 2 2 4 3 4l-1-1 1-1 1-1s1-1 3 1v1l2 2c1 1 2 5 4 6h-2v1c-1 0-2-2-3-1 1 5 5 11 10 16 1 1 3 2 2 3s-3-2-3-1v4l-1 1-2 2h-1v1h-1l-1 1-7-8c-1 2 1 3 1 5 1 1 2-1 3 1l-1 1c0 2 4 4 1 5l2 3v1h1c0 3 5 1 3-1h1l1-1c3 1 5 4 5 6-3 0-1 4 1 5 1-1-1-1 1-2l1 1c1-2 0-2-2-3l1-2 1-1 1-1c2 1 1 3 2 4h-1l1 1c2 3 8 7 3 7h-1l-1 1c-3 2 1 5 1 6l-2 1c-1 1 1 2 1 3l1 4c-3 0-3-3-4-5l-8-18c-3 2-4-4-7-2 1 2 5 4 3 6l-1-1-1 1-2-1 1-1-1-1-2-4 1-1-4-5 1-1v-1c-1-4-5-8-8-10v2h-1l-1 1c-1-1-2-4-4-3 0 3 4 8 8 11l-2-5 1-1h1c1-1 1 1 2 2h-1v1l2 6c1 1 3 2 1 3h-1l-1 1c-1-1-1-5-3-5v2h-1l-1 1-2-1-1-3c-1 0-1 2-2 1l-2-3c-2 3 3 7 5 8v-1c0 2 2 3 3 4v2l4 4 1 2c0 1 2 1 2 3 1 1-3 2-1 5h-3l-1-1c-2 2-1 6 1 8 1 0 3-1 3 1 2-1 0-2 0-3h1l1-1 1 1v1h1l2 4 2 4 3 4c1 2 2 4 5 6 1 1 2 1 2 3h-1l-1 1-2 1 6 10 2 4 2 3 2-1c-2 2 2 3 2 2 0 0-3-7-5-8-1-1-2-1-2-3-1 1-2-1-2-2 1 2 2-1 1-1l1-1v-1c3-1 5 4 6 6h-1l2 3c1 0 0-2 1-1v3c3-2 4 4 5 4 3 1 0-3 0-5h1l1-1c2-1 3-3 2-5l-3-3-2-1-1-3h1v-1c3 2 7 5 5 7 1-2 5-1 5-2 0-2-6-5-6-8v-1l1-1 4 5 5 4c1-2 2-1 3-2l-5-5 1-1v-1c3-1 5 5 7 6l2-1c2 1 2 4 4 2l-3-3-7-7-1-3c-1-1-4-3-4-5l2 1-1-2 13 13 4 4c1 0 6 1 5-2l-3-2-3-2-2-3-3-2-2-2-3-5h1l1-1 3 3 4 4 2 2c2 1 4 5 6 5l2-2-3-3-4-1v-2l-4-4 2-1v-1l6 6h2v2l3 2 1 2 3-4-4-3-8-8h1v-1c4 2 9 6 11 10 1-1 4 1 4-2 0-2-3 1-4 0l2-1-3-7 1 1 1-1 1 2c2-2 3 0 4 0 0-2-3-3-3-5h2v-1c3 1 6 5 10 1l-2-1 1-1v-1c2 1 7 4 6-1l1-1v-1l3 1s-1 2 1 2l1-4v-1l1-1 3 1 4-2c-3 0-6-1-9-4v-2c1 0 2 1 3-1h-1l1-1v-1c1 1 2 2 3 0l1-1v-1l1-1v-1c5-1-3-7-3-2h-1c-3-1-5-5-8-3h-1v1c-1-1-3-3-5-2l1 2h-2c-2-1-4-6-8-5l1 1h-1l-1 1-3-3h1v-2c1 0 2 2 2 0h1l1-1c1 2 3 1 4 2v-2h2c-1-2-4-3-4-5h1s3 3 3 1v-1h2c-3-2-5-5-8-5v1c-3 0 2 3 1 4-4-1-9-9-14-10l-1 1c-1 1-1-3-2-2-3 1 2 2 2 4-1 2-6-4-6-5l-4-3h-2l-3-3-1-1h-1c0-1-3-4-4-3h-2l-3-2v-2h1c-1-2-4-2-6-5h1v-1c2-1-2-3-3-3h-1l-1 1c-1 0-2-2-3-1l9 7-1 1 1 1h-4l-1 1v1l-1 1h-1v1l-3-3h1v-1l1-1-7-5 2 3h-1v1l5 6-1 1v1h-1l3 5h-1l-1 1-19-20c0 3 3 3 4 5l13 16c1 1 3 3 3 5l-1-1-1 1-13-15c-1 3 4 6 6 10h-1l-1 1c-3-2-4-7-7-7l4 7h-1l-1 1-10-12 1-1v-1c1-1-1-3 1-2v-1h1v-1l1-2-7-7v2h-1v1c-3-2-4-6-7-6v2l-1 1c-2-1-2-4-4-4 0 2 3 3 3 5v2c1-1 2 0 2 1zm39 110l-2 1v1l-2-2 1-1h1l2 1zm22-69c2 1 0 1 0 1v1c-2-1-2-3 0-2zm-38 9v-1l-1-1c1-1-1-2-1-3v-1l1-1c1 1 2 0 2 2v2h3c1 2 1 3-1 5h-1l-1 1c-1 0-2-1-1-3zm10 21h2l3 4-1 1h-1c-2-1-3-3-3-5zm-25-1c1 1 2 2 1 3-1-1-2-2-1-3zm11 18h1l1-1c2 1 4 4 4 6l-1 1-1 1c-2-3-5-4-4-7zm31 5h-2v1l-6-6 1-1 1-1 6 7zm-15-7l-1 1-3-4c3-1 2 2 4 3zm-8 0h-2c-3-1-3-6-5-8-3 1-3 4-1 6h-2v1l-5-5v-1-2l1-1h1c0 3 5 5 3 0h1l-1-1c2-2-2-4-1-7h1l1-1 1 2 2 1v1c-1 3 2 6 4 9h-1c1 3 4 4 3 6zm19-7c0 1 2-1 2 1h-1v1c-2 1-2-1-3-3s-4-5-3-7l2 1c1-1-1-2 1-2 0 3 3 6 2 9zm30-7h-1l-1 1c-2-2-5-5-4-8l1 1 1-1c1 4 7 5 4 7zm0-6l-2-1v-1l-1-1v-1h1v-2c2 0 3 2 4 3l3 1-3 1h-1l-1 1zm-9-3h1l1-1-1 1 1 2c-1 1-3 0-2-2zm23 0l-4 2-1-1v1l-3-2 1-1v-1l4 2h3zm10-2l-1 1v1s-2 0-1-2v-1l2 1zm-48 3l-1-2-3 2c-1-1 1-3 2-2l-1-3h1v-1c2 1 4 4 2 6zm-6-2l-2 1 1 1c-3 1-2-5-5-6 0 2-2 2-3 3 0 1 2 2 0 3l2 1c-1 1-2-1-3-2h-2s1-2-1-2l1-1v-1-2h2c0 2 3 2 3 0h1l1-1h2l3 6zm23-6l-1-2c2-1 2 2 1 2zm-8-2c-1-1-2-3-1-4v2c1 1 3 1 1 2zm5-5l1 4c-2-1-3-5-1-4zm-23 0c0-2-3-4 0-6 1 2 2 4 0 6zm19-3s-2-3 0-3c1 1 2 3 0 3zm20-3l-1 1-3-3h1l1-1c2 0 2 2 2 3zm-35-29c1 0 5 2 4 3l-4-3zm-4 7c2-1 2 2 4 2l-1 1-3-3zm-21 11h1l1-1c1 3 4 6 2 8l-4-7zm15 5c2-2 3 1 1 2 1-1 0-1-1-2zm30 2h-1l-1 1-2-3 1-1c1 0 3 1 3 3zm-12-7h1l2 5s2 1 0 2c-1-3-6-5-7-8h2l-1-1c2-2 2 1 3 2zm-12 0l-1-1-1 2-1-2v-1l1-1c1 0 3 2 2 3zm-12-4l1-1 1-1c5 2 0 6-2 2zM137 535l2 2c1-2-4-5-3-1 0-1 0 0 0 0l1-1zM151 536c3-1-2-4-1-5l-2 1c-1 2 3 2 3 4z" class="st1"/></svg>