<?xml version="1.0" encoding="utf-8"?>
<!-- Generator: Adobe Illustrator 21.1.0, SVG Export Plug-In . SVG Version: 6.00 Build 0)  -->
<svg version="1.1" id="Isolation_Mode" xmlns="http://www.w3.org/2000/svg" xmlns:xlink="http://www.w3.org/1999/xlink" x="0px"
	 y="0px" viewBox="0 0 506.6 435.8" width="570px" height="485px" style="enable-background:new 0 0 506.6 435.8;" xml:space="preserve">
<style type="text/css">
	.st0{opacity:0.5;fill:#757848;}
</style>
<path class="st0" d="M499.4,141C480.6,56.8,386.6,2.7,301.2,0c-44-1.2-78.1,24.1-106.5,55.2C176,75,166.9,95,163.6,122.4
	c-2,20.3-4.3,37.2-15.3,55.5c-15.6,25.8-39.9,42.4-68.2,51.4c-20.5,6.8-41.2,12.7-57.6,28.8c-59.9,56.1,9.1,161.2,94.8,175.2
	c46,7.5,67-1,100.7-32.4c27.1-24.8,47.8-30.7,83-28c36.2,3.5,70.2,11.5,106-2.5C439.7,358.5,533.3,293.8,499.4,141z"/>
</svg>
