<svg xmlns="http://www.w3.org/2000/svg" width="50" height="80" viewBox="0 0 104 178">
    <path id="Path 1" fill="#fff" d="M104.17 125.92a52.08 52.08 0 1 0-104.15 0 52.08 52.08 0 0 0 104.15 0z"/>
    <path id="Path 2" fill="#434343"
          d="M41.35 141.8l7.48.01 21.27-21.38-25.16-25.31 25.69-25.85-23.27-23.36 23.81-23.95L49.03-.28l-7.49.01 22.11 22.23-23.79 23.95 23.28 23.38-25.7 25.83 25.16 25.31zm20.01 0l7.48.01 21.27-21.38-25.16-25.31 25.69-25.85-23.27-23.36 23.81-23.95L69.05-.28l-7.49.01 22.11 22.23-23.79 23.95 23.27 23.38-25.7 25.83 25.16 25.31z"/>
</svg>
